<svg width="466" height="357" viewBox="0 0 466 357" fill="none" xmlns="http://www.w3.org/2000/svg">
<path d="M373.19 91.1436C372.838 91.4771 372.486 91.7921 372.134 92.1441C364.482 99.6664 355.33 103.872 344.639 104.632C340.859 104.91 337.042 104.613 333.281 104.058C325.055 102.835 317.014 100.871 309.139 98.2398C308.102 97.8878 307.046 97.5172 306.101 96.9984C304.211 95.9608 303.674 94.5527 304.174 92.459C304.285 91.9773 304.452 91.4956 304.656 91.0509C306.897 85.9002 309.621 81.0458 313.345 76.8029C315.254 74.6352 317.143 72.4303 318.996 70.207C324.758 63.296 332.207 59.3496 340.915 57.645C346.825 56.4777 352.81 56.2739 358.813 56.3666C363.056 56.4407 367.113 57.4041 371.078 58.9234C373.042 59.6646 375.025 60.35 377.026 60.9615C378.156 61.3135 379.342 61.4618 380.805 61.7582C380.602 60.943 380.509 60.3871 380.324 59.8869C379.342 57.2744 378.527 54.6249 378.212 51.8087C377.73 47.5658 378.175 43.4155 379.323 39.3579C382.732 27.2406 390.088 17.8839 399.926 10.3245C404.299 6.97096 408.95 4.02503 414.026 1.83873C415.749 1.09761 417.584 0.523203 419.418 0.115587C421.456 -0.329084 422.883 0.523203 423.753 2.43158C424.754 4.65494 425.069 7.04505 425.254 9.43516C425.625 13.9004 425.717 18.3842 425.347 22.8865C424.772 29.5566 422.975 35.8376 420.159 41.8406C417.88 46.7135 415.453 51.5308 412.359 55.9589C412.192 56.1813 412.155 56.4963 412.062 56.7742C412.803 57.6821 413.878 57.5894 414.823 57.7932C419.214 58.7752 423.55 59.9795 427.718 61.6655C430.961 62.981 434.036 64.6301 436.945 66.6311C443.282 70.9852 449.618 75.3392 455.955 79.6933C457.771 80.9347 459.661 82.0834 461.384 83.4174C462.644 84.3809 463.829 85.511 464.811 86.7339C466.09 88.3458 465.96 90.1431 464.533 91.6253C463.718 92.4776 462.736 93.2557 461.699 93.793C459.846 94.7565 457.937 95.6644 455.955 96.3314C448.359 98.8327 440.614 100.778 432.61 101.408C425.773 101.945 419.047 101.464 412.359 99.9259C411.618 99.7591 410.839 99.685 410.098 99.5738C409.839 100.426 410.45 100.797 410.765 101.26C413.526 105.373 415.36 109.783 416.157 114.748C417.139 120.881 417.509 127.032 418.065 133.184C418.213 134.851 418.01 136.593 417.658 138.242C416.62 143.318 415.583 148.414 413.785 153.305C413.063 155.269 412.229 157.214 410.932 158.882C410.191 159.827 409.413 160.735 408.505 161.531C406.078 163.662 403.28 163.866 400.353 162.773C398.277 161.995 396.517 160.642 394.831 159.215C391.459 156.362 388.495 153.12 385.808 149.618C380.546 142.744 376.211 135.37 373.468 127.125C370.986 119.64 369.893 111.988 370.745 104.113C371.134 100.445 372.116 96.8687 373.19 93.3298C373.394 92.6814 373.543 91.9959 373.709 91.3474C373.543 91.2918 373.376 91.2362 373.209 91.1807L373.19 91.1436ZM389.717 122.011C389.199 122.419 389.069 122.956 389.273 123.568C388.717 122.993 388.439 122.363 388.791 121.548C389.05 120.955 389.199 120.325 389.384 119.714C390.273 119.213 390.088 118.584 389.588 117.917C389.792 116.416 388.995 115.174 388.513 113.507C387.828 114.563 387.327 115.378 386.772 116.138C386.401 116.638 386.253 117.453 385.382 117.398L385.456 117.472C385.678 115.934 386.716 114.804 387.42 113.507C387.698 113.007 388.18 112.58 387.865 111.913C387.012 111.673 387.012 112.562 386.623 112.895C386.216 113.229 385.938 113.118 385.567 112.951L385.623 112.988C386.345 111.784 387.513 110.765 387.401 108.949C386.086 109.801 385.79 111.135 384.993 112.117L385.067 112.191C384.659 111.117 385.419 110.339 385.79 109.468C386.067 108.801 386.864 108.319 386.364 107.263C385.493 108.504 384.678 109.653 383.881 110.802L383.955 110.894C383.622 110.061 383.955 109.338 384.381 108.653C384.937 107.708 385.567 106.8 386.049 105.818C386.382 105.132 386.475 104.354 385.567 103.613C382.825 107.485 381.213 111.802 378.545 116.119C378.638 115.211 378.601 114.804 378.73 114.452C380.138 110.283 381.899 106.281 384.622 102.779C385.289 101.908 385.567 101.075 385.289 100.018C385.123 99.3885 384.956 98.7586 384.715 97.8507C384.27 98.3139 383.992 98.5548 383.751 98.8512C383.084 99.722 382.473 100.63 381.75 101.464C381.584 101.649 381.083 101.538 380.731 101.575C381.954 99.9258 383.214 98.2953 384.4 96.6278C384.604 96.3314 384.493 95.8497 383.9 95.8867C383.233 96.6649 382.566 97.4431 381.899 98.2213C381.825 98.1657 381.75 98.1101 381.658 98.0545C382.084 97.017 382.51 95.9794 382.936 94.9233C383.14 94.8121 383.362 94.7195 383.511 94.5712C383.566 94.5157 383.418 94.2748 383.344 94.108C383.233 94.2192 383.066 94.3304 383.01 94.4601C382.955 94.6083 382.992 94.8121 382.992 94.9789C382.529 95.0715 382.065 95.1827 381.602 95.2753L381.676 95.3494C381.584 94.6824 381.473 94.0339 381.38 93.3669C381.584 91.9959 383.511 91.5697 383.418 89.9207C382.825 90.0689 382.38 90.1616 381.917 90.2727C381.917 88.3829 381.843 88.3088 382.621 87.2156C383.492 85.9928 383.325 84.8811 382.751 83.6398C381.701 84.245 380.818 84.5353 380.101 84.5106C381.12 83.6212 382.084 82.7874 382.862 82.1019C382.973 79.4895 383.084 77.0994 383.177 74.7278C383.177 74.2646 383.288 73.7088 382.417 73.5235C382.084 74.2831 381.639 75.0613 381.417 75.8765C380.602 78.8595 379.305 81.6573 377.915 84.3994C377.47 85.2887 377.007 86.1781 376.729 87.123C375.673 90.6433 374.673 94.1822 373.709 97.721C373.468 98.6289 373.487 99.6109 373.394 100.593C374.525 100.556 374.654 99.018 375.821 99.2588C375.636 99.8702 375.488 100.426 375.321 100.963C374.543 101.556 373.765 102.149 373.098 102.687C371.912 109.394 372.764 115.804 374.413 122.122C376.97 131.961 381.88 140.576 388.068 148.543C390.718 151.952 393.682 155.047 397.092 157.715C398.259 158.622 399.537 159.475 400.871 160.086C403.373 161.253 405.133 160.827 407.115 158.9C408.857 157.177 410.006 155.102 410.858 152.842C412.803 147.691 413.859 142.299 414.841 136.908C415.027 135.926 415.082 134.907 414.99 133.925C414.415 126.773 413.748 119.621 412.414 112.562C412.136 111.098 411.673 109.653 411.117 108.282C409.839 105.243 408.449 102.279 407.115 99.2588C406.763 98.4807 406.17 98.073 405.392 97.7581C403.817 97.1281 402.298 96.3684 400.797 95.5903C394.164 92.0885 389.384 86.9377 386.938 79.7674C386.419 78.2666 385.938 76.7288 385.382 75.2466C385.234 74.8575 385.289 74.2275 384.53 74.1534C384.456 74.8575 384.307 75.543 384.326 76.2286C384.4 78.4149 384.678 80.6197 384.622 82.806C384.567 84.5847 385.03 86.0855 386.105 87.4751L386.179 87.4195C385.827 87.4936 385.363 87.2898 385.123 87.8827C385.215 88.3829 385.326 88.9573 385.456 89.5872C388.143 91.2918 390.903 92.8482 393.164 95.1642C390.514 94.4045 388.439 92.5147 386.012 91.2362C385.771 93.2187 385.752 93.2558 387.068 94.0154C390.273 95.8682 393.275 98.0175 396.073 100.426C396.388 100.685 396.962 100.871 396.647 101.519C393.182 99.685 390.236 97.1466 386.864 95.2382C386.16 96.3129 386.772 97.1466 386.827 97.9989C386.92 99.2218 387.531 99.9814 388.587 100.556C389.81 101.223 390.959 102.02 392.163 102.742C395.572 104.854 398.666 107.374 401.557 110.135C402.02 110.561 402.372 111.08 402.78 111.561C397.629 108.875 393.164 105.243 388.18 102.223C387.828 103.631 388.383 104.688 388.791 105.799C391.089 107.374 393.738 108.449 396.184 110.654C393.497 110.135 391.811 108.393 389.569 108.004C391.385 109.875 393.997 110.709 395.943 112.84C393.571 112.488 392.126 110.783 389.44 110.19C390.44 111.117 390.903 111.636 391.441 112.025C392.404 112.729 393.405 113.377 394.387 114.044L394.479 113.97C393.997 113.933 393.497 114.007 393.071 113.859C392.367 113.599 391.83 112.951 390.736 112.951C391.385 115.489 392.256 117.787 393.015 120.121C393.386 121.307 394.072 122.104 395.165 122.789C397.592 124.327 399.889 126.087 402.187 127.81C402.539 128.07 402.724 128.57 402.983 128.978L403.039 128.922C402.02 128.996 401.409 128.218 400.686 127.755C399 126.68 397.388 125.494 395.739 124.364C395.443 124.16 395.146 123.808 394.701 124.105C394.868 125.846 395.054 125.717 395.739 126.347C396.221 126.791 397.055 126.903 397.073 127.792L397.129 127.736C396.851 127.959 396.425 128.125 396.74 128.607C397.11 129.219 398.148 129.311 398.037 130.312L398.092 130.256C397.722 130.275 397.332 130.312 396.74 130.349C396.962 132.517 398.463 134.277 398.629 136.556C397.425 135.648 397.314 134.147 396.036 133.387C395.869 134.388 395.813 135.185 395.591 135.926C395.387 136.648 395.016 137.315 394.72 138.001C394.794 136.482 394.998 135.018 395.368 133.61C395.646 132.554 395.091 131.924 394.498 131.257H394.535C395.294 130.441 394.757 129.997 393.979 129.348C392.663 133.109 391.441 136.63 390.199 140.15C390.014 138.538 390.032 137 390.625 135.537C391.478 133.424 392.311 131.312 393.182 129.219C393.516 128.459 393.682 127.736 393.349 126.921C392.7 125.383 392.052 123.827 391.311 122.048C390.903 122.586 390.588 122.919 390.366 123.327C389.792 124.364 389.273 125.439 388.68 126.458C388.606 126.606 388.18 126.532 387.902 126.569L387.976 126.625C388.402 125.587 388.828 124.531 389.236 123.475L389.699 121.919C390.144 121.733 390.317 121.406 390.218 120.937C390.051 121.326 389.903 121.659 389.773 122.011H389.717ZM343.712 86.4004C343.435 86.7154 343.138 87.0304 342.86 87.3453C342.768 87.2527 342.675 87.1415 342.582 87.0489C342.823 86.5486 343.045 86.0484 343.379 85.3258C341.526 85.3999 339.951 85.4925 338.358 85.511C336.764 85.511 335.171 85.437 333.559 85.437C330.687 85.437 330.484 85.4184 328.872 84.5662C330.743 84.1956 332.373 83.8806 333.93 83.5656C334.078 83.1395 334.56 82.3613 334.819 82.1019C334.819 82.2687 334.782 82.491 334.875 82.5836C334.967 82.6763 335.19 82.6577 335.356 82.6763C335.245 82.5095 335.153 82.3428 335.004 82.1946C334.949 82.139 334.819 82.176 334.726 82.1575C334.634 81.7869 334.541 81.4164 334.411 80.9903C335.912 80.9903 336.746 82.2131 337.932 82.6578C338.284 82.7875 338.728 82.9171 338.858 82.176C337.728 80.9347 335.894 80.4159 334.708 78.5816C335.393 78.7854 335.801 78.8039 336.097 78.9892C337.432 79.86 338.766 80.7494 340.025 81.7128C341.23 82.6392 342.323 82.5095 343.638 81.6387C340.081 78.3407 335.857 76.21 332.355 73.0788C332.892 73.0417 333.374 73.1158 333.8 73.3011C336.079 74.3387 338.247 75.5616 340.192 77.155C341.674 78.3408 343.12 79.5636 344.62 80.7308C345.084 81.0829 345.658 81.5275 346.158 81.5275C347.807 81.509 349.475 81.3423 351.29 80.5085C350.031 79.193 348.919 78.0628 347.844 76.9141C346.788 75.8024 345.658 74.7463 345.084 73.2641C348.085 75.0983 350.068 78.0072 352.569 80.5085C353.347 80.2677 354.051 80.0453 354.978 79.7489C354.385 79.0263 353.921 78.5075 353.514 77.9516C353.162 77.4699 352.606 77.0623 352.513 76.21C354.422 76.8214 355.144 78.5446 356.589 79.5265C357.034 79.2671 357.423 79.0448 358.127 78.6372C357.59 78.1554 357.164 77.859 356.849 77.4699C356.534 77.0993 355.997 76.7473 356.293 75.7839C357.405 76.8214 358.331 77.6923 358.85 78.1555C360.369 78.8966 360.48 77.3217 361.703 77.4699C363.222 77.6367 365.983 75.8394 367.41 74.524C366.947 74.0237 366.483 73.5049 366.002 73.0232C365.576 72.5971 365.149 72.1895 364.705 71.7819C364.186 71.3001 363.686 70.8369 363.167 70.3552C362.648 69.892 362.129 69.4288 361.611 68.9471C361.166 68.5395 360.721 68.1504 360.314 67.7057C359.906 67.261 359.295 66.9275 359.109 65.927C363.148 68.0763 365.742 71.4298 368.855 74.1905C369.3 73.894 369.615 73.6902 370.096 73.3752C368.855 72.0597 367.688 70.8184 366.261 69.2991C368.744 69.6881 369.522 72.208 372.097 72.56C371.56 71.8004 371.301 71.4298 371.023 71.0407C370.689 70.5775 370.337 70.1328 369.837 69.4473C371.449 69.4844 372.005 70.9296 373.209 71.0778C376.488 69.0027 378.656 66.7052 379.583 64.241C375.025 63.4443 370.763 61.6841 366.446 60.2019C364.575 59.5534 362.574 59.1828 360.591 59.0161C354.496 58.5343 348.419 58.8493 342.397 59.8127C333.467 61.2579 325.944 65.1674 320.219 72.3006C318.774 74.0979 317.255 75.8024 315.754 77.544C312.474 81.3423 309.825 85.5296 307.861 90.1801C306.471 93.4781 305.971 94.1081 310.14 95.4421C317.959 97.9433 325.889 99.9258 333.985 101.204C338.024 101.834 342.119 102.075 346.232 101.686C353.254 101.019 359.609 98.5362 365.427 94.6268C371.375 90.6248 375.84 85.3628 378.286 78.526C378.656 77.4884 379.027 76.4509 379.527 75.4875C381.102 72.4118 381.584 69.0397 382.232 65.7232C382.251 65.5749 382.121 65.4082 381.954 65.0191C381.046 66.3346 380.268 67.576 379.379 68.7062C378.452 69.8735 377.433 70.9851 376.359 72.0227C375.303 73.0602 374.135 73.9867 372.913 75.0798C372.838 75.543 372.783 76.1359 372.653 76.7288C372.505 77.4143 372.338 78.0813 372.116 78.7483C371.968 79.193 371.708 79.6192 371.504 80.0453L371.152 79.9342L371.467 76.7659C370.689 78.2852 370.485 79.9712 369.226 81.2682C369.448 79.9527 369.67 78.6372 370.004 76.6918C367.984 78.8966 368.41 81.5646 366.798 83.3618C366.409 81.6202 368.151 80.3232 367.465 78.6001C365.909 79.2301 366.446 80.8606 365.816 81.9167C365.131 83.1025 364.853 84.5291 363.76 85.4926C363.445 85.4184 363.167 85.3443 362.87 85.2702C364.149 83.7324 364.723 81.9166 365.186 79.5265C363.019 81.2867 362.333 83.5286 360.962 85.2517C359.572 86.9933 358.405 88.9202 356.626 90.3654C356.886 89.5131 357.275 88.7534 357.683 88.0123C358.072 87.3268 358.498 86.6598 358.924 85.9928C359.387 85.2331 359.924 84.5106 360.314 83.7139C360.684 82.9728 361.462 82.3984 361.462 81.4164C360.017 81.4534 359.128 82.0463 358.461 83.158C358.035 83.8621 357.775 84.8255 356.719 84.9367L356.775 84.9923C356.923 84.2697 357.071 83.5286 357.312 82.3613C354.922 83.8991 353.921 86.3263 351.698 87.5121C352.513 86.2707 353.329 85.0293 354.348 83.4915C352.532 83.825 351.087 84.103 349.623 84.3438C348.493 84.5291 347.622 85.0478 346.844 85.9187C344.12 88.9758 341.137 91.792 337.913 94.3118C337.672 94.4971 337.524 95.09 336.913 94.5712C338.006 93.404 339.099 92.2552 340.137 91.0694C340.581 90.5692 340.896 89.9393 341.267 89.3649C341.693 89.0314 342.119 88.6979 342.545 88.3644C343.138 87.79 344.194 87.438 343.601 86.2707C344.806 86.6227 345.047 86.456 345.287 84.9182C344.657 85.474 344.157 85.9002 343.675 86.3634L343.712 86.4004ZM421.122 82.0093C421.567 82.7319 422.049 82.2316 422.531 82.0649H422.568C423.253 81.5276 423.92 80.9532 424.643 80.4344C425.31 79.9527 425.847 79.1931 427.014 79.1375C426.088 80.7679 424.383 81.3052 423.383 82.4725C423.624 83.158 424.05 83.2877 424.587 83.158C425.236 83.0098 425.643 82.176 426.44 82.5095H426.421C426.384 82.843 426.347 83.2136 426.31 83.6212C427.274 83.825 428.145 83.9547 429.015 84.1771C430.368 84.5291 431.405 84.1029 432.591 83.3803C435.204 81.7684 438.001 80.4344 440.725 79.0078C441.114 78.8039 441.596 78.7669 442.04 78.6557C441.225 79.7859 440.095 80.3047 439.002 80.842C437.927 81.3608 436.834 81.861 435.797 82.4539C434.722 83.0654 433.425 83.3803 432.499 84.7144C433.295 84.8996 433.851 85.0108 434.407 85.1405C434.926 85.2517 435.445 85.3814 436.167 85.5481C434.815 86.4004 433.406 85.1405 432.147 86.2522C433.536 87.6603 434.759 89.0684 436.612 89.6984L436.519 89.5872C437.205 90.458 437.89 91.3289 438.576 92.1997C435.185 90.9027 432.758 88.4755 430.59 85.826C429.219 85.5852 427.959 85.3443 426.662 85.1405C425.18 84.9182 423.698 84.7699 422.216 84.5846C422.123 84.5846 422.012 84.6032 421.956 84.6588C421.882 84.7144 421.864 84.8255 421.752 85.0664C422.03 85.5852 422.345 86.1781 422.716 86.7524C423.031 87.2712 423.383 87.7529 423.735 88.2347C424.161 88.7905 424.606 89.3278 425.05 89.8651C425.495 90.4024 425.94 90.9583 426.366 91.4956C426.736 91.9588 427.144 92.422 427.496 92.9037C427.867 93.404 428.404 93.8301 428.571 94.8677C424.457 92.0144 422.253 88.142 420.122 84.2697C417.621 83.4174 415.119 83.0283 412.247 82.3984C413.507 85.3628 414.934 87.7529 416.509 90.0319C418.065 92.2923 419.77 94.4415 421.697 96.9984C419.362 96.2388 418.102 94.8862 417.028 93.3484C414.897 90.3098 413.063 87.1045 411.655 83.6768C411.395 83.0468 411.099 82.4169 410.728 81.6017C409.005 81.5831 407.56 80.3047 405.652 80.3974C405.744 81.0644 405.818 81.509 405.892 82.0834C405.411 81.8055 405.003 81.5831 404.614 81.3608C404.114 82.176 405.429 82.8801 404.651 83.9177C403.947 82.6578 403.336 81.5276 402.687 80.3974C402.354 79.7859 402.039 79.156 401.594 78.6372C401.297 78.2666 400.816 77.9887 400.241 78.563C400.519 79.2486 400.797 79.9897 401.094 80.7123C401.446 81.5461 401.798 82.3613 402.168 83.1766C402.502 83.8991 402.854 84.6217 403.206 85.3443C403.613 86.141 404.077 86.9192 404.447 87.7344C404.744 88.4014 405.337 88.9758 405.207 90.0875C403.521 88.6237 402.613 86.9748 401.835 85.2517C400.853 83.0654 400 80.8235 399.037 78.6372C398.759 78.0072 398.5 77.229 397.981 76.8955C396.499 75.9506 394.905 75.191 392.867 74.1163C393.386 75.4318 393.664 76.2285 394.016 77.0067C394.349 77.7293 394.739 78.4334 395.128 79.1375C395.554 79.9342 395.998 80.7123 396.443 81.4905C396.832 82.176 397.314 82.843 397.647 83.5656C397.981 84.3067 398.741 84.9182 398.555 86.2337C395.609 82.6578 393.201 79.1559 392.2 74.8575C392.108 74.4684 392.033 74.0793 391.904 73.7087C391.644 73.0047 391.126 72.6897 390.347 72.6712C390.236 74.6166 391.089 76.3026 390.829 78.2851C388.958 76.1359 389.717 73.4308 388.847 71.1334C387.568 72.1339 389.162 73.3197 388.365 74.3016C387.642 73.542 387.624 72.6156 387.587 71.6707C387.494 69.6141 387.124 69.0582 385.16 67.928C385.104 68.1133 385.011 68.3171 385.011 68.5024C385.011 68.8915 385.067 69.2991 385.141 69.6882C385.919 73.6346 387.383 77.3217 389.032 80.9717C391.07 85.474 394.109 89.087 398.296 91.6994C400.149 92.8482 402.076 93.9598 404.095 94.7936C413.248 98.6289 422.827 99.5553 432.591 98.5918C440.077 97.8507 447.302 95.9053 454.417 93.5337C455.936 93.0334 457.4 92.385 458.827 91.6809C459.716 91.2547 460.55 90.6618 461.31 90.0319C462.329 89.1981 462.421 88.3644 461.532 87.4751C460.531 86.5116 459.457 85.6037 458.308 84.807C451.342 79.9527 444.375 75.1169 437.371 70.2996C434.574 68.3727 431.72 66.5569 428.608 65.1488C422.104 62.1843 415.23 60.5168 408.208 59.3866C405.559 58.9605 402.835 58.8679 400.204 59.7943C396.999 60.9245 393.794 62.0176 390.625 63.2404C388.865 63.926 387.272 64.9635 386.16 66.5199C387.198 68.5394 387.216 68.558 389.829 70.3923C390.384 70.207 390.94 70.0402 391.515 69.8549C391.348 70.2255 391.181 70.5961 390.959 71.1334C391.848 70.9481 392.571 70.7998 393.275 70.6516C392.96 71.1148 392.626 71.5595 392.163 72.2451C394.498 72.7083 395.758 74.8019 397.944 75.1169C399.519 73.8755 401.075 72.6341 402.65 71.4113C404.855 69.6882 407.06 67.965 409.672 66.8719C409.969 66.7422 410.321 66.3717 410.561 67.0387C407.541 69.1509 404.521 71.263 401.52 73.4123C400.797 73.9311 400.167 74.5796 399.482 75.1725C399.408 75.228 399.371 75.3392 399.352 75.4319C399.352 75.5245 399.352 75.6356 399.389 75.9136C400 76.21 400.742 76.4879 401.39 76.8955C402.076 77.3402 403.187 76.6177 403.484 77.2847C403.947 78.3593 405.374 77.0253 405.54 78.3037C406.281 78.5631 407.023 78.8595 407.782 79.1004C408.523 79.3412 409.302 79.508 410.024 79.7118C413.304 76.2842 416.879 73.5605 421.308 71.9671C421.345 72.2265 421.4 72.3747 421.363 72.3933C420.233 73.19 419.084 73.9681 417.954 74.7648C415.99 76.1359 414.026 77.507 412.081 78.8966C411.692 79.1745 411.247 79.508 411.525 80.1194C412.933 80.4159 414.23 80.2985 415.416 79.7674L415.268 81.2126C416.435 81.4905 417.528 81.6758 418.566 82.0463C419.418 82.3428 420.122 81.9722 420.9 81.8796L421.104 82.0834L421.122 82.0093ZM395.406 45.1942C396.147 45.6203 396.925 45.713 397.74 45.3795C397.518 45.9724 397.092 46.3985 396.499 46.5467C395.443 46.8061 394.368 46.9729 393.33 47.2508C393.034 47.3249 392.793 47.6399 392.237 48.066C393.164 48.2142 393.72 48.3254 394.294 48.418L394.257 48.3625C393.942 49.2889 393.052 48.7701 392.478 49.048C391.848 49.363 391.163 49.6038 391.292 50.6229C392.237 50.9564 393.201 50.734 394.146 50.4932C397.592 49.6038 401.038 48.6774 404.484 47.7881C405.059 47.6399 405.652 47.5843 406.226 47.4731C403.521 49.363 400.575 50.5117 397.444 51.1231C395.498 51.4937 393.534 51.7161 391.57 51.9199C390.588 52.031 390.162 52.4942 390.218 53.4577C389.68 53.6985 389.495 54.0876 389.717 54.7731C390.755 54.8843 391.811 54.8288 392.886 54.5879C393.553 54.4397 394.257 54.5323 394.942 54.4952C394.22 55.329 393.201 55.329 392.237 55.4216C391.163 55.5513 390.088 55.681 388.884 55.8292C388.754 57.7561 387.401 59.2199 387.698 61.2394C388.161 61.1097 388.55 61.0171 388.902 60.8688C391.607 59.8498 394.312 58.7937 396.999 57.7747C400.112 56.5889 403.336 56.0331 406.689 56.311C407.171 56.348 407.653 56.2739 408.208 56.2554C409.264 54.8658 410.395 53.5874 411.266 52.1422C414.323 47.1211 417.139 41.9518 419.344 36.486C421.511 31.0759 422.994 25.5174 422.994 19.6255C422.994 18.2359 423.086 16.8279 422.994 15.4383C422.771 12.4553 422.475 9.49079 422.123 6.52631C421.975 5.35905 421.826 4.13616 420.77 3.3024C418.862 3.02448 417.213 3.80268 415.583 4.5438C407.301 8.26793 399.982 13.4002 393.664 19.9405C390.107 23.6091 387.068 27.6853 384.696 32.2246C382.047 37.3013 380.083 42.6003 379.805 48.418C379.62 52.4757 380.416 56.348 381.806 60.1092C381.917 60.4056 382.417 60.8133 382.603 60.7577C383.362 60.5168 383.677 61.0171 384.103 61.4247C384.493 61.8138 384.919 62.1288 385.79 62.8699C385.493 59.961 383.344 57.997 384.066 55.0325C384.659 55.7551 385.067 56.1627 385.345 56.6445C385.586 57.0521 385.678 57.5338 385.845 57.997C385.79 58.2008 385.752 58.4232 385.697 58.627C385.715 58.627 385.752 58.627 385.771 58.627C385.734 58.5529 385.641 58.4417 385.66 58.3861C385.715 58.2379 385.808 58.1082 385.882 57.9785C386.568 58.1823 386.846 57.7006 386.716 57.2188C386.531 56.5889 386.067 56.0516 385.771 55.4402C385.4 54.699 384.659 54.1061 384.882 52.7721C385.734 53.9023 386.382 54.7732 387.049 55.681C387.29 55.4402 387.494 55.329 387.513 55.1993C387.624 54.5323 387.679 53.8467 387.753 53.1612L387.679 53.2168C388.958 51.9013 389.143 50.0485 389.977 48.5107C390.551 47.4361 390.625 46.3429 390.181 45.1386C389.717 43.8787 389.458 42.5262 389.088 41.1921C389.569 41.2477 389.884 41.2663 390.218 41.3033C389.699 42.5447 390.607 43.5267 390.811 44.6198C390.848 44.8051 391.107 44.9348 391.7 45.4906C391.2 43.6749 391.014 42.3779 390.144 41.3403C390.292 41.0995 390.44 40.8772 390.699 40.451C391.237 41.4515 391.681 42.3038 392.145 43.1561C392.923 42.4891 393.201 41.8035 392.793 40.766C392.367 39.6543 391.7 38.5056 392.071 36.7639C392.682 38.2091 393.108 39.2838 393.571 40.3955C395.183 38.8206 395.739 37.1716 395.072 35.1335C394.739 34.1145 394.627 33.0028 394.424 31.9467H394.461C394.924 31.8355 395.183 31.9838 395.294 32.4655C395.554 33.5772 395.85 34.6888 396.128 35.8375C397.036 35.4855 397.258 34.9112 397.184 34.1515C397.129 33.5772 397.129 32.9843 397.092 32.4099L397.017 32.4469C397.314 32.7619 397.592 33.0954 397.999 33.5401C398.185 33.1325 398.555 32.6878 398.481 32.3172C398.296 31.2611 397.944 30.2421 397.647 29.2231L397.684 29.2416C397.962 29.2786 398.389 29.2416 398.463 29.3713C398.796 29.9457 399.037 30.5942 399.371 31.3723C400.371 29.7419 398.5 28.2411 399.574 26.7403C399.963 27.7594 400.315 28.6858 400.686 29.6677C402.372 28.5005 402.78 27.0738 402.354 25.3507C402.298 25.1655 402.242 24.9616 402.242 24.7578C402.354 22.7383 401.649 20.6631 402.465 18.5324C403.391 19.3291 403.002 20.274 403.076 21.1263C403.15 21.923 403.169 22.7197 403.28 23.5164C403.391 24.3317 402.965 25.2395 403.632 26.1659C405.299 24.8875 406.244 23.0718 408.023 22.1454C407.023 23.85 405.874 25.4248 404.744 27.0367C404.503 27.3888 403.984 27.7408 404.614 28.4634C405.967 28.0929 407.393 27.7408 408.801 27.2962C410.321 26.8144 411.803 26.2215 413.322 25.7398C414.693 25.3137 415.935 24.4428 417.75 24.3687C414.323 27.0738 409.728 28.6672 403.002 29.6122C399.926 33.8551 397.851 37.3383 397.092 39.5246C399.648 39.9323 405.096 38.8206 409.45 36.9863H409.431C409.672 37.6163 409.302 37.9312 408.838 38.1535C406.763 39.1726 404.577 39.8396 402.316 40.1916C400.167 40.5251 397.999 40.7845 395.85 41.0624C395.183 42.1556 394.405 43.1746 394.016 44.6939C394.887 44.6198 395.535 44.6013 396.184 44.5272C396.906 44.453 397.221 45.0274 397.629 45.4165C396.906 44.8051 396.054 45.2127 395.276 45.1386C394.813 45.2313 394.331 45.3054 393.868 45.4165C393.701 45.4536 393.497 45.5648 393.423 45.713C393.367 45.8427 393.423 46.1762 393.516 46.2132C394.294 46.5282 395.054 46.0464 395.294 45.1571L395.406 45.1942Z" fill="#FFD7D1"/>
<path d="M341.304 89.4019C340.804 89.6798 340.285 89.9577 339.488 90.3838C340.211 88.7163 341.508 87.9752 342.582 87.0488C342.675 87.1415 342.768 87.2526 342.86 87.3453C342.768 87.6973 342.675 88.0494 342.582 88.4014C342.156 88.7349 341.73 89.0684 341.304 89.4019V89.4019Z" fill="#FFD7D1"/>
<path d="M420.919 81.8054C421.401 81.3607 421.882 80.8976 422.327 80.4714C423.198 81.0087 422.549 81.546 422.568 82.0463H422.531C422.068 82.0277 421.586 82.0092 421.123 81.9907L420.919 81.7869V81.8054Z" fill="#FFD7D1"/>
<path d="M403.688 123.327C405.93 123.512 407.505 124.827 409.673 126.569C408.617 126.273 408.172 126.254 407.857 126.05C406.449 125.161 405.078 124.235 403.688 123.308V123.327Z" fill="#FFD7D1"/>
<path d="M386.03 87.4565C388.198 88.1791 389.847 89.6428 391.348 91.2732C391.422 91.3473 391.292 91.6253 391.274 91.8105V91.8661C390.533 91.2918 389.754 90.7174 389.013 90.1059C387.994 89.2722 386.623 88.7905 386.104 87.4009L386.03 87.4565Z" fill="#FFD7D1"/>
<path d="M394.443 131.219C394.907 131.96 394.814 132.757 394.61 133.517C394.166 135.11 393.665 136.666 392.479 138.519C392.702 135.629 394.184 133.609 394.499 131.275L394.443 131.238V131.219Z" fill="#FFD7D1"/>
<path d="M406.874 137.797C408.727 138.408 410.098 139.65 411.21 141.206C411.247 141.262 411.173 141.391 411.135 141.484L411.21 141.41C410.431 141.15 409.968 140.205 409.005 140.354L409.097 140.483C408.56 139.298 408.19 139.131 407.245 139.668C407.726 138.946 406.93 138.408 406.948 137.741L406.893 137.797H406.874Z" fill="#FFD7D1"/>
<path d="M380.361 121.789C379.99 123.215 379.564 124.568 377.971 125.791C378.508 123.901 379.194 122.678 380.361 121.789Z" fill="#FFD7D1"/>
<path d="M403.874 102.501C403.763 102.168 403.652 101.834 403.522 101.519C403.689 101.501 403.893 101.39 404.004 101.445C405.042 102.075 406.153 102.594 406.969 103.724C406.598 103.78 406.357 103.835 406.098 103.873L406.209 103.984C406.098 103.261 405.505 103.261 404.968 103.168L405.042 103.261C405.005 102.483 404.356 102.613 403.874 102.501Z" fill="#FFD7D1"/>
<path d="M408.986 140.354C409.412 141.095 409.819 141.836 410.412 142.874C408.763 142.022 407.948 140.817 407.207 139.52C407.837 139.835 408.448 140.169 409.078 140.484L408.986 140.354V140.354Z" fill="#FFD7D1"/>
<path d="M375.302 100.982C375.432 102.001 375.617 103.038 374.246 103.835C374.654 102.742 374.969 101.853 375.284 100.963L375.302 100.982Z" fill="#FFD7D1"/>
<path d="M383.881 134.425C383.529 134.74 383.158 135.036 382.843 135.314C382.782 134.721 382.998 134.005 383.492 133.165C383.677 133.702 383.807 134.073 383.936 134.443H383.881V134.425Z" fill="#FFD7D1"/>
<path d="M406.634 122.66C405.763 122.734 405.3 122.141 404.707 121.474C405.281 121.474 405.726 121.474 406.189 121.474L406.097 121.363C406.263 121.807 406.412 122.271 406.578 122.715L406.634 122.66V122.66Z" fill="#FFD7D1"/>
<path d="M406.929 137.741C406.373 137.797 405.984 137.649 405.984 136.945C406.411 137.111 406.985 137.074 406.855 137.797L406.911 137.741H406.929Z" fill="#FFD7D1"/>
<path d="M406.078 103.872C406.227 104.224 406.375 104.576 406.597 105.095C405.634 105.04 405.171 104.595 404.967 103.78L404.911 103.835L406.19 103.984L406.078 103.872V103.872Z" fill="#FFD7D1"/>
<path d="M397.964 130.275C398.612 130.219 399.094 130.386 399.168 131.498C398.649 130.923 398.334 130.571 398.019 130.219L397.964 130.275Z" fill="#FFD7D1"/>
<path d="M408.005 123.197C408.375 123.605 408.727 123.994 409.265 124.605C408.19 124.364 407.653 124.049 408.079 123.141L408.005 123.197V123.197Z" fill="#FFD7D1"/>
<path d="M377.824 123.641C377.583 124.03 377.361 124.438 377.12 124.827C377.12 124.271 376.582 123.326 377.842 123.697L377.805 123.641H377.824Z" fill="#FFD7D1"/>
<path d="M375.914 104.465C375.951 105.206 375.654 105.725 374.932 105.984C375.055 105.342 375.401 104.854 375.969 104.52L375.914 104.465Z" fill="#FFD7D1"/>
<path d="M389.643 117.879C389.588 118.509 389.532 119.139 389.477 119.769C389.254 119.713 389.05 119.676 388.828 119.621L388.884 119.676C388.735 118.898 389.106 118.361 389.643 117.861V117.879Z" fill="#FFD7D1"/>
<path d="M387.865 126.532C387.902 126.921 387.939 127.329 388.013 127.977C387.346 127.292 387.791 126.977 387.957 126.606L387.883 126.532H387.865Z" fill="#FFD7D1"/>
<path d="M381.009 123.568C381.064 124.253 381.398 125.068 380.249 125.198L380.323 125.272C380.583 124.735 380.842 124.179 381.101 123.642L381.027 123.549L381.009 123.568Z" fill="#FFD7D1"/>
<path d="M380.251 125.198C380.251 125.624 380.232 126.032 380.214 126.736C379.658 125.939 379.955 125.606 380.325 125.272L380.251 125.18V125.198Z" fill="#FFD7D1"/>
<path d="M411.135 141.484C411.283 141.41 411.431 141.299 411.598 141.317C411.672 141.317 411.746 141.521 411.82 141.651C411.746 141.669 411.654 141.743 411.616 141.725C411.468 141.632 411.357 141.521 411.227 141.428L411.153 141.521L411.135 141.484Z" fill="#FFD7D1"/>
<path d="M408.58 122.252C408.728 122.345 408.876 122.437 409.025 122.511C408.895 122.4 408.784 122.289 408.654 122.178L408.562 122.252H408.58Z" fill="#FFD7D1"/>
<path d="M408.672 122.178C408.153 122.123 407.579 122.215 407.393 121.511L407.319 121.585C407.875 121.567 408.32 121.715 408.579 122.252L408.672 122.178Z" fill="#FFD7D1"/>
<path d="M408.06 123.123C407.43 123.456 406.893 123.493 406.634 122.66L406.578 122.715C407.041 122.882 407.505 123.049 407.986 123.197L408.06 123.123V123.123Z" fill="#FFD7D1"/>
<path d="M407.393 121.511C406.967 121.455 406.54 121.418 406.114 121.363L406.207 121.474C406.207 121.252 406.244 121.029 406.262 120.807L406.188 120.862C406.726 120.862 407.263 120.825 407.337 121.567L407.411 121.492L407.393 121.511Z" fill="#FFD7D1"/>
<path d="M405.021 120.177C405.559 120.14 406.115 120.103 406.17 120.862L406.244 120.807C405.744 120.77 405.244 120.732 405.114 120.103L405.04 120.177H405.021Z" fill="#FFD7D1"/>
<path d="M405.096 120.121C404.929 120.066 404.744 120.028 404.577 119.973C404.503 119.936 404.466 119.843 404.41 119.788C404.484 119.732 404.614 119.639 404.632 119.658C404.762 119.825 404.892 120.01 405.022 120.195L405.096 120.121V120.121Z" fill="#FFD7D1"/>
<path d="M402.929 128.978C402.929 128.978 403.133 128.922 403.188 128.959C403.336 129.052 403.466 129.181 403.614 129.292C403.54 129.348 403.466 129.404 403.392 129.459C403.262 129.292 403.114 129.107 402.984 128.94L402.929 128.996V128.978Z" fill="#FFD7D1"/>
<path d="M403.799 103.057C404.206 103.112 404.614 103.187 405.04 103.242L404.966 103.149C404.966 103.372 404.929 103.594 404.929 103.816L404.985 103.761C404.596 103.52 404.206 103.279 403.817 103.038L403.799 103.057Z" fill="#FFD7D1"/>
<path d="M399.63 128.941C399.685 129.108 399.741 129.256 399.797 129.423C399.797 129.46 399.741 129.497 399.704 129.534C399.704 129.311 399.704 129.108 399.704 128.885L399.648 128.941H399.63Z" fill="#FFD7D1"/>
<path d="M399.703 128.885C398.666 129.163 398.499 129.089 398.406 128.274L398.332 128.348C398.758 128.552 399.184 128.755 399.629 128.959L399.703 128.904V128.885Z" fill="#FFD7D1"/>
<path d="M398.406 128.274C397.795 128.496 397.276 128.514 397.072 127.718L397.017 127.773C397.591 127.625 397.999 127.885 398.332 128.348L398.406 128.274V128.274Z" fill="#FFD7D1"/>
<path d="M394.351 114.063C394.517 114.248 394.666 114.433 394.832 114.619C394.74 114.619 394.591 114.656 394.573 114.656C394.517 114.433 394.48 114.229 394.443 114.007L394.369 114.081L394.351 114.063Z" fill="#FFD7D1"/>
<path d="M388.828 119.621C388.81 119.807 388.828 120.01 388.754 120.177C388.717 120.27 388.532 120.307 388.421 120.363C388.402 120.27 388.31 120.14 388.347 120.122C388.513 119.955 388.699 119.825 388.884 119.677L388.828 119.621V119.621Z" fill="#FFD7D1"/>
<path d="M383.918 134.462C383.918 134.462 383.751 134.61 383.77 134.666C383.807 134.814 383.9 134.944 383.974 135.092C383.974 135.018 384.011 134.944 383.992 134.888C383.955 134.74 383.918 134.592 383.881 134.444L383.937 134.462H383.918Z" fill="#FFD7D1"/>
<path d="M385.531 112.951C385.624 113.118 385.753 113.285 385.772 113.47C385.772 113.581 385.587 113.711 385.494 113.822C385.494 113.748 385.42 113.655 385.439 113.581C385.476 113.396 385.55 113.211 385.587 113.007L385.531 112.951Z" fill="#FFD7D1"/>
<path d="M385.364 117.379C385.271 117.583 385.178 117.787 385.086 117.99C385.049 117.916 384.993 117.787 385.011 117.768C385.141 117.657 385.289 117.564 385.438 117.453L385.364 117.379V117.379Z" fill="#FFD7D1"/>
<path d="M384.956 112.099C384.771 112.173 384.586 112.247 384.4 112.321C384.437 112.247 384.456 112.117 384.493 112.099C384.66 112.099 384.845 112.117 385.03 112.154L384.956 112.099Z" fill="#FFD7D1"/>
<path d="M383.826 110.783L383.308 111.284L383.252 111.043C383.456 110.969 383.678 110.932 383.882 110.876L383.808 110.783H383.826Z" fill="#FFD7D1"/>
<path d="M391.274 91.8107L391.682 91.8663C391.682 91.8663 391.571 91.7366 391.515 91.7366C391.441 91.7366 391.367 91.8107 391.293 91.8663V91.8107H391.274Z" fill="#FFD7D1"/>
<path d="M381.565 95.2566C381.491 95.4604 381.398 95.6642 381.324 95.8495C381.287 95.7754 381.213 95.6642 381.231 95.6457C381.361 95.5345 381.491 95.4419 381.639 95.3307L381.565 95.2566V95.2566Z" fill="#FFD7D1"/>
<path d="M380.695 101.538C380.75 101.705 380.806 101.871 380.843 102.038C380.861 102.131 380.843 102.223 380.843 102.316C380.787 102.223 380.676 102.149 380.658 102.057C380.639 101.89 380.658 101.723 380.658 101.556L380.695 101.538Z" fill="#FFD7D1"/>
<path d="M377.86 123.715C377.823 123.549 377.73 123.382 377.749 123.215C377.749 123.104 377.915 123.011 377.989 122.919C377.989 122.993 377.989 123.085 377.989 123.16C377.934 123.326 377.86 123.475 377.804 123.66L377.86 123.734V123.715Z" fill="#FFD7D1"/>
<path d="M375.988 104.521C375.988 104.354 375.97 104.169 375.988 104.002C375.988 103.928 376.099 103.872 376.173 103.798C376.248 103.946 376.396 104.15 376.359 104.206C376.285 104.335 376.081 104.372 375.933 104.447L375.988 104.502V104.521Z" fill="#FFD7D1"/>
<path d="M381.084 123.642C381.251 123.512 381.436 123.382 381.603 123.253C381.603 123.345 381.603 123.494 381.547 123.512C381.362 123.549 381.176 123.549 380.991 123.568L381.065 123.642H381.084Z" fill="#FFD7D1"/>
<path d="M375.562 74.7278C375.766 77.3217 375.599 79.9156 374.062 82.5651C374.117 79.6562 374.914 77.2291 375.562 74.7278Z" fill="#FFD7D1"/>
<path d="M362.814 63.0184C363.37 62.722 363.926 62.407 364.519 62.092C365.557 62.7961 366.594 63.5187 367.28 64.6674C365.242 65.0565 364.945 64.9639 362.814 63.0184V63.0184Z" fill="#FFD7D1"/>
<path d="M349.142 66.7607C348.864 66.3902 348.623 65.9641 348.289 65.6306C347.715 65.0932 347.066 64.6301 346.474 64.1298C346.437 64.0927 346.455 63.9816 346.437 63.9075C349.03 65.0191 349.994 65.7232 351.773 67.8168C351.402 68.2245 351.124 67.928 350.809 67.7057C350.235 67.3351 349.66 67.0016 349.086 66.6496L349.16 66.7422L349.142 66.7607Z" fill="#FFD7D1"/>
<path d="M329.65 77.8774C327.131 77.2289 325.352 75.895 322.925 74.5054C326.223 75.1724 327.612 75.8949 329.65 77.8774V77.8774Z" fill="#FFD7D1"/>
<path d="M318.477 79.5266C320.218 79.8601 321.96 80.1009 323.553 81.2312C321.849 81.3238 321.145 81.1015 318.477 79.5266Z" fill="#FFD7D1"/>
<path d="M323.388 79.5269C321.72 79.4343 320.386 78.6932 318.645 77.7482C320.886 77.5815 322.183 78.5264 323.388 79.5269Z" fill="#FFD7D1"/>
<path d="M325.147 77.8777C323.628 77.5442 322.739 76.5808 321.683 75.5247C323.628 75.9508 323.758 76.0619 325.147 77.8777V77.8777Z" fill="#FFD7D1"/>
<path d="M349.05 66.6679C348.976 67.0014 348.92 67.3349 348.809 67.8352C348.197 67.4646 347.604 67.1496 347.049 66.7791C346.474 66.4085 345.955 65.9638 345.548 65.2598C345.955 65.408 346.363 65.5562 346.771 65.6859C347.586 65.9638 348.086 66.9458 349.124 66.742L349.05 66.6494V66.6679Z" fill="#FFD7D1"/>
<path d="M317.014 81.0645C318.014 81.3794 319.015 81.6944 320.182 82.0464C319.021 82.2194 317.965 81.892 317.014 81.0645Z" fill="#FFD7D1"/>
<path d="M376.359 79.0445C376.304 77.6919 376.285 76.395 376.804 75.1721C377.063 76.5247 376.878 77.8401 376.359 79.0445Z" fill="#FFD7D1"/>
<path d="M329.038 93.5894C328.723 95.1086 327.723 95.7386 326.314 96.3871C326.629 95.4051 327.278 95.1086 327.704 94.664C328.112 94.2563 328.593 93.9414 329.038 93.5894Z" fill="#FFD7D1"/>
<path d="M359.388 94.2562C359.554 93.4039 359.888 92.6443 360.907 91.9587C360.555 93.0704 360.573 94.0524 359.313 94.1821L359.388 94.2562Z" fill="#FFD7D1"/>
<path d="M334.598 90.0134C335.32 89.3649 335.765 88.9758 336.339 88.457C336.055 89.1364 335.475 89.6552 334.598 90.0134Z" fill="#FFD7D1"/>
<path d="M345.918 94.46C345.307 95.0714 344.677 95.6828 343.954 96.3869C344.288 94.7194 344.584 94.4599 345.955 94.497L345.9 94.46H345.918Z" fill="#FFD7D1"/>
<path d="M348.049 93.7559C348.067 94.8305 347.233 95.2196 346.492 95.7198C346.764 94.9911 347.301 94.3549 348.104 93.8114L348.049 93.7559V93.7559Z" fill="#FFD7D1"/>
<path d="M361.963 93.3483C362.055 92.774 362.148 92.1996 362.259 91.6438C362.778 92.3664 362.852 92.9778 361.926 93.3113L361.981 93.3669L361.963 93.3483Z" fill="#FFD7D1"/>
<path d="M325.796 94.4786C325.704 94.3859 325.611 94.2932 325.5 94.2006C325.648 94.1265 325.796 94.0339 325.963 93.9783C326 93.9783 326.093 94.0894 326.148 94.145C326.037 94.2562 325.908 94.3674 325.796 94.4786Z" fill="#FFD7D1"/>
<path d="M361.907 93.311C361.981 94.0151 362.018 94.7191 361.166 95.0156L361.24 95.1083C361.351 94.4783 361.129 93.7001 361.963 93.3666L361.907 93.311V93.311Z" fill="#FFD7D1"/>
<path d="M345.973 94.4969C345.881 94.3301 345.751 94.1819 345.732 94.0152C345.732 93.9226 345.899 93.8114 346.01 93.7002C346.029 93.7743 346.084 93.8484 346.066 93.9225C346.029 94.0893 345.955 94.2746 345.918 94.4598L345.973 94.5154V94.4969Z" fill="#FFD7D1"/>
<path d="M348.103 93.8115C348.103 93.6447 348.066 93.4595 348.141 93.3113C348.196 93.1816 348.363 93.0704 348.474 92.9592C348.474 93.1816 348.548 93.4224 348.511 93.6448C348.511 93.7003 348.215 93.7188 348.066 93.7374L348.122 93.793L348.103 93.8115Z" fill="#FFD7D1"/>
<path d="M356.757 84.9736C356.72 85.2145 356.701 85.4739 356.645 85.7147C356.645 85.7703 356.534 85.8259 356.479 85.8629C356.405 85.7147 356.238 85.4924 356.293 85.4368C356.423 85.2701 356.645 85.1589 356.831 85.0292L356.775 84.9736H356.757Z" fill="#FFD7D1"/>
<path d="M358.277 94.3303C358.221 94.4971 358.166 94.6638 358.091 94.8121C358.054 94.8862 357.962 94.9232 357.906 94.9788C357.888 94.8306 357.795 94.5897 357.869 94.5342C357.962 94.4415 358.184 94.46 358.332 94.4415L358.277 94.3489V94.3303Z" fill="#FFD7D1"/>
<path d="M358.351 94.4228C358.443 94.1819 358.517 93.9596 358.61 93.7002C358.647 93.9411 358.665 94.1819 358.703 94.4043L358.814 94.3116C358.628 94.1448 358.462 94.1448 358.295 94.3116L358.351 94.4228Z" fill="#FFD7D1"/>
<path d="M359.313 94.1636C359.257 94.46 359.183 94.7565 359.127 95.0529C359.016 94.7935 358.924 94.5527 358.812 94.2933L358.701 94.3859C358.924 94.3303 359.164 94.2933 359.405 94.2377L359.331 94.1636H359.313Z" fill="#FFD7D1"/>
<path d="M361.166 95.0161C361.054 95.2199 360.943 95.4052 360.832 95.609C360.832 95.5349 360.758 95.4052 360.776 95.3867C360.906 95.2755 361.073 95.2014 361.221 95.1088L361.147 95.0161H361.166Z" fill="#FFD7D1"/>
<path d="M362.889 85.3074C363.018 85.4371 363.185 85.5668 363.241 85.7335C363.278 85.8447 363.167 86.0299 363.13 86.1596C363.074 86.0485 362.981 85.9558 362.963 85.8261C362.926 85.6594 362.926 85.4741 362.907 85.2888H362.889V85.3074Z" fill="#FFD7D1"/>
<path d="M402.187 63.4624C402.428 63.0733 402.577 62.499 402.91 62.3137C403.762 61.869 404.707 61.5911 405.504 61.2761C406.282 61.554 406.912 61.7949 407.542 62.0358H407.524C407.616 63.203 407.375 63.4254 406.023 63.4995L406.078 63.5736C405.708 62.888 405.263 62.8695 404.763 63.4624L404.8 63.3698C404.244 63.2957 403.688 63.1845 403.132 63.1845C402.799 63.1845 402.484 63.3883 402.15 63.4995V63.481L402.187 63.4624Z" fill="#FFD7D1"/>
<path d="M418.269 87.0305C418.813 87.9692 418.714 89.0006 417.973 90.1247C417.065 88.5127 416.194 86.9749 415.342 85.4371C415.12 85.0295 415.008 84.5848 414.693 83.7881C416.342 84.6404 416.435 86.2153 417.473 86.9934C417.732 86.9934 418.01 87.0305 418.269 87.0305V87.0305Z" fill="#FFD7D1"/>
<path d="M394.739 72.0226C397.407 69.7622 399.909 68.2058 403.021 66.7051C402.725 67.298 402.688 67.5574 402.521 67.6871C400.539 69.2805 396.981 71.3 394.739 72.0226V72.0226Z" fill="#FFD7D1"/>
<path d="M429.219 90.6805C429.534 91.1622 429.849 91.6625 430.275 92.2924C428.478 91.7551 426.922 89.9764 425.495 86.9934C426.032 86.6043 426.125 87.1972 426.329 87.4011C426.681 87.7531 426.922 88.1978 427.274 88.5683C427.533 88.8462 427.867 89.0686 428.163 89.3094C428.515 89.7726 428.886 90.2173 429.238 90.6805H429.219Z" fill="#FFD7D1"/>
<path d="M416.046 65.5007C414.508 67.2053 412.377 68.632 410.45 69.2063C412.284 67.1868 413.637 66.2974 416.046 65.5007Z" fill="#FFD7D1"/>
<path d="M426.439 82.5097C426.439 82.4171 426.402 82.2688 426.439 82.2132C428.2 80.4901 430.312 79.3414 432.498 78.2297C432.572 78.5077 432.702 78.7486 432.665 78.7856C430.775 80.3234 428.774 81.713 426.402 82.4727L426.421 82.4912L426.439 82.5097Z" fill="#FFD7D1"/>
<path d="M434.13 73.4121C432.759 73.8753 431.388 74.3385 429.405 75.0055C431.054 73.4307 432.462 72.8748 434.019 72.5969C434.019 72.9304 434.019 73.2083 434.019 73.5048L434.111 73.4121H434.13Z" fill="#FFD7D1"/>
<path d="M434.036 73.5048C434.314 73.5789 434.573 73.653 434.851 73.7457C435.037 73.8012 435.203 73.9124 435.444 74.0236C434.351 74.95 433.054 75.2094 431.35 75.9505C432.22 74.4683 433.814 74.6535 434.129 73.4121L434.036 73.4862V73.5048Z" fill="#FFD7D1"/>
<path d="M447.061 84.9737C447.116 84.6958 447.061 84.2511 447.227 84.1399C448.265 83.4174 449.358 82.7874 450.766 82.9727C449.525 83.6397 448.283 84.2882 447.042 84.9552L447.079 84.9922L447.061 84.9737Z" fill="#FFD7D1"/>
<path d="M445.394 83.6581C445.153 83.0096 445.468 82.5094 445.82 82.0277C445.987 81.898 446.172 81.7683 446.339 81.6386C446.95 81.5274 447.58 81.4163 448.525 81.2495C447.265 82.1944 446.339 82.917 445.394 83.6396V83.6581Z" fill="#FFD7D1"/>
<path d="M439.114 82.6208C439.299 81.8055 440.096 81.7129 440.652 81.3423C441.3 80.9162 441.93 80.4901 442.579 80.064C442.523 80.416 442.616 80.9533 442.412 81.1015C441.412 81.8426 440.411 82.6208 439.059 82.5467L439.114 82.6208Z" fill="#FFD7D1"/>
<path d="M436.594 89.6612C436.649 89.2907 436.742 88.7719 437.224 88.9942C437.983 89.3277 438.65 89.828 439.595 90.4023C438.15 90.7358 437.539 89.4945 436.501 89.5501L436.594 89.6612Z" fill="#FFD7D1"/>
<path d="M446.338 81.6572C446.172 81.7869 445.986 81.9166 445.82 82.0463C445.43 82.1204 445.041 82.2315 444.652 82.2686C444.189 82.3056 443.707 82.3057 443.226 82.3057L443.281 82.3798C443.948 81.5646 444.912 81.3793 445.857 81.1384C445.968 81.1199 446.172 81.4719 446.338 81.6572V81.6572Z" fill="#FFD7D1"/>
<path d="M394.09 69.3359C393.201 69.5212 392.33 69.725 391.44 69.9103C392.237 69.41 392.997 68.8727 393.812 68.4465C394.201 68.2612 394.516 68.5392 394.479 69.0209C394.331 69.1135 394.183 69.2062 394.071 69.3359H394.09Z" fill="#FFD7D1"/>
<path d="M394.09 69.3362C394.22 69.2065 394.35 69.1139 394.498 69.0212C394.869 69.0768 395.239 69.151 395.777 69.2251C394.998 70.1329 394.294 70.7443 393.183 70.6887C393.479 70.2255 393.776 69.7809 394.09 69.3177V69.3362Z" fill="#FFD7D1"/>
<path d="M418.065 67.5576C417.546 67.9467 417.027 68.3358 416.305 68.8545C416.613 68.1999 417.2 67.7676 418.065 67.5576Z" fill="#FFD7D1"/>
<path d="M417.547 76.3027C417.139 77.3032 416.435 77.4144 415.397 77.9517C416.064 76.8215 416.694 76.5621 417.547 76.3027Z" fill="#FFD7D1"/>
<path d="M429.219 90.6804C428.867 90.2172 428.497 89.7725 428.145 89.3093C428.46 89.1982 428.941 88.8832 429.089 88.9943C429.59 89.402 429.96 89.9393 430.646 90.7175C429.942 90.7175 429.59 90.7175 429.238 90.6989L429.219 90.6804Z" fill="#FFD7D1"/>
<path d="M443.227 82.2871C443.189 83.232 442.467 83.0468 441.837 82.9356C442.319 82.7503 442.8 82.565 443.282 82.3612L443.227 82.2871Z" fill="#FFD7D1"/>
<path d="M426.107 69.9846C426.107 70.5405 425.711 70.7875 424.921 70.7257C425.403 70.4663 425.773 70.244 426.144 70.0402L426.107 69.9846Z" fill="#FFD7D1"/>
<path d="M439.058 82.5466C438.762 82.7875 438.484 83.0283 437.983 83.4359C438.224 82.491 438.65 82.5095 439.132 82.6207L439.077 82.5466H439.058Z" fill="#FFD7D1"/>
<path d="M408.504 70.9294C408.43 70.0771 408.819 69.8918 409.875 69.8918C409.152 70.4477 408.819 70.6885 408.504 70.9294Z" fill="#FFD7D1"/>
<path d="M445.394 83.64C444.894 83.6956 444.394 83.7326 443.875 83.7882C444.32 82.8433 444.838 83.1582 445.394 83.6585V83.64Z" fill="#FFD7D1"/>
<path d="M426.125 70.0403L427.385 70.1699L427.292 70.4849C426.903 70.3367 426.514 70.1699 426.106 70.0032L426.125 70.0403V70.0403Z" fill="#FFD7D1"/>
<path d="M406.023 63.4812C405.874 63.6665 405.726 63.8703 405.559 64.0556C405.319 63.8147 405.059 63.5739 404.818 63.333L404.763 63.4256C405.207 63.4627 405.634 63.4997 406.078 63.5368L406.023 63.4627V63.4812Z" fill="#FFD7D1"/>
<path d="M435.556 75.1541C435.556 75.1541 435.575 75.2838 435.593 75.3393C435.501 75.3393 435.427 75.3764 435.334 75.3949C435.334 75.3208 435.315 75.2653 435.297 75.1911C435.371 75.1911 435.464 75.1726 435.538 75.1541H435.556Z" fill="#FFD7D1"/>
<path d="M427.441 68.9101C427.441 68.9101 427.497 68.7433 427.534 68.6692C427.478 68.7248 427.441 68.7989 427.386 68.8359L427.46 68.9101H427.441Z" fill="#FFD7D1"/>
<path d="M426.273 69.5765C426.236 68.6316 426.792 68.7057 427.441 68.9095C427.441 68.9095 427.367 68.8354 427.385 68.8539C427.015 69.0762 426.625 69.2986 426.255 69.5209L426.292 69.5765H426.273Z" fill="#FFD7D1"/>
<path d="M426.236 69.5212C425.958 69.5212 425.68 69.5212 425.402 69.5212V69.3359C425.699 69.41 425.977 69.4656 426.255 69.5583L426.236 69.5212V69.5212Z" fill="#FFD7D1"/>
<path d="M407.541 62.0176C407.708 62.0732 407.856 62.1473 408.023 62.2029C408.115 62.2214 408.208 62.2029 408.301 62.2029C408.189 62.2585 408.078 62.3511 407.986 62.3326C407.819 62.277 407.671 62.1473 407.522 62.0547L407.541 62.0176Z" fill="#FFD7D1"/>
<path d="M402.169 63.4814C402.021 63.4444 401.872 63.3888 401.724 63.3703C401.65 63.3703 401.557 63.3888 401.465 63.4073C401.557 63.3702 401.669 63.2776 401.761 63.2961C401.91 63.3147 402.058 63.4073 402.206 63.4629V63.4814H402.169Z" fill="#FFD7D1"/>
<path d="M447.044 84.9368C446.858 84.9368 446.673 84.9368 446.488 84.9368C446.395 84.9368 446.303 84.9183 446.21 84.8998C446.321 84.8071 446.469 84.6404 446.562 84.6589C446.747 84.696 446.895 84.8442 447.081 84.9553L447.062 84.9368H447.044Z" fill="#FFD7D1"/>
<path d="M442.577 80.064C442.744 80.101 442.911 80.1566 443.077 80.1936C443.17 80.2121 443.263 80.2307 443.355 80.2492C443.226 80.3233 443.059 80.4901 442.985 80.453C442.818 80.3789 442.707 80.1937 442.577 80.064Z" fill="#FFD7D1"/>
<path d="M418.268 87.0303C418.009 87.0303 417.731 86.9933 417.472 86.9933C417.583 86.6783 417.675 86.3633 417.879 85.7148C418.083 86.3819 418.176 86.7153 418.268 87.0303Z" fill="#FFD7D1"/>
<path d="M387.791 53.2166C385.901 51.4565 385.234 49.0479 384.382 46.7504C383.696 44.8791 383.326 42.9336 383.474 40.9141C383.511 40.5435 383.641 40.173 383.863 39.2466C384.159 40.5065 384.419 41.229 384.493 41.9701C384.863 45.4719 385.975 48.7329 387.457 51.8826C387.643 52.2902 387.624 52.809 387.698 53.2722L387.772 53.2352L387.791 53.2166Z" fill="#FFD7D1"/>
<path d="M402.334 36.3935C403.316 36.0044 404.243 35.9488 405.113 36.9493C403.687 38.728 401.649 38.1165 399.796 38.6724L400 36.6899C400.815 36.5787 401.575 36.4675 402.353 36.3564L402.334 36.3749V36.3935Z" fill="#FFD7D1"/>
<path d="M410.34 50.345C410.247 50.7526 410.284 51.2158 410.062 51.4752C409.228 52.4571 408.005 52.4572 406.782 52.7165C407.4 51.3702 408.586 50.5797 410.34 50.345V50.345Z" fill="#FFD7D1"/>
<path d="M394.979 53.995C393.942 54.0136 392.904 54.0506 391.867 54.0506C391.218 54.0506 390.514 54.1803 390.125 53.4392C392.46 53.0871 394.776 52.7536 397.11 52.4016C397.147 52.4943 397.184 52.6054 397.24 52.6981C396.48 53.1242 395.739 53.5504 394.979 53.995V53.995Z" fill="#FFD7D1"/>
<path d="M412.47 24.3872C412.84 24.1093 413.174 23.8314 413.563 23.572C414.267 23.1088 415.008 22.6826 415.731 22.2565L415.638 22.3306C416.101 22.1453 416.564 21.96 417.009 21.7747L416.898 21.8489C417.472 21.7377 418.047 21.6265 418.64 21.5154C417.898 22.7012 417.898 22.7197 416.935 23.1459C415.508 23.7573 414.156 24.7578 412.451 24.3502V24.3872H412.47Z" fill="#FFD7D1"/>
<path d="M408.691 16.7534C407.932 14.9932 408.172 13.2701 408.45 11.3247C409.21 13.2331 409.228 13.9557 408.691 16.7534Z" fill="#FFD7D1"/>
<path d="M410.135 15.0121C410.135 13.5299 409.153 12.0662 410.043 10.3801C411.006 12.0291 410.487 13.5299 410.135 15.0121Z" fill="#FFD7D1"/>
<path d="M405.467 15.4385C405.541 16.9022 405.597 18.3473 405.671 19.8111C404.652 18.4215 404.744 16.9578 405.467 15.4385Z" fill="#FFD7D1"/>
<path d="M396.259 24.999C396.129 24.7396 395.962 24.4987 395.907 24.2208C395.814 23.8503 395.759 23.4612 395.74 23.0721C395.703 22.2383 395.685 21.4046 395.647 20.4041C395.944 20.682 396.185 20.8117 396.203 20.9414C396.37 22.2569 396.5 23.5909 396.629 24.9249C396.5 24.9434 396.37 24.9619 396.24 24.9805L396.259 24.999Z" fill="#FFD7D1"/>
<path d="M389.719 29.9084C390.719 31.4277 390.793 31.9095 390.627 34.3552C390.441 34.0587 390.219 33.8549 390.182 33.6325C389.997 32.3912 389.848 31.1498 389.7 29.9084H389.719Z" fill="#FFD7D1"/>
<path d="M406.837 18.4582C406.559 16.8648 406.726 15.3455 407.152 13.8633C407.411 15.4382 407.578 16.9945 406.837 18.4582Z" fill="#FFD7D1"/>
<path d="M394.332 21.4968C394.665 23.1273 395.11 24.2945 394.573 25.7212C393.887 24.3687 393.72 23.1829 394.332 21.4968Z" fill="#FFD7D1"/>
<path d="M417.806 33.2621C416.768 34.5591 415.379 34.837 413.304 34.7443C414.638 34.0773 415.509 33.6141 416.379 33.1694L416.305 33.2251C416.805 33.2251 417.287 33.2436 417.787 33.2621H417.806Z" fill="#FFD7D1"/>
<path d="M411.544 13.4003C411.266 12.1219 411.377 11.1955 411.673 10.1394C411.97 11.0287 411.926 12.1157 411.544 13.4003Z" fill="#FFD7D1"/>
<path d="M385.142 41.322C385.382 41.3961 385.79 41.3961 385.846 41.5443C386.161 42.3225 386.642 43.1007 386.29 44.0085L386.364 43.9715C386.179 43.7862 385.92 43.638 385.827 43.4157C385.549 42.7301 385.364 42.0075 385.123 41.3035H385.142V41.322Z" fill="#FFD7D1"/>
<path d="M388.681 31.595L388.459 33.7442C388.366 33.7442 388.255 33.7442 388.162 33.7442C388.162 33.0216 388.181 32.2805 388.199 31.5579C388.366 31.5579 388.533 31.5949 388.681 31.6134V31.595Z" fill="#FFD7D1"/>
<path d="M416.38 33.1694L415.176 33.0398C416.51 32.0578 416.51 32.0207 417.288 32.1319C417.473 32.1504 417.603 32.5766 417.751 32.8174C417.269 32.9657 416.788 33.0953 416.306 33.2436L416.38 33.188V33.1694Z" fill="#FFD7D1"/>
<path d="M415.768 21.7377C415.786 21.4968 415.823 21.2559 415.842 21.0336C416.008 20.8854 416.175 20.7556 416.342 20.6074C416.527 20.6074 416.694 20.6074 416.879 20.626C417.62 20.6816 417.509 20.978 417.12 21.4042C417.009 21.5153 416.972 21.7191 416.898 21.8674L417.009 21.7932C416.583 21.7562 416.157 21.7191 415.712 21.6635L415.768 21.7377V21.7377Z" fill="#FFD7D1"/>
<path d="M409.338 49.4371C409.486 48.5293 410.394 49.1592 410.839 48.4922C410.616 49.678 409.912 49.4186 409.301 49.363L409.338 49.4371V49.4371Z" fill="#FFD7D1"/>
<path d="M397.981 20.6628C396.906 20.1996 397.48 19.44 397.684 18.7729C397.795 19.4214 397.888 20.0514 397.999 20.6999L397.981 20.6813V20.6628Z" fill="#FFD7D1"/>
<path d="M402.353 36.3561C402.594 35.652 402.594 34.633 403.891 35.1333C403.984 35.6706 403.428 35.4297 403.224 35.5965C402.928 35.8559 402.631 36.1152 402.335 36.3746L402.353 36.3561Z" fill="#FFD7D1"/>
<path d="M412.433 24.3501C412.118 25.2765 411.599 24.6465 411.154 24.3501C411.58 24.3501 412.025 24.3872 412.451 24.4057L412.433 24.3686V24.3501Z" fill="#FFD7D1"/>
<path d="M396.312 48.2514C396.294 47.7326 396.609 47.5659 397.035 47.64C397.424 47.6956 397.795 47.8623 398.165 47.9735V47.8994C397.517 47.992 396.887 48.0846 396.257 48.1773L396.312 48.2514Z" fill="#FFD7D1"/>
<path d="M397.147 32.4657C396.351 32.0025 396.758 31.2799 396.777 30.6499L396.703 30.724C397.462 31.1872 397.37 31.8172 397.092 32.5027L397.166 32.4657H397.147Z" fill="#FFD7D1"/>
<path d="M396.258 48.1773C395.628 48.5849 394.961 48.7146 394.238 48.3626L394.275 48.4182C394.887 47.7141 395.572 47.8253 396.295 48.2329L396.258 48.1588V48.1773Z" fill="#FFD7D1"/>
<path d="M392.553 56.9779C392.627 56.8111 392.664 56.5703 392.794 56.4777C392.905 56.385 393.127 56.4406 393.312 56.4406C393.22 56.5333 393.127 56.6259 393.016 56.6814C392.849 56.7741 392.664 56.8297 392.497 56.9223L392.553 56.9779V56.9779Z" fill="#FFD7D1"/>
<path d="M416.342 20.5891C416.175 20.7374 416.008 20.867 415.842 21.0153C415.434 20.8485 415.36 20.5336 415.564 20.1815C415.638 20.0704 415.971 19.9592 416.027 20.0148C416.175 20.163 416.249 20.4038 416.342 20.6076V20.5891Z" fill="#FFD7D1"/>
<path d="M392.497 56.9223C392.071 56.9779 391.645 57.0335 390.57 57.1817C391.645 56.5147 392.09 56.7741 392.553 56.9779L392.497 56.9223Z" fill="#FFD7D1"/>
<path d="M415.731 22.2565C415.546 22.2194 415.361 22.2009 415.175 22.1453C415.101 22.1268 415.027 22.0341 414.953 21.9971C415.046 21.8859 415.12 21.7192 415.231 21.7007C415.398 21.6636 415.583 21.7006 415.768 21.7377L415.713 21.6636C415.676 21.8859 415.657 22.1082 415.62 22.3491L415.713 22.275L415.731 22.2565Z" fill="#FFD7D1"/>
<path d="M409.542 37.0234C409.746 37.079 409.95 37.1346 410.153 37.1716C409.95 37.1346 409.727 37.079 409.523 37.042L409.542 37.0234V37.0234Z" fill="#FFD7D1"/>
<path d="M409.3 49.3813C409.208 49.5295 409.115 49.7889 409.041 49.7889C408.819 49.7704 408.596 49.6407 408.374 49.5666C408.522 49.4925 408.67 49.3628 408.819 49.3442C408.985 49.3442 409.152 49.4183 409.337 49.4554L409.3 49.3813Z" fill="#FFD7D1"/>
<path d="M398.167 47.9734C398.223 47.7511 398.297 47.5287 398.352 47.3064C398.371 47.362 398.426 47.4176 398.408 47.4547C398.334 47.6029 398.223 47.7325 398.148 47.8808L398.167 47.9734Z" fill="#FFD7D1"/>
<path d="M397.723 29.279L397.89 28.8713C397.89 28.8713 397.741 28.9825 397.723 29.0566C397.704 29.1307 397.741 29.2233 397.76 29.2974L397.723 29.279Z" fill="#FFD7D1"/>
<path d="M394.831 54.5881C394.868 54.3472 394.887 54.1249 394.924 53.884C395.072 54.0693 395.22 54.236 395.35 54.4213C395.183 54.4769 394.998 54.5325 394.831 54.5881V54.5881Z" fill="#FFD7D1"/>
<path d="M397.999 20.6816C397.962 20.8299 397.906 20.9966 397.869 21.1448C397.906 20.9781 397.943 20.8298 397.98 20.6631V20.6816H397.999Z" fill="#FFD7D1"/>
<path d="M396.777 30.6496C396.666 30.5199 396.536 30.3902 396.425 30.2791C396.517 30.4273 396.61 30.5755 396.703 30.7238L396.777 30.6682V30.6496Z" fill="#FFD7D1"/>
<path d="M394.478 32.0025C394.515 31.8357 394.552 31.6689 394.589 31.5022C394.57 31.6689 394.533 31.8542 394.515 32.021L394.478 32.0025Z" fill="#FFD7D1"/>
<path d="M386.327 45.6202C386.494 45.5831 386.661 45.5461 386.827 45.5276C386.92 45.5276 387.013 45.5276 387.124 45.5276C387.05 45.6202 386.957 45.7685 386.883 45.7685C386.716 45.7685 386.549 45.6758 386.383 45.6202H386.346H386.327Z" fill="#FFD7D1"/>
<path d="M386.363 45.6202C386.363 45.0828 386.363 44.5271 386.363 43.9897L386.289 44.0268C387.16 44.527 386.771 45.0643 386.345 45.6202H386.363Z" fill="#FFD7D1"/>
<path d="M385.123 41.3034C385.179 41.1367 385.234 40.9699 385.29 40.7847C385.234 40.9514 385.197 41.1367 385.142 41.322L385.123 41.3034V41.3034Z" fill="#FFD7D1"/>
<path d="M188.401 317.533C191.279 308.13 196.215 304.129 198.622 292.849C198.656 292.662 198.705 292.48 198.744 292.278C199.533 288.464 201.241 285.045 202.959 281.647C209.664 268.376 207.207 270.182 203.393 266.39C200.926 263.928 198.047 261.966 195.549 259.543C192.042 256.144 188.538 252.596 185.566 248.676C182.718 244.916 180.53 242.14 175.861 238.788C172.168 236.135 169.104 232.978 165.172 230.67C166.215 225.686 165.83 220.288 163.151 216.059C163.253 215.73 163.365 215.372 163.391 215.299C164.02 212.438 163.646 211.723 163.429 210.849C163.402 210.74 163.369 210.645 163.297 210.57C163.127 210.442 162.733 210.616 162.488 210.744C162.915 209.553 162.228 206.569 161.996 206.569C161.717 206.701 161.467 206.794 161.237 206.927C161.471 204.472 160.297 200.998 160.217 201.036C160.048 201.274 159.865 201.507 159.707 201.716C159.752 200.852 159.585 199.515 158.77 197.58C158.406 197.947 158.188 198.184 157.939 198.509C158.039 196.936 157.317 195.25 156.513 193.933C161.887 179.885 175.905 171.429 190.148 169.276C192.69 168.894 194.55 168.566 193.51 165.455C193.274 164.773 192.73 164.163 192.034 164.113C191.551 164.072 191.092 164.289 190.647 164.511C172.186 173.562 161.556 175.171 154.392 191.661C153.072 189.562 151.93 189.832 151.501 190.889C151.101 188.489 148.715 185.293 148.521 185.556C148.316 186.129 148.168 186.54 148.067 186.869C147.636 186.034 146.945 185.372 145.496 183.955C145.16 184.2 144.528 185.035 144.21 186.198C144.209 185.832 144.185 185.99 142.371 182.17C141.2 183.956 141.539 182.917 140.504 185.846C140.346 185.64 140.136 185.3 139.693 184.178C138.766 184.957 137.151 187.148 136.902 189.597C136.499 189.054 136.344 188.932 135.711 188.34C135.711 188.34 135.696 188.334 135.681 188.329C135.639 188.447 133.881 191.034 134.125 193.727C133.523 192.863 132.738 192.184 132.576 192.175C131.885 195.577 131.8 197.338 131.81 198.188C131.514 197.766 131.105 197.288 130.56 196.727C129.808 199.792 129.805 200.587 130.928 204.806C129.843 204.085 128.905 203.831 127.777 203.509C127.722 203.755 127.66 204.711 127.713 205.444C125.104 202.682 121.136 203.016 120.998 202.983C120.988 203.013 121.186 203.615 121.196 203.635C119.901 202.805 118.156 202.444 116.728 202.496C116.461 202.499 116.17 202.478 115.977 202.508C116.113 203.005 116.218 203.408 116.339 203.717C115.708 203.258 114.696 202.795 113.153 202.656C113.069 202.659 112.99 202.647 112.912 202.635C112.813 202.633 112.714 202.631 112.616 202.629C112.552 202.622 111.57 202.585 111.563 202.649C111.586 202.724 111.798 203.38 111.91 203.67C109.934 202.612 107.135 202.785 107.002 202.787C107.041 203 107.081 203.396 107.195 203.818C105.439 203.536 103.282 203.907 102.005 204.46C102.2 204.796 102.375 205.091 102.523 205.327C100.942 205.157 99.161 205.497 98.3836 205.583C98.4936 205.738 99.257 207.124 100.304 208.412C100.05 208.288 99.7321 208.157 99.4141 208.026C99.2083 207.953 98.9879 207.873 98.7528 207.789C98.7381 207.784 98.6793 207.763 98.6793 207.763L98.7117 207.857L98.7618 208.041C98.8036 208.156 98.8349 208.3 98.8914 208.419C99.3322 209.872 99.8906 210.719 100.588 211.318C100.121 211.233 99.1811 211.078 99.2187 211.158C99.247 211.218 99.3559 211.423 99.3841 211.483C99.4501 211.623 99.5307 211.768 99.6061 211.928C99.6961 212.093 99.7715 212.253 99.8615 212.418C100.109 213.021 100.939 214.314 102.036 215.372C101.904 215.324 100.694 215.321 100.624 215.329C101.542 216.886 102.622 218.452 103.998 219.61C98.5311 218.527 92.6538 218.54 87.1193 218.246C80.5388 217.907 73.9602 217.703 67.3602 217.789C60.2665 217.863 53.1671 218.185 46.0791 218.66C30.6561 219.71 28.6636 219.808 27.3842 222.401C26.8763 223.446 27.0013 224.669 26.4722 225.773C25.6164 227.556 24.2196 228.814 24.0333 230.904C23.8494 232.895 23.5252 235.184 22.8341 237.109C22.3822 238.507 21.7329 239.899 20.8523 241.475C20.0074 242.996 19.9757 244.378 20.0762 245.808C20.1007 246.248 20.1452 246.679 20.1696 247.119C20.2363 248.089 20.2777 249.082 20.0553 250.164C19.2887 253.871 16.9453 257.21 14.8742 260.299C14.2298 261.262 13.5655 262.235 12.9305 263.218C12.7304 263.544 12.5104 263.88 12.3103 264.206C11.4941 265.556 10.7408 266.961 10.1292 268.434C8.77403 271.747 8.70041 274.955 8.4866 278.462C8.45304 279.064 8.38067 279.635 8.28418 280.181C8.20579 280.585 8.11798 280.968 8.02489 281.366C6.632 286.54 4.20234 287.393 1.84694 295.987C1.71165 296.503 0.490979 301.058 0.965365 301.262C18.6412 309.001 115.216 340.07 115.289 340.096C125.261 343.51 135.101 347.291 145.068 350.72C151.997 353.091 160.185 356.113 167.477 356.641C182.83 357.772 183.71 333.003 188.436 317.528L188.401 317.533ZM191.454 165.315C192.467 165.496 194.245 167.66 190.682 168.157C188.111 168.528 185.544 169.116 183.043 169.844C188.358 168.301 189.457 164.963 191.454 165.315ZM164.172 224.306C164.187 243.025 148.632 250.266 136.7 243.394C136.685 243.389 136.67 243.383 136.656 243.378C134.487 242.118 132.432 240.402 130.626 238.178C117.992 222.725 131.829 202.342 150.248 207.594C150.129 208.065 150 208.517 149.871 208.968C148.179 208.46 146.457 208.174 144.549 208.219C137.962 208.409 134.352 212.273 134.292 212.301C135.027 212.101 141.294 207.814 149.473 210.169C148.665 212.467 147.623 214.582 146.367 216.835C146.377 216.806 145.752 215.868 145.705 215.768C145.12 214.762 145.503 213.788 145.723 213.684C143.991 214.489 143.682 216.552 145.172 217.899C146.449 219.055 148.925 219.645 150.497 218.683C151.219 218.245 151.774 217.483 151.977 216.643C151.641 216.837 151.302 216.998 150.947 217.152C151.417 216.491 151.357 216.288 152.407 211.239C155.506 212.634 157.941 214.537 159.538 216.42C159.841 216.778 159.976 216.91 159.976 216.91C159.976 216.91 159.939 216.78 159.775 216.406C158.578 213.687 155.501 211.354 152.667 210.005C152.772 209.529 152.867 209.032 152.957 208.55C162.167 212.702 164.166 218.546 164.183 224.276L164.172 224.306ZM156.349 195.682C156.349 195.682 156.383 195.727 156.367 195.772C156.88 197.067 157.309 198.416 157.742 199.749C158.034 199.539 158.291 199.283 158.51 198.996C158.455 199.059 158.746 199.911 158.763 200.049C158.86 200.565 159.175 202.736 159.147 203.323C160.235 202.602 159.569 201.085 160.696 208.342C160.983 208.097 161.265 207.866 161.538 207.615C161.625 207.879 161.925 211.803 161.934 211.872C162.19 211.665 162.432 211.454 162.689 211.247C162.867 211.859 162.734 212.508 162.719 213.149C162.713 213.446 162.671 213.746 162.635 214.032C162.616 214.224 162.409 215.029 162.51 215.165C162.395 215.024 162.299 214.873 162.189 214.718C160.42 211.976 157.715 209.76 154.699 208.18L157.711 205.429L154.108 207.885C153.801 207.725 153.474 207.574 153.161 207.429C153.971 203.323 154.399 200.374 155.533 196.617C155.998 196.153 156.237 195.625 156.325 195.657L156.349 195.682ZM161.898 181.565C165.014 177.922 169.521 175.625 173.838 173.906C169.723 176.079 165.62 179.284 162.212 182.54C156.178 188.304 152.735 202.746 151.491 211.11C151.176 213.236 150.992 216.057 149.342 217.605C149.044 217.879 147.781 217.608 147.576 217.303C147.208 216.756 147.842 216.237 148.143 215.814C149.272 214.195 149.982 212.31 150.514 210.411C151.861 205.552 152.783 192.262 161.908 181.585L161.898 181.565ZM130.903 200.716C130.926 200.376 130.815 198.328 131.105 198.167C131.33 198.049 131.986 199.13 132.166 199.278C132.701 197.463 132.92 195.467 133.288 193.609C133.599 194.085 133.895 194.739 134.356 195.07C134.397 194.819 134.422 194.563 134.507 194.328C134.507 194.328 134.488 194.288 134.473 194.283C134.905 192.663 135.311 191.116 136.135 189.653C136.437 190.06 136.788 190.468 137.065 190.9C137.666 188.992 138.459 187.153 139.418 185.407C139.789 185.805 140.18 186.195 140.551 186.593C141.159 185.501 141.743 184.383 142.365 183.296C142.365 183.296 143.215 184.812 143.29 184.972C143.577 185.606 143.863 186.239 144.19 186.854C145.903 184.533 144.6 184.281 146.958 186.77C147.449 187.294 147.967 187.563 148.331 188.258C148.474 187.861 148.611 187.479 148.738 187.077C149.842 188.717 150.644 190.548 151.677 192.246C152.527 190.71 152.246 190.244 153.921 192.787C151.69 198.356 151.582 201.752 150.556 206.46C149.271 206.065 147.984 205.769 146.718 205.597C150.234 201.948 151.105 200.585 151.105 200.585C151.055 200.634 149.779 201.37 145.871 205.508C145.743 205.496 146.088 205.504 145.008 205.464C144.637 202.245 144.474 200.76 144.199 197.874C147.105 193.89 147.868 192.09 147.904 192.037C147.843 192.114 146.996 192.623 144.117 196.948C144.114 196.864 143.995 195.577 143.332 188.504C143.326 188.568 142.922 191.127 143.244 196.884C139.552 193.999 138.08 193.338 138.041 193.307C138.114 193.383 138.601 194.106 143.303 197.735C143.455 200.178 143.764 203.06 144.119 205.444C143.67 205.448 143.215 205.467 142.769 205.507C142.451 205.193 138.488 201.166 137.373 200.484C138.038 201.635 141.031 204.667 141.957 205.597C139.214 205.939 136.569 206.881 134.196 208.318C131.858 205.356 132.599 207.961 130.947 200.732L130.903 200.716ZM144.072 196.932C144.059 196.878 144.024 196.467 144.072 196.932ZM102.224 216.235C102.159 216.046 103.556 216.266 103.748 216.285C103.7 216.234 100.673 212.145 100.61 212.089C100.675 212.046 100.606 212.054 101.981 211.967C101.418 211.085 100.604 209.98 99.9856 209.161C100.347 209.357 100.729 209.494 101.132 209.572C100.87 208.914 100.574 208.26 100.387 207.579C100.279 207.142 99.9424 206.739 99.8633 206.313C100.542 206.225 103.168 206.072 103.42 206.063C103.225 205.313 103.042 205.082 103.105 204.955C103.105 204.955 103.134 204.965 103.149 204.971L103.178 204.981C104.902 204.754 104.9 204.62 107.951 204.67C107.898 203.988 107.826 203.68 107.874 203.73C107.884 203.701 107.89 203.686 107.89 203.686C107.89 203.686 107.904 203.691 107.934 203.702L107.948 203.707C108.492 203.902 109.174 203.898 109.745 203.971C110.203 204.035 110.655 204.115 111.104 204.16C111.646 204.222 112.145 204.401 112.675 204.542C112.574 204.223 112.473 203.905 112.391 203.577C112.386 203.592 114.159 203.83 114.375 203.874C115.132 204.03 115.867 204.293 116.612 204.528C116.715 204.565 116.818 204.602 116.92 204.639C116.919 204.505 116.931 204.377 116.934 204.278C116.943 203.651 116.922 203.478 116.918 203.443L116.929 203.414C116.929 203.414 116.939 203.385 116.945 203.37C116.989 203.386 116.934 203.399 117.254 203.431C120.401 203.814 121.736 204.625 122.243 204.691C122.171 204.383 122.085 204.07 122.013 203.762C122.994 204.032 124.255 204.169 125.122 204.713C126.178 205.374 127.407 205.649 128.234 206.626C128.199 205.983 128.214 204.462 128.475 204.705C128.608 204.753 129.449 205.088 130.226 205.467C131.3 206.449 131.376 206.145 133.119 208.961C130.826 210.543 128.832 212.631 127.333 215.096C125.836 211.456 124.422 210.451 124.379 210.386C124.715 211.02 124.597 210.796 124.625 210.855C124.587 210.825 124.572 210.82 124.572 210.82C124.595 210.894 124.583 210.973 124.914 211.855C125.185 212.533 125.783 213.776 126.721 216.154C126.401 216.769 126.095 217.389 125.849 218.03C125.794 218.044 125.734 218.072 125.679 218.086C124.507 217.516 123.188 216.893 121.722 216.217C120.532 213.384 119.248 210.584 117.024 208.74C118.675 211.258 118.892 211.485 120.896 215.838C120.686 215.729 117.46 214.272 115.079 213.235C112.378 208.234 110.594 206.366 110.551 206.301C110.594 206.366 112.943 210.959 114.135 212.813C106.78 209.642 104.053 208.829 104.009 208.813C104.263 208.937 104.815 209.385 111.778 212.68C110.78 212.87 106.1 213.894 105.102 214.316C106.46 214.554 111.286 213.45 112.657 213.096C114.177 213.807 115.941 214.623 117.993 215.559C116.387 216.06 111.432 217.849 110.602 218.496C111.978 218.36 117.461 216.396 118.751 215.897C120.447 216.672 122.813 217.753 124.509 218.528C122.78 219.185 116.707 221.684 115.174 222.859C115.486 222.821 120.071 221.464 125.482 219.143C124.83 221.099 124.511 223.141 124.494 225.176C120.81 227.122 118.932 228.471 118.847 228.524C122.406 227.064 122.552 226.984 124.505 226.208C124.608 228.833 126.194 235.923 127.282 236.081C127.237 236.065 127.203 236.069 127.159 236.053C125.276 234.366 124.353 232.408 123.866 231.039C123.491 229.959 123.357 229.131 123.262 228.748C123.254 228.862 123.007 229.735 123.156 231.215C123.246 232.028 123.441 233.01 123.914 234.093C124.13 234.601 124.424 235.122 124.783 235.648C124.682 235.513 123.873 235.455 123.686 235.421C123.347 235.349 123.023 235.282 122.693 235.23C121.99 235.11 121.327 234.74 120.624 234.57C120.823 234.526 121.012 234.461 121.211 234.416C121.265 234.402 121.325 234.374 121.326 234.325C121.347 234.266 121.264 234.22 121.22 234.204C120.383 233.903 119.48 233.645 118.679 233.242C118.411 233.112 118.136 233.047 117.856 232.946C117.616 232.877 117.134 232.554 116.897 232.569C117.337 232.544 117.774 232.436 118.183 232.267C116.728 231.745 115.314 231.155 113.902 230.515C114.463 230.616 115.041 230.575 115.584 230.405C114.293 229.842 113.002 229.279 111.716 228.701C112.15 228.741 112.617 228.594 112.964 228.32C111.431 227.554 109.883 226.783 108.35 226.017C108.808 225.849 109.267 225.682 109.734 225.535C109.045 225.005 108.311 224.509 107.652 223.941C107.236 223.576 106.902 223.074 106.295 223.055C106.689 223.065 107.084 223.074 107.479 223.083C107.563 223.08 107.667 223.067 107.684 222.974C107.7 222.93 107.652 222.879 107.613 222.849C103.569 218.726 103.567 217.53 102.213 216.265L102.224 216.235ZM111.415 229.539C110.962 229.277 110.553 229.03 110.153 228.804C110.392 228.923 110.637 229.027 110.847 229.136C110.851 229.171 110.875 229.196 110.919 229.212C111.08 229.319 111.245 229.412 111.415 229.539ZM67.7441 219.353C73.9764 219.367 80.2223 219.436 86.4542 219.683C92.1137 219.906 97.9172 220.745 103.613 220.683C103.739 220.794 103.865 220.906 104.015 221.043C104.165 221.179 104.305 221.296 104.451 221.398C104.772 221.845 105.157 222.249 105.574 222.614C105.222 222.67 104.83 222.745 104.447 222.84C105.045 223.254 105.642 223.717 106.287 224.048C106.955 224.404 107.393 224.893 107.823 225.545C107.657 225.685 107.457 225.779 107.258 225.824C108.011 226.592 108.852 227.159 109.749 227.713C110.016 227.892 110.258 228.095 110.536 228.245C110.311 228.363 110.072 228.476 109.822 228.619C109.519 228.444 109.232 228.274 108.974 228.115C107.794 227.426 106.918 226.863 106.276 226.433C105.62 225.999 105.202 225.683 104.92 225.499C104.658 225.305 104.536 225.228 104.536 225.228C104.536 225.228 104.592 225.348 104.788 225.634C104.97 225.915 105.296 226.347 105.87 226.918C106.43 227.484 107.233 228.204 108.37 229.01C109.488 229.826 110.964 230.704 112.672 231.815C114.277 232.889 115.609 233.799 116.75 234.457C117.447 234.873 118.067 235.179 118.609 235.423C118.968 235.718 119.361 236.008 119.765 236.27C118.934 236.137 118.491 236.077 118.491 236.077C121.397 237.502 119.741 236.062 127.282 240.378C124.436 239.572 122.834 239.229 122.834 239.229C122.834 239.229 126.553 241.161 133.284 243.76L133.298 243.766C137.15 246.575 142.009 248.336 146.43 247.849C151.806 248.817 155.024 248.91 155.024 248.91C155.024 248.91 153.361 248.23 150.324 247.356C150.983 247.228 151.62 247.025 152.243 246.767C153.334 247.01 154.257 247.026 154.945 246.958C155.92 246.876 156.424 246.675 156.424 246.675C156.424 246.675 155.924 246.496 155.041 246.229C154.733 246.118 154.375 246.006 153.973 245.878C154.98 245.245 155.892 244.46 156.702 243.59C159.947 241.204 162.54 237.955 164.344 233.807C164.642 233.118 164.797 232.361 164.982 231.614C168.392 234.547 172.262 236.982 175.661 239.944C179.467 243.251 182.814 247.19 186.17 250.966C189.458 254.652 192.905 258.129 196.381 261.617C199.354 264.609 202.319 267.348 205.44 270.161C205.14 269.888 202.866 269.984 202.252 269.846C200.724 269.48 199.207 269.085 197.701 268.66C194.688 267.811 191.708 266.824 188.733 265.823C182.798 263.825 176.865 261.728 170.684 260.555C164.395 259.359 157.939 258.999 151.76 257.311C138.062 253.555 125.932 245.385 111.683 243.256C101.466 241.728 91.3332 241.442 81.7019 237.172C73.1852 233.401 64.378 230.024 54.9169 229.531C42.1561 228.202 40.2313 222.981 35.0289 220.699C45.9607 219.729 56.8055 219.325 67.7787 219.349L67.7441 219.353ZM36.3065 224.21C48.1946 233.007 54.7506 230.964 62.9581 232.5C75.6551 234.885 86.4471 242.807 95.5484 243.702C127.055 246.833 126.759 248.95 137.553 254.186C144.519 257.565 151.937 259.266 159.51 260.674C166.966 262.04 174.459 263.303 181.803 265.21C185.397 266.151 188.985 267.108 192.472 268.393C195.033 269.345 197.484 270.557 200.019 271.583C201.438 272.159 202.488 272.469 202.891 274.074C203.325 275.822 202.761 277.76 201.362 278.934C201.311 278.982 201.246 279.025 201.195 279.073C199.084 280.704 197.403 279.47 195.179 278.92C191.903 278.11 188.656 277.127 185.431 276.085C179.097 274.043 172.827 271.776 166.403 269.984C160.141 268.251 153.913 266.562 147.917 263.995C142.39 261.646 136.714 258.281 130.677 257.491C127.619 257.09 124.691 257.067 121.743 255.992C118.623 254.839 115.821 253.219 112.872 251.729C107.902 249.215 102.225 248.438 96.7547 247.735C78.1415 245.334 76.4005 242.005 65.1353 238.773C57.5696 236.605 51.6349 237.61 41.8063 232.688C38.7987 231.177 30.892 227.509 27.9741 226.395C30.8109 221.358 32.3875 221.31 36.3212 224.216L36.3065 224.21ZM24.4495 235.151C35.6631 237.185 45.3187 243.837 56.247 246.897C67.2834 249.98 78.6145 252.057 89.5051 255.684C100.66 259.407 111.523 264.036 122.879 267.151C128.661 268.745 134.586 269.661 140.422 271.01C146.106 272.32 151.748 273.748 157.356 275.363C172.139 279.608 178.413 281.861 188.316 285.515C189.006 285.763 195.731 287.779 193.487 288.948C192.342 289.549 189.259 287.878 188.232 287.459C186.71 286.847 185.235 286.102 183.698 285.533C179.04 283.811 153.393 276.512 148.193 275.193C138.242 272.6 125.557 269.904 109.92 265.22C102.085 262.971 95.0084 260.779 88.9529 258.008C87.4375 257.331 86.0177 256.573 84.5369 255.892C80.2927 254.036 76.3431 253.116 71.7853 252.227C69.13 251.721 66.6405 251.309 64.3096 250.87C61.9735 250.446 59.8159 249.987 57.797 249.511C53.5083 248.519 50.0142 247.762 40.8242 243.418C35.3324 240.833 29.5102 238.013 24.2708 236.48C24.3651 236.033 24.4246 235.59 24.4842 235.147L24.4495 235.151ZM15.0011 262.302C18.0203 264.382 21.9831 265.588 25.2933 267.042C26.2221 267.459 27.1456 267.89 28.0691 268.321C30.299 269.503 32.5594 270.646 34.8461 271.716C39.2241 273.984 45.7902 276.026 47.832 276.577C53.1965 278.038 58.6857 279.013 63.9224 280.876C69.0122 282.687 73.8246 285.178 78.7584 287.33C99.2417 296.26 121.072 301.575 142.482 307.784C148.566 309.553 154.582 311.464 160.538 313.586C166.093 315.58 171.494 318.05 177.039 320.024C177.023 320.068 177.013 320.097 177.012 320.147C176.982 320.136 176.967 320.131 176.938 320.12L174.98 320.214C172.291 319.248 169.098 318.069 165.303 316.673C160.293 314.825 156.176 313.447 152.78 312.509C149.653 311.653 147.177 311.112 145.248 310.801C145.248 310.801 145.233 310.796 145.219 310.791C140.957 309.493 135.826 307.933 129.665 306.103C116.881 302.161 104.285 300.094 92.4409 294.548C85.0915 291.13 78.2745 288.401 72.0144 286.154C68.8844 285.03 65.8896 284.038 63.0459 283.133C60.2022 282.229 57.5254 281.367 55.0103 280.564C46.5727 277.867 39.8748 275.545 34.5962 273.567C34.5962 273.567 34.5668 273.557 34.5521 273.551L34.5374 273.546C25.9491 269.882 20.1386 266.337 14.1344 263.7C14.4166 263.237 14.7189 262.765 15.0211 262.293L15.0011 262.302ZM167.376 353.502C161.972 353.769 156.564 351.827 151.53 350.186C139.52 346.256 127.75 341.567 115.762 337.578C103.562 333.53 91.1559 330.105 78.913 326.225C66.8171 322.397 54.9175 317.976 42.8385 314.054C31.8428 310.488 20.9357 306.722 9.9769 303.054C8.96708 302.724 1.10218 300.465 4.75007 299.037C6.08058 298.519 8.91518 300.466 10.1537 300.944C25.2896 307.024 148.676 347.37 148.735 347.391C150.027 347.904 151.525 348.492 153.333 349.091C155.323 349.739 157.649 350.425 160.445 350.815C175.255 352.349 178.407 343.476 181.58 328.307C181.73 327.614 181.868 326.95 182.022 326.292C181.964 326.221 181.952 326.117 181.959 326.004C181.975 325.96 181.985 325.93 181.987 325.881C184.477 313.121 193.648 297.832 193.679 297.793C193.679 297.793 193.323 298.229 192.497 299.376C185.028 309.968 182.608 320.961 181.397 322.949C181.397 323.181 181.265 324.195 180.475 327.827C180.073 329.64 179.674 331.538 179.194 333.522C176.141 345.815 170.34 351.994 157.266 349.226C157.207 349.205 157.163 349.189 157.105 349.168C155.152 348.6 153.032 347.805 150.768 347.042C51.4692 313.071 16.2547 304.743 4.1183 296.222C3.99698 295.913 3.90091 295.58 3.87003 295.204C3.72278 293.442 5.20975 291.056 6.06176 289.653C8.7105 285.278 11.1424 285.62 15.4431 287.596C26.913 294.6 42.8077 295.379 54.9084 301.365C60.0946 303.924 64.6782 307.56 69.8181 310.201C79.8932 315.361 91.3291 316.314 102.139 319.15C112.041 321.742 155.945 338.996 171.845 339.992C172.052 340.017 172.108 339.722 171.922 339.638C166.646 337.33 160.81 336.396 155.323 334.675C120.068 323.595 122.303 323.286 107.452 318.767C96.6134 315.457 85.0724 314.566 74.5221 310.314C69.1294 308.146 64.5066 304.711 59.5216 301.777C55.2574 299.284 50.7212 297.456 45.9826 296.054C36.4613 293.233 26.7202 291.81 17.8008 287.729C16.6708 287.041 15.5155 286.377 14.3603 285.714C12.7758 284.813 10.9932 283.725 9.16425 283.367C9.29201 282.965 9.41034 282.543 9.49401 282.125C11.5057 283.13 13.7872 284.214 16.3784 285.36C25.8239 289.547 24.4291 288.35 45.5749 294.232C46.5124 294.485 47.4793 294.75 48.4755 295.024C49.4718 295.299 50.5174 295.575 51.5419 295.909C53.6203 296.589 55.7571 297.522 57.9482 298.674C60.1592 299.816 62.4045 301.186 64.7651 302.697C67.1058 304.217 69.651 305.861 72.5338 307.211C73.9653 307.891 75.4672 308.513 77.0396 309.078C78.6119 309.642 80.2506 310.114 81.9134 310.612C85.2443 311.592 88.7632 312.556 92.486 313.461C94.2298 313.872 95.9495 314.257 97.6158 314.606C108.814 316.867 106.648 316.803 119.272 321.053C121.797 321.876 124.184 322.667 126.438 323.41C145.876 329.708 162.081 333.965 162.14 333.986C137.423 325.943 130.69 323.675 128.896 323.081C111.988 317.36 109.778 316.168 104.03 314.669C102.351 314.215 100.561 313.888 98.7907 313.551C97.011 313.194 95.1926 312.807 93.3406 312.374C89.622 311.504 86.1031 310.539 82.7669 309.574C81.0989 309.091 79.4749 308.625 77.9266 308.085C76.3731 307.561 74.8953 306.964 73.4827 306.324C70.648 305.024 68.1299 303.49 65.7452 301.954C63.3552 300.432 61.0259 299.065 58.7708 297.907C56.5157 296.749 54.3054 295.79 52.143 295.113C51.0597 294.757 50.0088 294.496 49.002 294.251C47.9858 293.986 47.0136 293.736 46.0709 293.497C33.7658 290.391 33.037 290.295 28.1707 288.648C25.2452 287.647 21.5873 286.284 17.0744 284.299C14.3069 283.09 11.8637 281.947 9.72392 280.93C9.73673 280.802 9.74427 280.689 9.76651 280.581C10.1409 276.534 9.75103 272.861 11.4012 268.957C14.1122 262.514 19.4633 268.865 33.4228 274.341C35.2974 275.08 36.9485 275.656 38.3709 276.084L38.4003 276.094C42.816 277.796 48.0568 279.693 54.2563 281.786C56.7608 282.619 59.4124 283.505 62.2255 284.448C65.044 285.377 67.9894 286.368 71.0701 287.49C77.2462 289.741 84.0044 292.449 91.2761 295.806C92.9668 296.595 94.6974 297.366 96.3663 298.031C98.0551 298.687 99.7156 299.283 101.363 299.825C109.994 302.675 118.867 304.483 127.062 306.794C136.684 309.519 144.109 311.57 149.709 313.116C152.246 313.811 154.426 314.394 156.251 314.9C158.716 315.752 161.503 316.769 164.686 317.928C169.349 319.635 173.195 320.983 176.337 321.978C176.774 322.102 177.191 322.235 177.598 322.348C177.548 330.111 171.976 338.795 172.219 338.534C175.752 334.792 183.937 321.604 176.844 318.394C173.804 317.021 170.706 315.577 167.586 314.424C161.265 312.071 154.758 310.233 148.325 308.19C137.681 304.8 126.893 301.856 116.217 298.604C105.549 295.372 94.9155 291.953 84.5962 287.75C79.532 285.684 74.6239 283.275 69.6219 281.081C64.5465 278.861 59.3354 277.388 53.9769 276.095C44.7088 273.863 35.8311 270.543 27.1128 266.733C26.7078 266.521 26.308 266.295 25.8883 266.078C22.7413 264.401 19.1908 262.23 15.6274 261.482C16.1191 260.713 16.6162 259.929 17.0933 259.155C18.0368 257.635 18.6421 254.932 20.2236 253.808C22.7893 251.975 25.4325 254.085 27.957 254.908C36.1998 257.917 58.8669 263.582 66.847 267.277C71.8803 269.615 76.785 272.172 82.0164 274.05C92.4058 277.779 103.387 279.814 114.178 281.962C125.756 284.277 136.644 287.588 147.444 292.344C158.793 297.331 170.655 303.613 183.418 302.902C183.724 302.88 183.753 302.475 183.458 302.419C172.159 300.254 161.578 296.456 151.029 291.972C140.67 287.557 130.315 283.823 119.289 281.358C108.386 278.92 97.2493 277.411 86.5746 274.06C81.2546 272.383 76.1716 270.276 71.1712 267.8C66.2243 265.361 61.3945 262.549 56.1239 260.872C45.7201 257.552 39.9076 257.755 33.3487 255.832C29.0826 253.853 24.26 252.453 21.456 248.527C21.4677 248.448 21.4646 248.364 21.4816 248.27C21.6421 248.378 21.7974 248.5 21.9726 248.613C28.9948 253.589 36.4073 252.533 51.772 257.469C54.3952 258.294 57.2902 259.333 60.4703 260.641C63.6505 261.948 67.1106 263.539 70.799 265.51C72.5409 266.434 74.1389 267.389 75.7538 268.251C76.544 268.684 77.3552 269.058 78.1265 269.451C78.9136 269.8 79.6755 270.173 80.4238 270.492C83.4412 271.79 86.2397 272.729 88.7559 273.483C93.8137 274.967 97.8014 275.734 100.797 276.262C103.807 276.795 105.856 277.05 107.141 277.213C108.432 277.361 108.973 277.422 108.973 277.422C108.973 277.422 108.61 277.325 107.554 277.079C106.493 276.847 104.724 276.461 101.928 275.839C99.1371 275.202 95.3092 274.359 90.2485 272.791C87.7228 272.017 84.8855 271.048 81.78 269.718C80.2193 269.074 78.6074 268.297 76.9431 267.434C75.2893 266.541 73.5497 265.519 71.6766 264.498C64.1634 260.473 57.6305 258.062 52.2788 256.473C50.047 255.804 48.0146 255.274 46.172 254.861C46.1573 254.856 46.1427 254.85 46.128 254.845C45.0499 254.475 43.7462 254.04 42.1863 253.579C31.6247 250.468 28.7775 251.653 22.6346 247.739C22.2401 247.497 21.8509 247.242 21.5058 247.002C21.511 246.987 21.5163 246.972 21.5069 246.952C21.6866 238.688 25.6359 237.899 32.0723 240.857C34.4819 241.954 37.1244 243.235 40.066 244.606C44.8348 246.849 49.2534 248.634 54.1948 250.026C58.0958 251.128 61.1953 251.644 63.5243 251.949C64.0021 252.004 64.4452 252.064 64.8789 252.103C66.8801 252.49 68.9747 252.893 71.1922 253.324C73.8075 253.848 76.5393 254.464 79.3736 255.349C80.7855 255.806 82.2162 256.303 83.634 256.928C84.3582 257.221 85.0361 257.597 85.7738 257.945C86.5063 258.308 87.2482 258.69 88.0154 259.048C94.1033 261.914 101.178 264.155 108.994 266.414C123.585 270.822 135.803 273.433 145.631 275.816C162.189 279.736 176.171 283.81 194.266 291.168C193.19 293.934 191.277 300.647 184.97 302.414C184.82 302.46 184.81 302.722 184.983 302.701C187.876 302.545 190.06 300.526 191.748 298.228C192.564 297.111 199.015 288.659 196.222 287.474C190.71 285.13 184.963 283.117 179.319 281.141C173.646 279.154 167.915 277.279 162.157 275.528C150.666 272.049 138.886 269.745 127.313 266.586C115.74 263.427 104.711 258.937 93.4291 254.92C64.8555 244.729 65.1201 251.709 41.7468 240.016C39.5252 238.904 36.975 238.337 34.6491 237.468C31.4855 236.3 28.4726 234.803 25.444 233.351C26.2421 232.144 27.0202 230.947 27.8184 229.741C31.3376 231.12 34.9737 231.712 38.2812 233.497C45.2813 237.287 63.7177 241.151 66.8504 241.944C78.0605 244.774 79.88 247.7 96.9128 250.53C100.765 251.166 104.469 250.969 108.326 252.238C115.017 254.441 121.066 257.74 128.02 259.44C131.743 260.345 135.513 261.118 139.192 262.19C142.872 263.262 145.852 265.079 149.303 266.649C153.12 268.401 157.32 269.826 161.441 271.007C165.867 272.264 170.64 272.832 174.971 274.354C183.192 277.239 191.594 280.587 200.355 281.459C198.882 281.312 196.366 295.39 195.711 297.262C193.564 303.426 189.416 308.606 187.273 314.805C180.276 334.989 181.875 352.9 167.428 353.637L167.376 353.502Z" fill="#FFD7D1"/>
<path d="M146.723 220.464C148.189 220.724 149.388 220.525 149.452 220.531C146.68 219.983 145.611 219.633 144.678 218.95C143.372 217.967 142.96 216.574 143.41 215.276C143.719 214.507 143.999 214.326 143.97 214.316C143.905 214.359 143.512 214.483 143.131 215.126C142.905 215.526 142.689 216.129 142.773 216.955C142.889 218.39 144.165 220.01 146.732 220.484L146.723 220.464Z" fill="#FFD7D1"/>
<path d="M143.125 242.963C140.657 242.491 138.52 241.559 136.777 240.452C133.939 238.653 131.486 236.014 129.791 233.249C127.759 229.898 127.765 226.416 127.395 224.906C127.38 226.842 127.363 228.229 127.775 230.269C127.985 231.257 128.348 232.416 128.992 233.626C130.521 236.53 132.998 239.427 135.979 241.426C137.804 242.629 140.032 243.677 142.667 244.192C145.13 244.678 147.458 244.618 149.502 244.19C151.547 243.763 153.308 242.969 154.723 242.033C157.561 240.132 159.114 237.886 160.004 236.148C161.392 233.344 161.329 231.348 161.365 231.062C161.204 231.419 160.674 234.696 157.944 237.864C157.148 238.789 156.127 239.783 154.788 240.696C153.459 241.579 151.815 242.416 149.834 242.85C147.863 243.303 145.564 243.424 143.096 242.952L143.125 242.963Z" fill="#FFD7D1"/>
<path d="M148.566 239.358C137.171 241.804 131.311 232.019 131.044 231.791C131.044 231.791 131.08 231.969 131.243 232.393C131.406 232.817 131.697 233.485 132.278 234.407C135.497 239.395 141.745 242.185 148.387 240.505C150.136 240.022 151.405 239.399 152.302 238.841C153.8 237.902 154.348 237.253 154.54 237.09C154.465 237.113 152.408 238.083 152.333 238.106C151.456 238.471 150.264 238.972 148.577 239.329L148.566 239.358Z" fill="#FFD7D1"/>
<path d="M10.0963 293.756C9.63962 294.289 9.8683 295.084 10.724 295.242C11.2553 295.333 11.6344 294.739 11.5711 294.269C11.4675 293.402 10.5172 293.276 10.091 293.77L10.0963 293.756Z" fill="#FFD7D1"/>
<path d="M20.8328 295.918C20.5438 296.03 20.4119 296.397 20.5638 296.667C20.6983 297.263 21.5962 297.303 21.8178 296.686C22.0394 296.069 21.3302 295.549 20.8381 295.903L20.8328 295.918Z" fill="#FFD7D1"/>
<path d="M22.9849 302.215C21.8571 302.076 21.9629 304.138 23.3352 303.734C24.142 303.659 24.1974 303.181 23.9909 302.924C23.885 302.804 23.5467 302.267 23.0048 302.206L22.9849 302.215Z" fill="#FFD7D1"/>
<path d="M35.7963 307.146C34.6207 306.724 33.9454 308.605 35.121 309.027C36.2966 309.449 36.9719 307.568 35.7963 307.146Z" fill="#FFD7D1"/>
<path d="M43.1698 302.41C42.7391 301.16 40.7745 302.197 41.3965 303.283C41.4059 303.303 41.4248 303.343 41.4342 303.363C41.6908 303.804 42.2322 304.098 42.7273 303.827C43.2225 303.557 43.383 303.017 43.2075 302.49C43.2033 302.455 43.1939 302.435 43.1751 302.395L43.1698 302.41Z" fill="#FFD7D1"/>
<path d="M49.456 309.76C48.5302 309.428 47.9921 310.927 48.9179 311.259C49.8437 311.591 50.3818 310.092 49.456 309.76Z" fill="#FFD7D1"/>
<path d="M62.4753 309.075C62.2353 308.773 61.8751 308.76 61.5367 308.871C61.522 308.865 61.4968 308.89 61.4768 308.899C61.1332 309.025 60.9274 309.598 61.1181 309.898C61.1328 309.904 61.1369 309.938 61.1463 309.958C61.3129 310.234 61.5551 310.437 61.8965 310.41C62.2032 310.388 62.4945 310.177 62.6053 309.868C62.7003 309.604 62.6483 309.286 62.4753 309.075Z" fill="#FFD7D1"/>
<path d="M62.9442 314.469C62.5199 314.45 62.1612 314.802 62.1857 315.242C62.2113 315.633 62.5971 316.037 63.0101 315.903C63.3684 315.783 63.7543 315.54 63.7298 315.1C63.7095 314.694 63.3097 314.468 62.9642 314.46L62.9442 314.469Z" fill="#FFD7D1"/>
<path d="M78.0523 317.67C77.6947 317.973 77.6371 318.549 77.9253 318.902C78.2806 319.344 78.954 319.271 79.2803 318.824C79.8666 318.022 78.7981 317.025 78.0523 317.67Z" fill="#FFD7D1"/>
<path d="M105.426 322.055C104.867 321.854 104.233 322.373 104.362 322.984L104.38 323.073C104.49 323.644 105.137 323.876 105.585 323.506L105.656 323.448C106.143 323.059 105.984 322.255 105.426 322.055Z" fill="#FFD7D1"/>
<path d="M97.3722 325.866C96.6352 325.054 95.4701 325.897 95.7187 326.683C96.0446 327.762 96.8276 327.429 97.2489 327.365C97.6343 327.354 97.9998 327.352 98.3782 327.223C99.2252 326.896 97.3533 325.826 97.3868 325.872L97.3722 325.866Z" fill="#FFD7D1"/>
<path d="M129.987 336.214C129.533 336.648 129.13 337.167 129.531 337.809C129.807 338.24 130.351 338.435 131.077 337.983C131.608 337.659 131.022 335.225 129.987 336.214Z" fill="#FFD7D1"/>
<path d="M28.9522 261.47C28.2257 261.923 28.3146 262.784 28.9465 263.011C29.211 263.106 29.5136 263.049 29.7302 262.861C30.0226 262.601 30.0758 262.222 29.9503 261.878C29.7883 261.406 29.2529 261.28 28.9522 261.47Z" fill="#FFD7D1"/>
<path d="M38.2042 262.038C37.8161 262.379 37.7784 262.947 38.0802 263.354C38.4396 263.831 39.1823 263.749 39.5192 263.273C40.1213 262.427 39.0151 261.35 38.2042 262.038Z" fill="#FFD7D1"/>
<path d="M49.0132 269.22C47.9552 268.84 47.3431 270.545 48.4012 270.924C49.4592 271.304 50.0712 269.599 49.0132 269.22Z" fill="#FFD7D1"/>
<path d="M75.7323 276.074C74.6596 275.689 74.0423 277.408 75.1151 277.793C76.1878 278.178 76.8051 276.459 75.7323 276.074Z" fill="#FFD7D1"/>
<path d="M69.4369 271.707C69.2327 271.999 69.34 272.485 69.6939 272.562C69.9343 272.632 70.4915 272.882 70.6958 272.59C70.9663 272.206 69.9886 270.909 69.4422 271.692L69.4369 271.707Z" fill="#FFD7D1"/>
<path d="M117.73 293.971C116.511 293.533 115.809 295.488 117.029 295.926C118.248 296.363 118.95 294.409 117.73 293.971Z" fill="#FFD7D1"/>
<path d="M108.381 286.65C108.236 286.548 108.054 286.499 107.883 286.421C107.129 286.117 106.66 287.425 107.44 287.655C107.601 287.713 107.792 287.782 107.97 287.796C108.133 287.805 108.297 287.764 108.455 287.738C108.778 287.671 108.926 287.26 108.719 287.003C108.613 286.882 108.518 286.732 108.381 286.65Z" fill="#FFD7D1"/>
<path d="M138.948 295.449C138.484 296.925 140.569 297.541 140.99 296.182C141.167 295.599 139.369 294.091 138.948 295.449Z" fill="#FFD7D1"/>
<path d="M157.199 306.945C157.23 306.442 156.871 305.965 156.31 306.095C155.789 306.207 155.41 306.983 155.84 307.403C155.976 307.535 156.072 307.636 156.248 307.699C156.322 307.725 156.395 307.752 156.479 307.749C156.667 307.733 156.702 307.729 156.598 307.741C156.721 307.769 156.841 307.712 156.951 307.636C156.991 307.617 157.046 307.603 157.086 307.585C157.34 307.477 157.368 307.122 157.199 306.945Z" fill="#FFD7D1"/>
<path d="M170.531 306.82C170.351 305.661 168.598 305.645 168.468 306.793C168.431 306.896 168.429 306.995 168.441 307.099C168.447 307.267 168.493 307.416 168.559 307.556C168.785 308.035 169.318 308.26 169.826 308.093C170.319 307.922 170.637 307.406 170.545 306.875C170.55 306.86 170.546 306.826 170.537 306.806L170.531 306.82Z" fill="#FFD7D1"/>
<path d="M181.978 308.806L182.018 308.787C182.018 308.787 181.964 308.801 181.949 308.796C180.543 308.921 181.126 311.503 182.546 310.735C183.101 310.437 183.121 308.486 181.978 308.806Z" fill="#FFD7D1"/>
<path d="M136.521 234.188C136.521 234.188 137.068 235.297 139.041 236.503C141.267 237.833 144.363 238.497 147.238 237.836C147.874 237.683 148.178 237.527 148.487 237.406C148.487 237.406 148.429 237.384 148.251 237.371C147.508 237.27 145.501 237.545 142.421 236.837C139.823 236.219 137.451 234.738 136.515 234.203L136.521 234.188Z" fill="#FFD7D1"/>
<path d="M93.9769 305.518C93.3699 305.5 93.14 306.048 93.14 306.048C93.14 306.048 93.1777 306.774 93.7847 306.793C94.3477 306.796 94.5922 306.254 94.5922 306.254C94.5922 306.254 94.6039 305.528 93.9916 305.524L93.9769 305.518Z" fill="#FFD7D1"/>
<path d="M183.724 298.583C182.741 298.362 181.125 298.014 178.574 297.447C168.596 295.159 160.159 292.645 150.234 288.501C143.092 285.522 137.277 283.004 132.41 281.406C127.564 279.749 123.695 278.974 120.796 278.547C119.333 278.37 118.121 278.234 117.104 278.201C116.601 278.17 116.142 278.154 115.753 278.13C115.353 278.136 115.002 278.143 114.686 278.145C113.46 278.187 112.961 278.19 112.961 278.19C112.961 278.19 113.439 278.245 114.647 278.347C114.952 278.374 115.292 278.396 115.682 278.42C116.076 278.479 116.519 278.538 117.011 278.599C117.499 278.674 118.051 278.707 118.641 278.819C119.236 278.916 119.89 279.035 120.594 279.155C123.411 279.718 127.148 280.629 131.884 282.362C136.274 283.905 142.626 286.682 149.483 289.576C160.269 294.095 171.848 297.422 183.36 298.717C184.548 298.829 185.046 298.875 185.046 298.875C185.046 298.875 184.717 298.773 183.729 298.568L183.724 298.583Z" fill="#FFD7D1"/>
<path d="M63.8682 235.88C73.9744 238.18 82.8561 244.123 92.6254 244.959C93.6514 245.012 94.0704 245.046 94.0704 245.046C94.0704 245.046 93.7859 244.961 92.9302 244.803C92.5071 244.734 91.957 244.603 91.2252 244.423C83.1357 242.697 73.6835 236.865 64.3943 234.691C51.6174 231.697 43.8398 233.169 32.6853 225.332C32.9517 225.561 34.4264 227.368 38.0402 229.362C45.8787 233.636 55.1133 233.881 63.8483 235.889L63.8682 235.88Z" fill="#FFD7D1"/>
<path d="M110.723 247.457C112.708 247.888 115.017 248.434 117.666 249.187C126.155 251.603 129.779 253.8 137.519 257.193C139.568 258.094 141.744 259.008 144.065 259.891C145.23 260.342 146.426 260.755 147.671 261.169C148.896 261.592 150.226 261.953 151.562 262.251C154.083 262.807 156.52 263.134 158.804 263.473C161.108 263.802 163.248 264.172 165.271 264.683C167.299 265.179 169.233 265.707 171.126 266.072C173.028 266.456 174.808 266.581 176.455 266.89C183.107 268 188.064 269.581 191.732 270.914C195.41 272.268 197.829 273.385 199.329 274.106C200.843 274.832 201.463 275.137 201.463 275.137C200.693 274.695 198.272 273.029 193.182 270.804C189.773 269.348 184.995 267.5 178.206 266.125C176.526 265.77 174.67 265.486 172.765 265.2C170.871 264.885 168.883 264.371 166.762 263.808C165.702 263.527 164.592 263.245 163.437 262.996C162.283 262.748 161.092 262.552 159.867 262.361C157.431 261.985 154.865 261.644 152.226 261.095C149.586 260.546 147.162 259.675 144.84 258.842C142.523 257.994 140.356 257.099 138.302 256.213C130.291 252.789 126.372 250.536 118.089 248.426C115.383 247.736 113.019 247.253 110.993 246.89C106.914 246.189 104.18 245.905 102.46 245.752C100.74 245.599 100.039 245.563 100.039 245.563C100.039 245.563 100.713 245.672 102.391 245.943C104.069 246.213 106.751 246.645 110.742 247.497L110.723 247.457Z" fill="#FFD7D1"/>
<path d="M85.0639 223.878C86.6544 224.3 88.4773 225.137 89.7105 226.276C89.8993 226.444 90.0869 226.66 90.1706 226.89C90.2071 227.019 90.229 227.143 90.1962 227.28C90.1189 227.634 89.7625 227.888 89.6999 228.247C89.6192 228.749 90.1543 229.107 90.6098 229.27C91.7161 229.701 92.9132 229.832 94.0839 230.036C94.9743 230.19 96.5862 230.321 97.2467 231.022C97.8443 231.668 97.9879 232.516 98.804 233.108C99.6495 233.71 100.499 233.7 101.451 233.959C102.301 234.181 103.122 234.525 103.992 234.738C106.196 235.297 108.413 235.777 110.602 236.381C111.161 236.532 111.392 236.582 111.392 236.582C111.392 236.582 111.241 236.494 110.801 236.287C108.7 235.3 106.474 234.617 104.237 233.963C102.888 233.562 100.027 233.165 99.2441 231.789C99.0735 231.479 98.9827 231.131 98.812 230.821C98.5136 230.266 97.9744 229.873 97.3972 229.633C95.4114 228.788 92.8665 229.5 91.0537 228.219C90.9667 228.138 91.8183 227.614 91.4095 226.488C90.4183 223.843 84.0394 222.897 81.2688 222.898C80.6712 222.899 80.4232 222.942 80.4232 222.942C80.9338 222.86 81.7368 223.165 82.2334 223.26C83.1826 223.435 84.1317 223.61 85.0692 223.864L85.0639 223.878Z" fill="#FFD7D1"/>
<path d="M68.4375 224.214C69.3113 224.876 68.4389 225.227 68.3067 225.826C68.148 226.499 68.7754 226.924 69.2769 227.236C70.2023 227.801 71.1277 227.718 72.1273 227.845C72.9695 227.948 74.0611 228.373 74.6281 229.058C75.104 229.627 75.2332 230.237 75.8741 230.716C77.3459 231.792 79.3399 232.06 81.0913 232.357C81.485 232.415 81.6572 232.444 81.6572 232.444C81.6572 232.444 81.5649 232.378 81.2469 232.247C80.9342 232.101 80.4104 231.897 79.5928 231.587C74.1296 229.476 76.6636 229.672 75.8098 228.354C75.6587 228.266 75.285 226.905 71.4665 226.728C70.746 226.702 69.8082 226.68 69.3229 226.092C69.8919 225.616 70.3746 225.241 69.9462 224.54C69.5555 223.919 68.5321 223.535 67.8697 223.347C66.3339 222.911 64.6258 223.095 63.0775 223.202C62.6668 223.238 62.4987 223.244 62.4987 223.244C62.4987 223.244 62.6604 223.302 63.0741 223.351C64.6638 223.589 67.1368 223.216 68.4669 224.225L68.4375 224.214Z" fill="#FFD7D1"/>
<path d="M167.325 244.218C167.393 245.37 165.921 245.821 165.93 246.902C165.931 247.085 165.976 247.284 166.065 247.498C166.511 248.521 167.934 248.484 168.866 248.753C169.95 249.059 171.386 249.359 172.119 250.319C173.141 251.631 171.924 253.218 172.807 254.548C173.552 255.661 175.096 255.519 176.196 256.013C176.7 256.227 177.017 256.407 177.211 256.56C177.39 256.707 177.483 256.773 177.483 256.773C177.483 256.773 177.454 256.713 177.335 256.538C176.408 255.376 173.713 255.536 173.647 253.688C173.611 252.679 174.532 252.147 174.094 251.011C173.278 248.893 170.314 248.509 168.513 247.796C165.713 246.675 169.585 243.884 166.731 242.777C165.61 242.341 164.928 242.395 164.222 242.374C165.076 242.398 167.252 243.13 167.335 244.238L167.325 244.218Z" fill="#FFD7D1"/>
<path d="M170.651 238.742C172.197 239.845 173.779 241.259 173.955 242.616C173.99 242.844 173.955 243.08 173.913 243.381C173.866 243.696 173.813 244.075 173.843 244.5C173.863 244.906 173.986 245.348 174.19 245.753C174.398 246.143 174.691 246.481 175.021 246.765C175.67 247.313 176.432 247.686 177.21 248.015C178.623 248.605 180.795 248.655 181.665 250.112C182.042 250.728 182.113 251.501 182.344 252.197C182.912 253.895 184.442 255.041 185.951 255.964C187.466 256.873 189.087 257.72 190.125 259.172C189.493 258.298 189.271 257.438 188.394 256.692C186.728 255.281 184.194 254.438 183.46 252.183C183.11 251.079 183.49 250.253 182.627 249.329C181.967 248.578 181.023 248.206 180.196 247.876C179.99 247.802 179.789 247.713 179.604 247.63C179.403 247.542 179.173 247.443 178.988 247.359C178.576 247.212 178.19 247.04 177.813 246.888C176.477 246.358 175.611 245.998 175.256 244.493C174.994 243.42 175.085 242.242 174.505 241.27C173.75 239.954 172.228 239.109 171.002 238.321C169.829 237.568 168.947 237.251 168.398 237.071C167.844 236.905 167.628 236.861 167.628 236.861C167.628 236.861 167.832 236.984 168.315 237.257C168.919 237.606 169.782 238.115 170.666 238.748L170.651 238.742Z" fill="#FFD7D1"/>
<path d="M110.392 232.805C112.015 233.736 113.151 234.177 113.858 234.381C114.564 234.585 114.831 234.581 114.831 234.581C114.831 234.581 114.717 234.391 114.163 233.993C113.609 233.595 112.621 232.974 110.905 231.977C109.189 230.98 108.052 230.405 107.342 230.117C106.633 229.83 106.362 229.799 106.362 229.799C106.362 229.799 106.51 230.034 107.096 230.527C107.682 231.019 108.658 231.768 110.397 232.79L110.392 232.805Z" fill="#FFD7D1"/>
</svg>
