<svg width="384" height="278" viewBox="0 0 384 278" fill="none" xmlns="http://www.w3.org/2000/svg">
<path fill-rule="evenodd" clip-rule="evenodd" d="M36.76 201.47C39.33 201.47 41.79 201.94 44.06 202.8C43.49 203.16 42.7 203.45 41.78 203.19C41.34 203.07 40.93 202.93 40.56 202.81C39.76 202.55 39.12 202.34 38.57 202.36C37.54 202.4 37.02 202.93 37.07 204.4V204.64C37.15 206.42 37.29 209.68 34.82 210.48C33.68 210.85 33.32 211.34 33.52 211.98C33.73 212.64 34.62 212.8 35.82 213.03C37.43 213.34 39.84 213.79 40.45 214.82C40.77 215.37 41.12 216.04 41.48 216.73C42.41 218.51 43.41 220.41 44.36 221.06C45.15 221.6 45.86 221.56 46.47 220.67C46.98 219.93 47.13 218.9 47.3 217.76C47.55 216.1 47.84 214.17 49.39 213.45C50.81 212.79 52.14 212.68 53.06 212.6C53.53 212.56 53.9 212.53 54.22 212.44C54.46 212.37 54.65 212.29 54.81 212.18C56.4 215.1 57.31 218.45 57.31 222.02C57.31 227.7 55.01 232.84 51.29 236.56C47.57 240.28 42.43 242.58 36.75 242.58C31.07 242.58 25.93 240.28 22.21 236.56C18.49 232.84 16.19 227.7 16.19 222.02C16.19 216.34 18.49 211.2 22.21 207.48C25.93 203.76 31.07 201.46 36.75 201.46L36.76 201.47ZM120.62 196.52C120.03 196.39 119.29 196.44 118.39 196.87C117.59 197.25 116.84 197.74 116.15 198.19C115.14 198.85 114.29 199.4 114.1 199.24C113.98 199.14 114.8 198.53 115.47 197.62C116.53 196.17 117.73 194.54 117.5 193.17C117.23 191.56 115.38 189.92 114.07 188.76L113.86 188.58C114.52 188.53 115.4 188.5 116.29 188.47C117.92 188.42 119.6 188.36 120.48 188.13C122.07 187.72 123.2 185.86 124.1 184.37L124.35 183.96C124.42 184.29 124.5 184.68 124.58 185.09C124.98 187.08 125.47 189.53 126.62 190.42C127.85 191.37 130.38 191.35 132.44 191.2C130.81 192.22 128.93 193.49 128.43 194.62C127.82 196.01 128.09 197.85 128.35 199.66C128.45 200.38 128.56 201.09 128.6 201.72C128.21 201.44 127.66 201 127.06 200.52C125.6 199.35 123.9 197.98 122.44 197.7C122.9 196.2 123.5 194.62 124.24 192.93C124.47 192.4 124.24 191.78 123.7 191.55C123.17 191.32 122.55 191.55 122.32 192.08C121.63 193.63 121.07 195.1 120.61 196.51L120.62 196.52ZM119.11 198.39C118.41 198.72 117.71 199.18 117.07 199.59C115.49 200.62 114.17 201.48 113.03 200.53C111.93 199.62 112.95 198.21 114.12 196.61C114.98 195.43 115.96 194.1 115.84 193.44C115.67 192.42 114.08 191.01 112.96 190.01C112.27 189.4 111.71 188.91 111.54 188.51C111.27 187.89 111.5 187.47 112.12 187.19C112.77 186.9 114.48 186.85 116.25 186.79C117.79 186.74 119.39 186.68 120.08 186.51C121 186.27 121.93 184.74 122.68 183.51C123.08 182.86 123.43 182.28 123.77 181.9C124.28 181.35 124.77 181.35 125.26 181.8C125.74 182.24 125.97 183.4 126.25 184.77C126.59 186.48 127.02 188.6 127.66 189.1C128.64 189.86 131.69 189.59 133.6 189.43C134.37 189.36 134.97 189.31 135.33 189.34C135.98 189.41 136.25 189.75 136.19 190.33C136.13 190.92 135.22 191.47 134.05 192.2C132.5 193.16 130.35 194.48 129.99 195.3C129.58 196.25 129.81 197.85 130.04 199.43C130.19 200.44 130.33 201.44 130.32 202.36C130.31 203.31 129.88 203.71 129.12 203.7C128.33 203.7 127.26 202.83 126.03 201.84C124.63 200.71 122.96 199.37 122 199.33C118.94 211.28 124.6 217.06 127.85 219.3C129.74 220.11 131.52 220.99 133.26 222.03C135.64 220.9 137.79 219.37 139.63 217.53C143.77 213.39 146.33 207.67 146.33 201.36C146.33 195.05 143.77 189.33 139.63 185.19C135.49 181.05 129.77 178.49 123.46 178.49C117.15 178.49 111.42 181.05 107.29 185.19C103.15 189.33 100.59 195.05 100.59 201.36C100.59 203.84 100.98 206.22 101.71 208.46C103.92 209.82 106.23 211.1 108.84 212.16C112.93 213.81 116.44 215.06 119.57 216.18C120.66 216.57 121.7 216.94 122.7 217.3C119.8 213.57 117.54 207.5 120.14 198.18C119.87 198.15 119.54 198.2 119.13 198.39H119.11ZM127.18 236.35C126.87 236.35 126.47 236.21 126.12 235.64C125.77 235.06 125.47 234.38 125.19 233.76C124.56 232.33 124.03 231.11 122.89 231.02C124.41 230.7 125.99 230.53 127.6 230.53C127.73 230.53 127.87 230.53 128 230.53C127.99 232.23 127.75 234.16 127.18 236.34V236.35ZM121.94 231.24C117.9 232.27 114.28 234.37 111.42 237.23C107.28 241.37 104.72 247.09 104.72 253.4C104.72 259.71 107.28 265.43 111.42 269.57C115.56 273.71 121.28 276.27 127.59 276.27C133.9 276.27 139.62 273.71 143.76 269.57C147.9 265.43 150.46 259.71 150.46 253.4C150.46 247.09 147.9 241.37 143.76 237.23C140.17 233.64 135.4 231.24 130.07 230.67C130.05 232.4 129.82 234.34 129.29 236.5C130.19 236.65 131.61 236.5 132.85 236.38C134.27 236.24 135.5 236.12 136.12 236.51C136.74 236.9 136.88 237.45 136.39 238.22C135.94 238.93 135.35 239.6 134.74 240.28C133.81 241.33 132.86 242.41 132.71 243.29C132.58 244.06 133.53 246.08 134.22 247.53C134.58 248.28 134.88 248.93 134.96 249.42C135.01 249.59 135.01 249.79 134.94 249.97C134.94 250 134.92 250.02 134.91 250.05C134.64 250.57 134.24 250.71 133.66 250.41C133.37 250.26 132.95 249.93 132.4 249.5C131.07 248.46 128.95 246.78 127.88 246.87C127.19 246.93 125.85 248.28 124.77 249.38C123.88 250.28 123.14 251.05 122.54 251.14C121.9 251.25 121.49 250.99 121.37 250.26C121.3 249.8 121.32 249.2 121.34 248.51C121.38 247.24 121.43 245.66 120.89 245.07C120.47 244.61 119.31 243.8 118.19 243.01C116.9 242.1 115.65 241.22 115.29 240.67C114.93 240.11 114.97 239.64 115.53 239.28C115.88 239.05 116.54 238.96 117.36 238.83C118.68 238.64 120.53 238.36 121.13 237.71C121.51 237.3 121.43 235.85 121.36 234.57C121.28 233.09 121.21 231.75 121.94 231.24V231.24ZM124.68 236.51C124.26 235.83 123.94 235.1 123.65 234.43C123.23 233.48 122.88 232.68 122.73 232.7C122.51 232.73 123 233.53 123.05 234.49C123.13 236.1 123.23 237.92 122.37 238.86C121.36 239.95 119.17 240.28 117.61 240.51H117.59C118.04 240.84 118.6 241.24 119.17 241.64C120.36 242.48 121.59 243.34 122.14 243.95C123.15 245.05 123.09 247.01 123.03 248.58V248.78L123.59 248.21C124.87 246.91 126.44 245.3 127.76 245.2C129.08 245.09 130.82 246.2 132.25 247.26C131.57 245.77 130.9 244.06 131.07 243.03C131.3 241.67 132.4 240.42 133.49 239.18C133.87 238.75 134.24 238.33 134.56 237.93C134.16 237.96 133.61 238.01 133.03 238.07C131.65 238.21 130.08 238.36 128.87 238.12C128.39 239.71 127.75 241.41 126.92 243.23C126.68 243.76 126.06 243.99 125.53 243.75C125 243.51 124.77 242.89 125.01 242.36C125.71 240.83 126.26 239.4 126.69 238.05C126.03 237.94 125.3 237.55 124.68 236.54V236.51ZM83.86 223.19C83.41 223.22 82.76 223.06 82.3 222.08C81.95 221.34 81.68 220.47 81.43 219.68C80.84 217.77 80.34 216.17 78.79 216.17C77.24 216.17 77.2 218.01 77.07 220.1C76.98 221.68 76.87 223.47 76.3 223.96C75.44 224.7 73.15 224.78 71.52 224.84C70.53 224.87 69.75 224.9 69.34 225.11C68.73 225.41 68.63 225.89 68.94 226.51C68.96 226.54 68.98 226.58 69 226.61C69.41 227.3 70.72 228.46 72.07 229.66C73.31 230.76 74.59 231.89 75.05 232.53C75.67 233.38 75.39 235.31 75.16 236.85C75.04 237.65 74.94 238.37 74.97 238.92C75.01 239.68 75.4 240 76.07 239.97C76.74 239.94 77.72 239.14 78.88 238.2C80.35 237.01 82.16 235.54 83.06 235.57C84.42 235.61 86.78 237.94 88.25 239.39C88.84 239.98 89.31 240.44 89.61 240.64L89.65 240.67C90.18 241 90.59 240.9 90.91 240.42C91.04 240.23 91.08 240 91.04 239.79C91.01 239.22 90.74 238.41 90.41 237.46C89.78 235.6 88.9 233.02 89.17 232.07C89.48 230.98 90.78 229.8 92.05 228.65C92.87 227.91 93.68 227.17 94.29 226.42C94.9 225.66 94.82 225.06 94.22 224.57C93.58 224.06 92.12 224.04 90.42 224.01C88.87 223.99 87.1 223.97 86.02 223.64C88.2 219.87 90.62 217.39 93.03 215.78C95.21 216.84 97.19 218.26 98.89 219.96C102.81 223.88 105.24 229.3 105.24 235.29C105.24 241.28 102.81 246.7 98.89 250.62C94.97 254.54 89.55 256.97 83.56 256.97C77.57 256.97 72.15 254.54 68.23 250.62C64.31 246.7 61.88 241.28 61.88 235.29C61.88 229.3 64.31 223.88 68.23 219.96C72.15 216.04 77.57 213.61 83.56 213.61C86.06 213.61 88.46 214.03 90.7 214.81C88.31 216.67 85.95 219.37 83.83 223.22L83.86 223.19ZM80.78 222.79C80.37 221.92 80.09 221.01 79.83 220.17C79.44 218.9 79.11 217.85 78.79 217.85C78.69 217.85 78.83 218.95 78.75 220.2C78.64 222.12 78.51 224.27 77.4 225.23C76.09 226.36 73.45 226.45 71.57 226.52L71.13 226.54C71.66 227.05 72.41 227.72 73.18 228.4C74.5 229.57 75.86 230.77 76.42 231.54C77.44 232.94 77.1 235.24 76.83 237.09C76.8 237.32 76.76 237.55 76.73 237.76C77.04 237.52 77.42 237.21 77.82 236.88C79.5 235.51 81.58 233.82 83.11 233.87C84.83 233.93 86.99 235.81 88.61 237.37C87.94 235.38 87.17 232.9 87.55 231.58C87.99 230.04 89.47 228.69 90.93 227.38C91.54 226.83 92.14 226.28 92.64 225.74C92.12 225.69 91.31 225.68 90.41 225.67C88.64 225.65 86.62 225.62 85.22 225.1C84.65 226.2 84.11 227.39 83.58 228.68C83.36 229.22 82.75 229.48 82.21 229.26C81.67 229.04 81.41 228.43 81.63 227.89C82.07 226.8 82.53 225.78 83 224.82C82.23 224.64 81.38 224.11 80.77 222.8L80.78 222.79ZM45.81 203.56C45.05 204.26 43.41 205.4 41.32 204.81C40.84 204.68 40.42 204.54 40.03 204.41C39.38 204.2 38.87 204.03 38.62 204.04C38.55 204.04 38.73 204.11 38.74 204.34V204.58C38.83 206.51 38.97 209.85 36.59 211.48C38.47 211.84 40.98 212.43 41.89 213.99C42.23 214.56 42.59 215.26 42.97 215.97C43.75 217.45 44.57 219.03 45.18 219.58C45.41 219.12 45.52 218.36 45.65 217.53C45.96 215.45 46.33 213.04 48.71 211.94C50.32 211.19 51.77 211.04 52.8 210.95C52.65 210.87 52.48 210.79 52.3 210.71C51.03 210.11 49.63 209.44 49.56 208.06C49.54 207.56 49.41 207.03 49.26 206.57C46.49 209.17 45.22 211.43 45.21 211.45C44.86 212.05 44.09 212.26 43.49 211.91C42.89 211.56 42.68 210.79 43.03 210.19C43.03 210.17 44.51 207.57 47.69 204.62C47.09 204.24 46.46 203.89 45.82 203.58L45.81 203.56ZM51.17 207.36C51.2 207.56 51.22 207.77 51.23 207.97C51.25 208.3 51.96 208.68 52.7 209.03C52.26 208.49 51.79 207.97 51.3 207.48L51.17 207.35V207.36ZM35.12 211.47C35.12 211.47 35.12 211.49 35.13 211.5C35.09 211.37 35.06 211.31 35.12 211.47ZM43.37 193.58C43.83 193.03 44.61 192.33 45.83 191.99C48.08 191.35 47.72 189.59 47.38 187.93C47.24 187.22 47.1 186.54 47.27 186.39C47.66 186.04 47.82 185.68 47.8 185.32C47.77 184.83 47.47 184.5 46.97 184.34C46.73 184.26 46.42 184.22 46.06 184.23C45.6 184.23 45.03 184.32 44.43 184.47C44.37 182.43 44.03 180.45 43.45 178.58C44.53 179.06 45.66 179.46 46.82 179.77C48.64 180.25 50.55 180.51 52.52 180.51C53.51 180.51 54.49 180.44 55.47 180.31C55.91 180.25 56.35 180.18 56.78 180.1C55.93 182.52 55.47 185.13 55.47 187.84C55.47 190.98 56.09 193.98 57.22 196.72C52.37 196.35 47.26 195.46 43.38 193.58H43.37ZM42.75 185.06C42.72 179.42 40.43 174.31 36.73 170.61C33.01 166.89 27.87 164.59 22.19 164.59C16.51 164.59 11.37 166.89 7.65 170.61C3.93 174.33 1.63 179.47 1.63 185.15C1.63 190.83 3.9 195.9 7.57 199.61C11.18 203.26 16.13 205.56 21.63 205.71C25.58 202.04 30.86 199.79 36.67 199.77C37.1 199.34 37.51 198.9 37.9 198.44C37.9 198.36 37.89 198.28 37.88 198.21C37.79 197.63 37.49 197.06 37.05 196.63C36.63 196.2 36.09 195.91 35.53 195.86C35.39 195.85 35.25 195.86 35.11 195.87L34.87 195.91C33.11 196.17 29.98 196.64 29.01 195.91C28.4 195.44 28.28 194.83 28.9 194.02C29.43 193.33 30.13 192.96 30.89 192.57C31.97 192.01 33.18 191.38 33.5 189.42C33.74 187.94 33.73 186.71 33.72 185.87C33.71 184.99 33.7 184.42 34.07 184.05C34.58 183.54 35.1 183.63 35.82 184.34C36.44 184.96 37.82 185.84 39.22 186.16C40.09 186.36 40.94 186.33 41.53 185.85C41.9 185.55 42.33 185.29 42.78 185.07L42.75 185.06ZM39.34 199.33C39.19 199.51 39.03 199.7 38.87 199.87C42.59 200.22 46.04 201.49 49 203.44C51.03 201.76 53.61 200.06 56.79 198.74C51.66 198.31 46.21 197.3 42.05 195.2C41.56 196.16 41.01 197.08 40.39 197.96C40.08 198.4 39.75 198.84 39.41 199.25C39.39 199.28 39.37 199.3 39.35 199.33H39.34ZM39.17 196.77C39.69 196.01 40.17 195.21 40.58 194.38C39 193.4 37.67 192.22 36.71 190.8C36.38 190.32 36.51 189.67 36.99 189.34C37.47 189.01 38.12 189.14 38.45 189.61C39.3 190.86 40.48 191.9 41.9 192.76C42.5 191.96 43.6 190.86 45.38 190.36C46.13 190.15 45.93 189.17 45.74 188.25C45.57 187.42 45.41 186.61 45.63 185.93C45.14 185.99 44.56 186.13 43.99 186.35C43.94 186.38 43.89 186.4 43.83 186.41C43.37 186.6 42.94 186.84 42.57 187.14C41.51 188 40.15 188.09 38.83 187.79C37.54 187.5 36.27 186.82 35.38 186.17C35.38 187.05 35.38 188.25 35.14 189.67C34.68 192.47 33.08 193.3 31.65 194.05C31.26 194.25 30.88 194.45 30.59 194.67C31.56 194.69 33.44 194.41 34.61 194.24L34.85 194.2C35.12 194.16 35.39 194.15 35.65 194.17C36.63 194.25 37.53 194.73 38.23 195.43C38.61 195.81 38.93 196.27 39.17 196.76V196.77ZM81.73 187.51C81.15 188.13 79.69 189.12 76.67 188.01C74.56 187.23 72.98 187.43 71.83 187.99C72.5 186.53 73.57 185.07 75.18 184.8C76.05 184.66 76.58 184.38 76.84 184.03C77.26 183.47 77.14 182.91 76.61 182.41C76.34 182.15 75.93 181.9 75.43 181.67C74.07 181.07 71.78 180.54 69.79 180.5C71.78 179.11 74.53 177.13 74.9 175.21C75.09 174.24 75.15 173.38 75.2 172.66C75.28 171.56 75.32 170.91 75.93 170.91C76.38 170.91 77.17 171.37 78.09 171.9C80.27 173.17 83.08 174.81 86.38 173.36C86.78 173.18 86.86 172.95 86.89 173.01C87.1 173.49 86.4 175.31 85.73 177.06C85.03 178.88 84.36 180.63 84.63 181.59C84.96 182.77 85.82 183.64 86.62 184.45C87.19 185.03 87.72 185.57 87.82 186C87.84 186.08 86.68 186.36 85.54 186.6C84.91 186.73 84.28 186.82 83.78 186.86C83.77 186.64 83.76 186.41 83.75 186.18C83.75 186.1 83.76 186.2 83.78 186.1C84 184.83 84.75 180.62 81.21 179.23C80.67 179.02 80.06 179.29 79.85 179.83C79.64 180.37 79.91 180.98 80.45 181.19C82.38 181.95 81.87 184.86 81.71 185.74C81.67 185.94 81.65 186.08 81.65 186.24C81.66 186.68 81.69 187.1 81.72 187.52L81.73 187.51ZM76.1 189.59C72.05 188.09 70.78 191.4 70.78 191.41C70.61 191.84 70.12 192.05 69.69 191.88C69.3 191.72 69.09 191.31 69.18 190.91C69.29 190.28 70.49 184.08 74.7 183.18C73.11 182.5 70.23 181.93 68.37 182.27C67.2 182.48 66.64 182.23 66.52 181.58C66.38 180.84 67.34 180.17 68.63 179.27C70.4 178.03 73.01 176.21 73.26 174.89C73.43 174.01 73.49 173.22 73.53 172.55C73.67 170.46 73.76 169.23 75.94 169.23C76.84 169.23 77.81 169.79 78.94 170.46C80.79 171.54 83.2 172.94 85.71 171.83C87.21 171.17 88.05 171.45 88.44 172.35C88.93 173.46 88.11 175.61 87.32 177.68C86.73 179.24 86.15 180.74 86.27 181.15C86.48 181.91 87.18 182.62 87.83 183.28C88.58 184.04 89.28 184.75 89.48 185.67C89.75 186.97 87.84 187.84 85.9 188.25C85.21 188.4 84.52 188.49 83.96 188.54C84.91 195.61 89.01 199.99 90.94 201.7C91.96 202.26 92.95 202.85 93.91 203.44C94 203.35 94.09 203.26 94.18 203.18C98.1 199.26 100.53 193.84 100.53 187.85C100.53 181.86 98.1 176.44 94.18 172.52C90.26 168.6 84.84 166.17 78.85 166.17C72.86 166.17 67.44 168.6 63.52 172.52C62.47 173.57 61.53 174.72 60.72 175.96C64 190.87 72.53 195.46 76.16 196.77C79.97 197.3 83.2 198.22 86.08 199.38C84.36 196.97 82.66 193.66 81.98 189.47C80.82 190.18 78.94 190.65 76.11 189.61L76.1 189.59ZM68.17 181.24C68.19 181.37 68.2 181.43 68.17 181.27V181.24ZM58.03 172.96C57.01 172.7 55.56 172.74 53.51 173.51C51.22 174.37 49.56 174.75 48.33 174.84C47.7 174.89 47.19 174.86 46.76 174.8L47.15 174.49C48.64 173.31 50.79 171.62 50.79 169.39C50.79 167.97 50.97 166.58 51.59 165.6C52.17 164.69 53.21 164.1 54.99 164.14C58.21 164.2 60.31 161.66 62.14 159.43C62.72 158.73 63.27 158.06 63.8 157.55C63.66 158.04 63.46 158.69 63.26 159.36C62.65 161.36 61.98 163.56 62.49 164.63C62.99 165.68 63.83 166.35 64.87 166.69C65.91 167.03 67.15 167.03 68.42 166.72C68.61 166.67 68.29 166.92 67.99 167.14C65.89 168.24 63.99 169.65 62.33 171.31C61.59 172.05 60.91 172.83 60.27 173.66C60.02 172.22 59.82 170.7 59.68 169.08C59.63 168.5 59.12 168.08 58.54 168.13C57.96 168.18 57.54 168.69 57.59 169.27C57.71 170.56 57.86 171.79 58.04 172.97L58.03 172.96ZM70.27 166.09C70.76 165.9 71.26 165.72 71.76 165.56C72.17 164.47 72.5 163.34 72.72 162.17C72.96 160.91 73.09 159.59 73.09 158.25C73.09 152.57 70.79 147.43 67.07 143.71C63.35 139.99 58.21 137.69 52.53 137.69C46.85 137.69 41.71 139.99 37.99 143.71C34.27 147.43 31.97 152.57 31.97 158.25C31.97 159.66 32.11 161.02 32.37 162.33C32.62 163.59 32.99 164.8 33.46 165.96C35.1 166.92 36.6 168.09 37.94 169.43C39.89 171.39 41.49 173.7 42.61 176.27C44.06 177.07 45.62 177.7 47.27 178.14C48.95 178.58 50.71 178.82 52.54 178.82C53.48 178.82 54.4 178.76 55.28 178.64C56.05 178.54 56.81 178.39 57.57 178.2C57.89 177.5 58.24 176.81 58.63 176.15C58.54 175.75 58.46 175.34 58.38 174.93C57.91 174.53 56.76 174.1 54.11 175.1C51.64 176.02 49.84 176.43 48.47 176.54C47.02 176.65 46.03 176.44 45.26 176.14C44.52 175.85 44.35 175.38 44.6 174.73C44.79 174.24 45.38 173.78 46.12 173.19C47.35 172.22 49.11 170.83 49.11 169.4C49.11 167.7 49.34 166.01 50.18 164.7C51.07 163.32 52.56 162.42 55.02 162.46C57.43 162.5 59.25 160.29 60.85 158.36C61.76 157.26 62.61 156.23 63.53 155.61L63.58 155.58C64.44 155.03 65.02 155.13 65.42 155.73C65.45 155.78 65.48 155.83 65.5 155.88C65.83 156.66 65.37 158.19 64.86 159.85C64.34 161.55 63.77 163.42 64 163.91C64.29 164.51 64.78 164.89 65.39 165.09C66.14 165.33 67.06 165.32 68.03 165.09C70.12 164.59 70.5 165.23 70.28 166.1L70.27 166.09ZM62.69 196.95C65.14 196.46 67.84 196.2 70.8 196.3C66.75 193.54 61.86 188.33 59.21 178.62C57.9 181.42 57.16 184.54 57.16 187.83C57.16 191.12 57.86 194.09 59.11 196.84C60.34 196.9 61.54 196.94 62.68 196.95H62.69ZM65.68 199.03C67.79 199 69.54 198.9 70.74 198.82C70.83 198.82 70.91 198.82 71 198.82C80.44 199.19 86.55 201.91 91.9 205.14C88.27 207.88 83.75 209.5 78.85 209.5C72.86 209.5 67.44 207.07 63.52 203.15C62.55 202.18 61.66 201.11 60.89 199.97C62.37 199.55 63.96 199.22 65.68 199.02V199.03ZM100.86 210.99C98.31 211.11 95.38 211.79 92.43 213.62C89.71 212.51 86.73 211.9 83.61 211.9C77.16 211.9 71.32 214.52 67.09 218.74C62.86 222.97 60.25 228.81 60.25 235.26C60.25 241.71 62.87 247.55 67.09 251.78C71.32 256.01 77.16 258.62 83.61 258.62C90.06 258.62 95.9 256 100.13 251.78C101.63 250.28 102.93 248.57 103.98 246.71C103.38 248.83 103.06 251.08 103.06 253.39C103.06 260.17 105.81 266.31 110.25 270.75C114.69 275.19 120.84 277.94 127.62 277.94C134.4 277.94 140.54 275.19 144.98 270.75C149.43 266.31 152.17 260.17 152.17 253.39C152.17 246.61 149.42 240.47 144.98 236.03C141.07 232.12 135.86 229.53 130.05 228.96C129.95 227.55 129.7 226.3 129.38 225.2C130.33 224.96 131.26 224.67 132.17 224.33C132.92 224.79 133.65 225.27 134.38 225.8L135.99 226.97C142.08 231.41 144.72 233.33 149.87 232.57C150.56 232.47 151.04 231.83 150.94 231.14C150.84 230.45 150.2 229.97 149.51 230.07C145.37 230.68 142.98 228.94 137.48 224.93C136.47 224.19 136.29 224.06 135.87 223.75C135.55 223.52 135.23 223.3 134.92 223.08C137.1 221.93 139.1 220.45 140.83 218.72C145.27 214.28 148.02 208.14 148.02 201.36C148.02 194.58 145.27 188.44 140.83 184C136.39 179.56 130.25 176.81 123.47 176.81C116.69 176.81 110.55 179.56 106.11 184C104.6 185.51 103.28 187.22 102.21 189.08C102.23 188.67 102.24 188.25 102.24 187.83C102.24 181.38 99.62 175.54 95.4 171.31C91.17 167.08 85.33 164.47 78.88 164.47C77.12 164.47 75.41 164.66 73.76 165.03C74.02 164.2 74.24 163.35 74.41 162.49C74.68 161.11 74.82 159.69 74.82 158.25C74.82 152.1 72.33 146.54 68.3 142.52C64.27 138.49 58.71 136 52.57 136C46.43 136 40.86 138.49 36.84 142.52C32.82 146.55 30.32 152.11 30.32 158.25C30.32 159.75 30.47 161.22 30.76 162.66C30.91 163.4 31.09 164.13 31.32 164.84C28.55 163.6 25.48 162.91 22.25 162.91C16.11 162.91 10.54 165.4 6.52 169.43C2.49 173.46 0 179.02 0 185.16C0 191.3 2.46 196.79 6.43 200.81C10 204.42 14.79 206.81 20.14 207.31C16.68 211.23 14.57 216.39 14.57 222.03C14.57 228.17 17.06 233.74 21.09 237.76C25.12 241.79 30.68 244.28 36.82 244.28C42.96 244.28 48.53 241.79 52.55 237.76C56.58 233.73 59.07 228.17 59.07 222.03C59.07 215.89 56.58 210.32 52.55 206.3C52.1 205.85 51.62 205.41 51.13 205C53.22 203.34 55.92 201.7 59.26 200.52C60.16 201.91 61.2 203.2 62.37 204.36C66.6 208.59 72.44 211.2 78.89 211.2C84.4 211.2 89.47 209.29 93.46 206.1C94.47 206.74 95.46 207.39 96.45 208.05C97.9 209 99.34 209.96 100.84 210.87L100.89 210.99H100.86ZM94.81 214.75C97.34 213.48 99.79 213.08 101.88 213.09C103.01 215.17 104.44 217.07 106.1 218.73C110.54 223.17 116.68 225.92 123.46 225.92C124.78 225.92 126.08 225.82 127.34 225.61C127.63 226.55 127.85 227.63 127.96 228.84C127.85 228.84 127.74 228.84 127.62 228.84C120.84 228.84 114.7 231.59 110.25 236.03C108.64 237.64 107.25 239.48 106.13 241.48C106.68 239.5 106.97 237.41 106.97 235.25C106.97 228.8 104.35 222.96 100.12 218.73C98.55 217.16 96.76 215.81 94.79 214.74L94.81 214.75ZM103.9 213.23C104.6 213.32 105.23 213.45 105.77 213.58C106.46 213.9 107.16 214.22 107.89 214.51C111.99 216.17 115.56 217.44 118.73 218.57C120.76 219.29 122.63 219.96 124.39 220.64C124.99 221.21 125.95 222.31 126.73 224.02C125.66 224.17 124.57 224.25 123.46 224.25C117.14 224.25 111.42 221.69 107.29 217.55C106 216.26 104.86 214.81 103.9 213.24V213.23ZM128.81 223.61C128.6 223.1 128.37 222.63 128.13 222.2C128.84 222.53 129.53 222.87 130.21 223.22C129.75 223.36 129.28 223.49 128.81 223.6V223.61ZM99.58 207.11C98.99 206.72 98.4 206.33 97.8 205.94C97 205.41 96.19 204.88 95.38 204.36C96.75 202.99 97.96 201.45 98.95 199.77C98.92 200.3 98.9 200.83 98.9 201.37C98.9 203.35 99.13 205.27 99.58 207.11V207.11Z" fill="#FFD7D1"/>
<path fill-rule="evenodd" clip-rule="evenodd" d="M117.89 222.16C117.77 222.4 117.19 222.42 116.89 222.37C115.92 222.21 113.33 220.13 112.5 219.39L110.57 217.64C109.42 216.49 108.15 215.03 107.2 213.7C105.94 211.94 104.66 209.53 103.96 207.11C103.64 206.01 103.22 204.25 103.22 202.95C103.22 201.8 103.12 200.57 103.26 199.4C103.28 199.23 103.3 199.05 103.36 198.87C103.42 198.67 103.45 198.6 103.59 198.53C103.81 198.83 103.9 202.2 103.96 202.92C104.08 204.34 104.39 205.6 104.76 206.84C106.03 211.16 109.28 215.37 112.38 218.19L113.35 219.06C113.49 219.17 113.53 219.18 113.67 219.31C114.22 219.83 115.62 220.94 116.26 221.44C117.19 222.17 117.56 221.83 117.9 222.14L117.89 222.16Z" fill="#FFD7D1"/>
<path fill-rule="evenodd" clip-rule="evenodd" d="M128.93 273.35H126.79C126.79 273.35 125.29 273.14 125.02 273.08C124.26 272.89 122 272.02 121.36 271.57C121.15 271.42 120.97 271.3 120.96 271.01C121.37 271.06 123.69 271.9 124.34 272.1C127.98 273.2 132 272.27 135.25 270.64C135.77 270.38 136.25 270.14 136.7 269.84C137.37 269.4 138.08 268.95 138.69 268.43C139.56 267.69 139.57 267.72 140.42 266.88C141.64 265.66 142.42 264.56 143.3 263.09C143.48 262.78 143.9 261.86 144.21 261.9C144.4 262.31 143.54 263.95 143.32 264.33C142.41 265.92 141.65 266.8 140.35 268.09C138.71 269.71 136.42 271.2 134.28 272.08C133.16 272.54 131.63 273.01 130.39 273.19C130.22 273.22 128.97 273.35 128.94 273.37L128.93 273.35Z" fill="#FFD7D1"/>
<path fill-rule="evenodd" clip-rule="evenodd" d="M53.09 222.57C53.09 222.36 53.09 222.11 53.2 221.94C53.94 222.05 54.09 225.01 54.09 225.67C54.09 227.74 53.36 229.79 52.48 231.57C52.28 231.98 52.04 232.36 51.84 232.71C51.39 233.49 50.85 234.1 50.37 234.75C50.15 235.05 49.81 235.37 49.54 235.64C46.91 238.29 43.72 239.8 39.68 239.8C39.37 239.8 38.65 239.84 38.46 239.58C38.54 239.48 38.39 239.58 38.6 239.47C39.07 239.21 42.15 239.07 44.25 238.22C47.39 236.95 50 234.34 51.59 231.41C52.03 230.6 52.39 229.79 52.69 228.94C53.01 228.01 53.34 226.78 53.34 225.78L53.1 222.56L53.09 222.57Z" fill="#FFD7D1"/>
<path fill-rule="evenodd" clip-rule="evenodd" d="M99.3796 242.34C99.5496 241.89 99.6996 241.47 99.8896 241.01C99.9696 240.8 100.05 240.58 100.15 240.35C100.23 240.17 100.32 239.9 100.48 239.78C100.93 240.17 100.22 242.09 100.05 242.61C99.2996 244.93 97.4896 247.48 95.7996 249.17C95.0296 249.94 94.7496 250.23 93.8896 250.89C91.5496 252.69 89.0996 253.83 86.0396 253.83C85.5996 253.83 84.5496 253.9 84.3896 253.38C84.8896 253.23 86.9696 253.09 87.7096 252.98C89.4096 252.73 91.4696 251.54 92.8096 250.6C93.0096 250.46 93.1297 250.38 93.3297 250.2C93.7797 249.81 94.3596 249.37 94.8096 248.91C95.5596 248.16 96.7597 246.87 97.3997 245.92C98.2997 244.56 98.7296 244.02 99.3796 242.32V242.34Z" fill="#FFD7D1"/>
<path fill-rule="evenodd" clip-rule="evenodd" d="M88.8699 203.23L88.8199 203.49C88.6799 203.7 88.2399 203.96 88.0399 204.09C87.6699 204.32 87.2899 204.51 86.8799 204.72C82.6999 206.81 76.3799 207.67 71.7899 206.87C70.2699 206.6 69.1399 206.2 67.9799 205.32C67.8499 205.22 67.5799 205.01 67.4699 204.91C67.3299 204.78 67.1099 204.54 67.2299 204.34C67.4299 204.29 68.5199 204.95 68.7799 205.1C69.3599 205.43 69.8499 205.6 70.5599 205.8C74.9799 207.05 81.8899 205.96 85.8399 204.38C86.3499 204.17 88.4499 203.13 88.8599 203.24L88.8699 203.23Z" fill="#FFD7D1"/>
<path fill-rule="evenodd" clip-rule="evenodd" d="M48.0997 172.96C47.5497 173.24 46.7197 173.15 46.0197 173.15C43.3697 173.15 40.3597 171.88 38.5697 170.08C38.3397 169.85 38.1597 169.67 37.9397 169.45C36.8497 168.32 34.3597 164.4 34.6597 163.53C35.0797 163.55 36.5497 166.21 36.9797 166.85C37.1797 167.15 37.3697 167.41 37.5797 167.69C37.6897 167.84 37.7697 167.93 37.8897 168.07C39.3597 169.88 40.9797 171.13 43.3797 171.9C44.7697 172.35 45.6797 172.36 47.0197 172.57C47.3697 172.62 47.9597 172.62 48.1097 172.95L48.0997 172.96Z" fill="#FFD7D1"/>
<path fill-rule="evenodd" clip-rule="evenodd" d="M12.6001 198.81C12.0801 198.89 11.0201 198.12 10.7201 197.89C10.1701 197.47 9.67012 197.06 9.22012 196.57C8.24012 195.47 7.57012 194.6 6.81012 193.34C5.83012 191.7 4.80012 189.28 4.40012 187.3C4.32012 186.89 4.25012 186.5 4.21012 186.11C4.19012 185.92 4.14012 185.37 4.18012 185.17C4.24012 184.94 4.22012 185 4.37012 184.94C4.75012 185.2 4.97012 186.52 5.09012 187C5.27012 187.72 5.51012 188.41 5.76012 189.09C6.70012 191.62 7.68012 193.24 9.22012 195.29L10.1801 196.4C10.3101 196.53 10.3901 196.61 10.5301 196.75L12.0001 198.04C12.2201 198.22 12.6401 198.42 12.6001 198.81V198.81Z" fill="#FFD7D1"/>
<path fill-rule="evenodd" clip-rule="evenodd" d="M135.71 218.39C135.6 218.01 136.56 217.15 136.99 216.63C137.13 216.47 137.18 216.47 137.34 216.35C137.6 216.14 138.29 215.36 138.62 215.1C138.93 214.86 139.67 214.15 139.89 213.84L140.47 213.15C142.87 210.23 142.57 206.38 143.31 205.87C143.46 206.03 143.44 206.12 143.46 206.37L143.33 208.07C143.15 209.5 142.85 210.8 142.23 212.09C141.41 213.8 139.99 214.98 138.63 216.19C138.32 216.46 136.17 218.48 135.72 218.38L135.71 218.39Z" fill="#FFD7D1"/>
<path fill-rule="evenodd" clip-rule="evenodd" d="M27.2097 200.95C25.2497 200.95 24.2897 200.95 22.3197 200.36C22.1297 200.3 21.9997 200.27 21.8197 200.18C21.7197 200.13 21.4297 199.98 21.5697 199.83C21.9097 199.66 23.2797 199.89 23.7197 199.95C26.7897 200.41 29.7297 199.95 32.5297 198.67C32.8897 198.51 34.1697 197.93 34.4197 198.06C35.0097 198.37 31.8897 199.8 31.4297 199.99C30.3697 200.42 28.5397 200.96 27.2097 200.96V200.95Z" fill="#FFD7D1"/>
<path fill-rule="evenodd" clip-rule="evenodd" d="M90.4297 202.59C90.3397 201.86 92.3697 200.06 93.3397 198.12C93.8897 197.02 94.6597 194.29 95.1397 193.42C95.2697 193.18 95.3596 192.96 95.6196 192.98C95.8296 193.73 94.5197 197.8 94.0197 198.74C93.6597 199.42 93.4597 199.61 93.0897 200.11C92.6097 200.75 91.0497 202.56 90.4397 202.6L90.4297 202.59Z" fill="#FFD7D1"/>
<path fill-rule="evenodd" clip-rule="evenodd" d="M37.7402 178.69C38.3602 178.58 38.6502 179.88 38.7802 180.34C38.9802 181.07 39.1202 181.88 39.2102 182.66C39.3002 183.4 39.6702 187.33 39.3102 187.74C38.7502 188.41 38.6602 186.16 38.6302 185.88C38.4902 184.33 38.3502 182.47 38.0802 180.98C37.9702 180.35 37.6102 179.23 37.7302 178.68L37.7402 178.69Z" fill="#FFD7D1"/>
<path fill-rule="evenodd" clip-rule="evenodd" d="M29.28 193.46C28.11 193.46 27.8 193.44 26.55 192.98C26.19 192.85 25.59 192.61 25.29 192.4C25.18 192.32 25 192.15 25.15 192.02C25.44 191.76 27.53 192.6 28.59 192.6C30.83 192.6 31.92 191.74 33.13 191.74C33.46 191.74 33.37 191.96 33.22 192.1C33.07 192.23 32.94 192.29 32.75 192.38C31.91 192.8 30.17 193.45 29.28 193.45V193.46Z" fill="#FFD7D1"/>
<path fill-rule="evenodd" clip-rule="evenodd" d="M132.84 195.93C132.84 195.93 132.87 195.94 132.87 195.96L132.97 196.06C133.47 196.54 133.78 196.75 134.25 197.31C134.47 197.58 134.51 197.63 134.36 197.94C133.81 197.99 133.2 197.42 132.81 197.08C132.59 196.89 132.4 196.74 132.16 196.53C131.95 196.34 131.75 196.13 131.55 195.93C131.36 195.74 129.03 194.35 129.02 193.63C129.57 193.41 131.11 194.82 131.79 195C132.35 195.15 132.56 194.96 133.51 195.4C134.12 195.68 134.36 196.14 132.85 195.91L132.84 195.93Z" fill="#FFD7D1"/>
<path fill-rule="evenodd" clip-rule="evenodd" d="M74.3899 182.25C74.0799 183.13 71.4099 182.28 70.0799 183.49C69.7999 183.75 69.4399 184.35 68.9599 184.25C68.7599 183.47 69.8299 182.41 70.8199 182.11C71.3799 181.94 74.0699 181.69 74.3799 182.25H74.3899Z" fill="#FFD7D1"/>
<path fill-rule="evenodd" clip-rule="evenodd" d="M83.9602 182.39C83.9602 181.89 84.3302 181.89 85.1102 181.79C85.6302 181.72 86.1202 181.67 86.6702 181.62C87.1902 181.58 89.6302 181.32 89.7502 181.76C89.8802 182.21 88.9102 182.26 88.6102 182.3C88.1002 182.37 87.5602 182.42 87.0602 182.47C86.3002 182.53 84.4402 182.72 83.9502 182.39H83.9602Z" fill="#FFD7D1"/>
<path fill-rule="evenodd" clip-rule="evenodd" d="M75.96 232.23C75.93 232.63 74.83 232.52 74.41 232.56C73.3 232.65 72.4 232.81 71.49 233.44C70.4 234.21 70.2 233.68 71 232.89C71.16 232.73 71.34 232.6 71.51 232.49C71.88 232.24 72.33 232.02 72.82 231.9C73.37 231.76 76.01 231.55 75.96 232.23V232.23Z" fill="#FFD7D1"/>
<path fill-rule="evenodd" clip-rule="evenodd" d="M34.9897 188.06C34.0597 188.23 33.9997 185.3 32.6597 184.62C32.3997 184.49 31.2397 184.25 31.6197 183.89C31.9197 183.6 33.4697 183.63 34.2297 185.01C34.5097 185.51 35.1797 187.42 34.9997 188.06H34.9897Z" fill="#FFD7D1"/>
<path fill-rule="evenodd" clip-rule="evenodd" d="M86.4203 223.74C86.1703 223.34 88.3403 222.2 89.0203 221.63C89.4103 221.3 90.1803 220.49 90.7003 220.6C90.9003 221.87 86.7903 224.34 86.4203 223.74Z" fill="#FFD7D1"/>
<path fill-rule="evenodd" clip-rule="evenodd" d="M38.4803 212.74C38.4903 213.38 36.9503 213.56 36.0303 213.97C35.5403 214.19 35.2603 214.42 34.9303 214.71C34.7603 214.85 33.9503 215.57 33.7603 215.24C33.6203 215 34.1103 214.5 34.2003 214.38C34.5003 213.98 34.9703 213.54 35.4103 213.29C35.9203 213.01 37.8603 212.52 38.4803 212.75V212.74Z" fill="#FFD7D1"/>
<path fill-rule="evenodd" clip-rule="evenodd" d="M119.31 186.94C118.79 187.05 118.66 186.57 118.45 186.15C118.14 185.54 116.73 182.67 117.14 182.29C117.6 181.87 118.33 183.81 118.52 184.23C118.76 184.75 119.5 186.37 119.31 186.94Z" fill="#FFD7D1"/>
<path fill-rule="evenodd" clip-rule="evenodd" d="M120.34 244.56C119.37 244.85 118.21 244.07 117.3 244.45C116.94 244.6 116.55 244.89 116.19 245.06C115.3 245.5 114.78 245.05 116.57 243.88C117.51 243.27 118.2 243.41 119.31 243.81C119.52 243.89 119.74 243.97 119.93 244.06C120.21 244.2 120.32 244.22 120.34 244.55V244.56Z" fill="#FFD7D1"/>
<path fill-rule="evenodd" clip-rule="evenodd" d="M68.6097 161.26C68.6097 162.85 67.9397 163.74 66.9797 164.8C66.7997 165 66.3797 165.58 66.0997 165.26C65.8797 164.99 66.4097 164.31 66.5397 164.13C67.5697 162.61 67.4097 162.87 67.9897 161.27C68.0897 161 68.1097 160.86 68.4397 160.86C68.5497 160.98 68.6097 161.06 68.6097 161.27V161.26Z" fill="#FFD7D1"/>
<path fill-rule="evenodd" clip-rule="evenodd" d="M58.4199 175.02C58.9499 175.36 58.3299 175.67 57.9799 175.86C57.6099 176.06 57.2299 176.22 56.8299 176.38C56.5199 176.51 54.6599 177.35 54.3899 177.1C53.7299 176.47 55.1199 176.13 55.9899 175.77C56.3799 175.61 58.1099 174.82 58.4199 175.01V175.02Z" fill="#FFD7D1"/>
<path fill-rule="evenodd" clip-rule="evenodd" d="M88.4501 190.88C88.4501 191.6 86.1601 190.21 85.4301 189.48C85.2401 189.29 83.8601 187.79 84.5501 187.79C84.8201 187.79 85.3901 188.29 85.5901 188.46L86.5501 189.29C87.1001 189.75 88.4601 190.49 88.4601 190.88H88.4501Z" fill="#FFD7D1"/>
<path fill-rule="evenodd" clip-rule="evenodd" d="M93.1201 231.37C92.6201 231.51 92.0701 231.07 91.4501 231.07C90.2201 231.07 89.2802 231.78 88.4402 231.44C88.3502 230.92 88.8502 230.85 89.5702 230.57C91.8202 229.71 93.3901 230.66 93.1301 231.37H93.1201Z" fill="#FFD7D1"/>
<path fill-rule="evenodd" clip-rule="evenodd" d="M126.09 189.19C126.04 188.7 126.86 187.91 127.19 187.58C127.63 187.13 127.19 187.48 127.91 186.86C128.93 185.96 128.61 186.39 129.53 186.12C129.73 186.06 130.16 185.84 130.34 186.03C130.64 186.34 129.78 186.85 129.49 186.95C128.59 187.27 128.4 187.44 127.76 188.04C127.53 188.25 127.46 188.32 127.24 188.49C127 188.68 126.51 189.24 126.08 189.18L126.09 189.19Z" fill="#FFD7D1"/>
<path fill-rule="evenodd" clip-rule="evenodd" d="M135.73 243.52C135.22 243.52 134.57 243.44 134.07 243.38C133.68 243.33 132.8 243.34 132.8 242.93C132.8 242.21 136.57 242.73 136.76 242.76C137.97 242.91 137.66 243.53 136.53 243.53H135.72L135.73 243.52Z" fill="#FFD7D1"/>
<path fill-rule="evenodd" clip-rule="evenodd" d="M48.6904 160.47C48.9304 160.66 49.0804 161.07 49.2804 161.49C49.5404 162.04 50.6504 163.78 50.6604 164.13C50.6604 164.44 50.4504 164.54 50.1904 164.43C49.9304 164.32 49.0304 162.9 48.8404 162.55C48.6104 162.13 48.1904 161.23 48.2404 160.73C48.2604 160.46 48.4404 160.27 48.6904 160.46V160.47Z" fill="#FFD7D1"/>
<path fill-rule="evenodd" clip-rule="evenodd" d="M111.29 196.88C110.96 196.88 110.37 196.92 110.29 196.59C110.17 196.12 111.39 196.06 112.03 195.93C112.59 195.82 113.67 195.6 114.22 195.6C114.47 195.6 115.66 195.97 113.63 196.5C113 196.66 111.98 196.89 111.29 196.89V196.88Z" fill="#FFD7D1"/>
<path fill-rule="evenodd" clip-rule="evenodd" d="M59.1002 157.06H59.4002C59.7402 157.47 59.8902 158.57 59.9802 159.2C60.0402 159.59 60.3702 161.34 59.9502 161.52C59.4102 161.75 59.2302 160.05 59.1502 159.57C59.0502 159 58.8002 157.45 59.1102 157.07L59.1002 157.06Z" fill="#FFD7D1"/>
<path fill-rule="evenodd" clip-rule="evenodd" d="M128.14 235.16C127.97 234.79 128.62 234.37 128.8 234.21L130.16 233.04C131.25 231.99 132.77 232.79 131.93 233.14C131.68 233.24 131.48 233.21 131.23 233.3C131.08 233.35 128.84 235.47 128.15 235.16H128.14Z" fill="#FFD7D1"/>
<path fill-rule="evenodd" clip-rule="evenodd" d="M40.75 219.64C40.75 218.57 41.25 218.2 41.25 217.34C41.25 216.71 40.83 216.08 41.08 215.5C41.57 215.45 41.71 215.93 41.92 216.5C42.09 216.97 42.23 217.47 42.06 217.98C42 218.14 41.32 219.7 41.17 219.86C40.94 220.11 40.75 219.95 40.75 219.64Z" fill="#FFD7D1"/>
<path fill-rule="evenodd" clip-rule="evenodd" d="M114.97 190.36C114.4 190.63 113.05 190.25 112.37 190.09C112.02 190.01 111.72 189.9 111.37 189.82C111.03 189.74 110.57 189.77 110.5 189.38C110.53 189.06 111.17 188.99 111.52 188.99C111.9 188.99 112.98 189.39 113.39 189.52L114.71 189.98C114.91 190.08 114.98 190.11 114.97 190.35V190.36Z" fill="#FFD7D1"/>
<path fill-rule="evenodd" clip-rule="evenodd" d="M128.42 246.27C128.16 248.51 129 248.96 128.55 249.43C127.91 249.43 127.49 248.08 127.49 247.41C127.49 246.92 127.64 245.12 128.2 245.39C128.48 245.52 128.42 245.93 128.42 246.27Z" fill="#FFD7D1"/>
<path fill-rule="evenodd" clip-rule="evenodd" d="M124.42 199.72C124.42 200.84 124 202.45 123.56 203.24C122.65 203.39 123.06 202.39 123.31 201.28C123.72 199.42 123.69 199.51 124.42 199.71V199.72Z" fill="#FFD7D1"/>
<path fill-rule="evenodd" clip-rule="evenodd" d="M129.43 199.88C129.73 199.65 130.05 199.83 130.41 200.06C130.81 200.32 132.83 201.56 132.64 202.06C132.39 202.74 130.32 201.03 129.96 200.74C129.71 200.54 129.37 200.31 129.43 199.88V199.88Z" fill="#FFD7D1"/>
<path fill-rule="evenodd" clip-rule="evenodd" d="M119.23 234.46C119.69 234.46 119.9 234.75 120.11 234.97C120.32 235.2 120.52 235.46 120.72 235.74C121.88 237.36 120.9 236.95 120.61 236.71C120.14 236.32 119.72 235.77 119.27 235.35C119.01 235.1 118.37 235.32 118.31 234.93C118.26 234.58 118.88 234.46 119.22 234.46H119.23Z" fill="#FFD7D1"/>
<path fill-rule="evenodd" clip-rule="evenodd" d="M3.75 182.38V181.01C3.92 180.66 3.83 179.42 4.42 179.59C4.93 179.81 4.5 182.69 4.35 182.85C3.93 183.27 3.75 182.38 3.75 182.38Z" fill="#FFD7D1"/>
<path fill-rule="evenodd" clip-rule="evenodd" d="M67.2505 203.09C66.7405 203.35 65.9705 202.9 65.5105 202.68C64.7805 202.33 64.2305 202.15 64.3505 201.55C64.9105 201.39 65.5805 201.73 66.0805 201.99C66.8005 202.35 67.3905 202.51 67.2505 203.09V203.09Z" fill="#FFD7D1"/>
<path fill-rule="evenodd" clip-rule="evenodd" d="M145.97 257.09V257.72C145.83 258.01 145.77 258.99 145.15 259.77C144.89 260.11 144.21 260.15 144.71 258.88C144.82 258.59 144.88 258.34 144.98 258.06C145.13 257.6 145.37 256.6 145.97 257.1V257.09Z" fill="#FFD7D1"/>
<path fill-rule="evenodd" clip-rule="evenodd" d="M100.34 237.81C99.9804 237.36 100.05 236.82 100.05 236.14C100.05 235.69 100 234.64 100.48 234.65C100.95 234.65 100.91 235.75 100.91 236.2C100.91 236.84 100.95 237.38 100.62 237.81H100.35H100.34Z" fill="#FFD7D1"/>
<path fill-rule="evenodd" clip-rule="evenodd" d="M37.3701 207.73C36.9501 207.98 36.0401 207.61 35.6001 207.45C34.7901 207.15 33.9001 207.06 34.3001 206.61C34.4601 206.43 34.9701 206.4 35.2601 206.42C35.6201 206.45 36.4701 206.95 36.8401 207.14C37.1101 207.28 37.3701 207.39 37.3701 207.74V207.73Z" fill="#FFD7D1"/>
<path fill-rule="evenodd" clip-rule="evenodd" d="M34.75 161.2C34.75 161.49 34.81 162.1 34.31 161.97C33.84 161.85 33.71 159.94 33.71 159.47C33.71 159.3 33.8 159.16 33.86 159.06H34.23C34.56 159.5 34.74 160.49 34.74 161.19L34.75 161.2Z" fill="#FFD7D1"/>
<path fill-rule="evenodd" clip-rule="evenodd" d="M34.4005 239.24C33.8805 239.24 33.2705 239.12 32.9105 238.9C32.8705 238.39 32.9905 238.35 33.4805 238.35C33.9005 238.35 36.0305 238.27 35.8105 238.98C35.6905 239.35 34.9305 239.25 34.4005 239.25V239.24Z" fill="#FFD7D1"/>
<path fill-rule="evenodd" clip-rule="evenodd" d="M74.57 221.47C75.18 221.34 75.62 221.87 75.8 222.35C75.91 222.64 76.48 223.79 76.17 223.98C75.74 224.24 74.96 222.55 74.74 222.21C74.54 221.9 74.5 221.8 74.57 221.48V221.47Z" fill="#FFD7D1"/>
<path fill-rule="evenodd" clip-rule="evenodd" d="M81.8603 237.64C81.8603 237.81 81.9703 237.88 82.0003 238.01C82.1603 238.65 81.0303 238.46 81.0303 237.64C81.0303 237.04 81.1503 236.92 81.3803 236.37C81.5503 235.97 81.6303 235.71 82.0903 235.79C82.1903 236.03 82.1703 236.05 82.1703 236.32C82.1703 236.53 82.0403 236.96 81.9703 237.2C81.9403 237.32 81.8503 237.55 81.8603 237.65V237.64Z" fill="#FFD7D1"/>
<path fill-rule="evenodd" clip-rule="evenodd" d="M133.98 218.31C133.98 218.75 131.59 220.06 131.65 219.12C131.67 218.75 132.4 218.43 132.71 218.28C132.97 218.15 133.98 217.64 133.98 218.31Z" fill="#FFD7D1"/>
<path fill-rule="evenodd" clip-rule="evenodd" d="M315.115 107.057C329.624 111.025 344.372 108.737 356.487 101.833C368.602 94.9285 378.073 83.395 382.054 68.8857C386.022 54.3763 383.747 39.6288 376.829 27.5134C369.925 15.398 358.392 5.91469 343.882 1.94676C329.373 -2.02117 314.625 0.253783 302.51 7.15797C290.395 14.0622 280.925 25.5956 276.943 40.105C272.975 54.6144 275.264 69.3618 282.168 81.4772C289.072 93.5926 300.605 103.076 315.115 107.044V107.057ZM308.158 18.7575L325.035 48.3583C323.897 49.1783 322.985 50.329 322.429 51.7046L289.575 42.7106C292.656 32.2882 299.468 23.9423 308.158 18.7575V18.7575ZM326.49 47.525L309.613 17.9243C318.501 13.0966 329.148 11.4698 339.689 14.1283L330.696 46.9827C329.227 46.7446 327.786 46.9563 326.49 47.5118V47.525ZM289.138 44.3242L322.006 53.3182C321.768 54.7863 321.979 56.228 322.535 57.5242L292.934 74.4011C288.093 65.5129 286.48 54.8657 289.138 44.3242V44.3242ZM293.767 75.856L323.368 58.9791C324.188 60.1166 325.339 61.0292 326.714 61.5847L317.72 94.4391C307.298 91.3574 298.952 84.5458 293.767 75.856V75.856ZM319.334 94.8888L328.328 62.0212C329.796 62.2593 331.238 62.0476 332.534 61.4921L349.411 91.0928C340.523 95.9337 329.875 97.5473 319.334 94.8888ZM350.866 90.2596L333.989 60.6588C335.126 59.8388 336.039 58.6881 336.581 57.3125L369.449 66.3065C366.367 76.729 359.556 85.0748 350.866 90.2596V90.2596ZM369.885 64.6929L337.018 55.6989C337.256 54.2308 337.044 52.7891 336.489 51.4929L366.089 34.616C370.917 43.5042 372.544 54.1514 369.885 64.6929ZM365.269 33.1611L335.669 50.038C334.849 48.9005 333.698 47.9879 332.322 47.4456L341.316 14.578C351.739 17.6465 360.085 24.4714 365.269 33.1611ZM332.177 59.1775C330.987 59.852 329.532 60.0769 328.103 59.6933C326.675 59.2965 325.537 58.3707 324.849 57.1671C324.162 55.9767 323.937 54.5218 324.334 53.0934C324.73 51.6649 325.656 50.5274 326.86 49.8396C328.05 49.1651 329.505 48.9402 330.934 49.3238C332.362 49.7206 333.5 50.6465 334.187 51.8501C334.862 53.0404 335.1 54.4953 334.703 55.9238C334.306 57.3522 333.38 58.4897 332.177 59.1775ZM318.078 96.2776C306.544 93.1165 297.378 85.5906 291.889 75.9618C286.4 66.333 284.588 54.6144 287.736 43.0809C290.897 31.5475 298.423 22.3816 308.052 16.8926C317.681 11.4036 329.399 9.59164 340.933 12.7395C352.466 15.9006 361.632 23.4265 367.121 33.0553C372.61 42.6841 374.422 54.4028 371.274 65.9362C368.113 77.4696 360.587 86.6355 350.958 92.1245C341.33 97.6135 329.611 99.4255 318.078 96.2776ZM316.398 102.428C303.171 98.8038 292.656 90.1538 286.361 79.1097C280.065 68.0656 277.975 54.6144 281.599 41.388C285.223 28.1615 293.86 17.6465 304.904 11.3507C315.948 5.05495 329.399 2.96521 342.626 6.58925C355.852 10.2133 366.367 18.8501 372.663 29.8942C378.959 40.9383 381.049 54.3895 377.424 67.6159C373.8 80.8424 365.164 91.3573 354.106 97.6531C343.062 103.949 329.611 106.039 316.385 102.415L316.398 102.428ZM353.022 95.7353C342.467 101.753 329.624 103.737 316.993 100.285C304.349 96.8199 294.31 88.5666 288.305 78.0251C282.287 67.4704 280.303 54.6276 283.755 41.9964C287.22 29.3651 295.474 19.313 306.015 13.3083C316.57 7.29023 329.413 5.30626 342.044 8.75836C354.688 12.2237 364.727 20.477 370.732 31.0184C376.75 41.5731 378.734 54.416 375.282 67.0472C371.816 79.6917 363.563 89.7305 353.022 95.7353ZM355.402 99.9016C343.79 106.528 329.637 108.724 315.723 104.914C301.809 101.105 290.752 92.0187 284.125 80.3927C277.499 68.7799 275.317 54.6276 279.126 40.7134C282.935 26.7992 292.021 15.7419 303.648 9.1155C315.26 2.48906 329.413 0.306663 343.327 4.11587C357.241 7.92508 368.298 17.0116 374.925 28.6377C381.551 40.2505 383.733 54.4027 379.924 68.3169C376.115 82.2311 367.029 93.2884 355.402 99.9149V99.9016Z" fill="#FFD7D1"/>
<path fill-rule="evenodd" clip-rule="evenodd" d="M326.119 50.6465C324.982 50.7258 319.969 47.935 318.937 47.4192C315.194 45.5411 307.523 41.1631 303.912 38.822C303.422 38.5046 301.465 37.3274 301.438 36.7719C301.663 36.6793 302.007 36.8381 302.259 36.9307C302.563 37.0497 302.854 37.1952 303.131 37.3407C303.7 37.6317 304.137 37.8697 304.719 38.2004C305.75 38.7824 306.729 39.3379 307.814 39.9463C309.864 41.097 311.98 42.3402 314.043 43.4645C316.173 44.6152 318.17 45.7527 320.286 46.9166C321.357 47.5118 322.349 48.0541 323.408 48.6493C323.937 48.9402 325.153 49.6413 325.643 50.0248C325.947 50.2629 326.145 50.329 326.106 50.6597L326.119 50.6465Z" fill="#FFD7D1"/>
<path fill-rule="evenodd" clip-rule="evenodd" d="M328.222 70.4065C328.58 70.9092 328.103 72.6021 327.905 73.4089C327.667 74.3877 327.482 75.5384 327.283 76.5568C326.529 80.3925 325.828 84.6911 325.736 88.6061C325.709 89.5187 325.736 90.4578 325.842 91.3572C325.868 91.5688 326.238 94.3199 325.485 93.4734C325.154 93.1031 324.929 91.6746 324.823 91.0265C324.691 90.1933 324.651 89.1616 324.665 88.3019C324.691 86.4105 324.836 84.4927 325.101 82.4822C325.366 80.4718 325.723 78.3027 326.199 76.2526C326.45 75.1945 326.768 74.057 326.992 73.0122C327.098 72.5096 327.64 70.4065 328.222 70.3933V70.4065Z" fill="#FFD7D1"/>
<path fill-rule="evenodd" clip-rule="evenodd" d="M327.693 47.829C327.164 47.6174 326.833 45.898 326.675 45.3292C326.423 44.443 326.252 43.4643 326 42.5781C325.749 41.692 325.498 40.7529 325.286 39.9064C324.744 37.6447 323.553 34.0735 322.945 31.8912C322.76 31.2431 321.305 26.6138 322.032 26.2435C322.35 26.0848 322.932 28.2936 323.038 28.6507L324.122 31.9176C324.77 33.8222 325.855 37.4463 326.304 39.2319C326.688 40.7397 328.183 46.6651 327.693 47.829V47.829Z" fill="#FFD7D1"/>
<path fill-rule="evenodd" clip-rule="evenodd" d="M313.66 56.479C314.07 56.4922 314.123 56.479 314.242 56.6774C313.792 57.2064 310.274 57.7223 309.321 57.9074C305.248 58.7143 303.052 59.1904 298.767 58.9788C297.722 58.9259 292.762 58.7142 292.074 58.1455C292.418 57.59 296.994 57.8942 297.788 57.9074C302.576 58.0265 304.348 57.6165 308.832 56.9551C309.917 56.7964 312.535 56.4261 313.673 56.479H313.66Z" fill="#FFD7D1"/>
<path fill-rule="evenodd" clip-rule="evenodd" d="M336.066 43.0674C335.841 42.9748 335.788 42.9483 335.827 42.3928C335.947 40.7131 338.949 30.0261 339.412 28.3596C339.623 27.5925 339.914 26.6931 340.153 25.8466C340.311 25.2646 340.642 23.8361 341.105 23.6245C341.396 23.7568 341.343 24.0875 341.303 24.5636C341.012 27.5131 338.618 35.6341 337.811 38.5307C337.52 39.5491 336.648 42.5383 336.079 43.0541L336.066 43.0674Z" fill="#FFD7D1"/>
<path fill-rule="evenodd" clip-rule="evenodd" d="M335.139 83.3287C334.822 83.2626 334.782 83.1436 334.69 82.9187C334.478 82.3632 334.425 81.8341 334.319 81.2654C333.777 78.3027 331.502 66.1873 331.873 65.354L332.018 65.0498C332.494 65.1027 332.56 65.6185 332.64 65.9624L334.174 73.6999C334.386 75.2871 335.88 82.2309 335.139 83.3287V83.3287Z" fill="#FFD7D1"/>
<path fill-rule="evenodd" clip-rule="evenodd" d="M344.041 37.5917C344.345 38.015 343.498 39.2847 343.26 39.6947C342.096 41.6522 340.774 43.2659 339.372 44.9853L336.621 48.1729C336.105 48.7548 334.147 51.2149 333.684 51.1356C332.653 50.9372 338.247 44.5091 338.565 44.1255C339.914 42.4855 341.329 40.7925 342.546 39.0731C342.758 38.7821 343.009 38.4647 343.221 38.2001C343.459 37.9224 343.697 37.5653 344.054 37.5785L344.041 37.5917Z" fill="#FFD7D1"/>
<path fill-rule="evenodd" clip-rule="evenodd" d="M322.588 54.4687C322.852 54.601 323.302 54.6671 323.474 54.8788C324.149 55.6723 320.736 54.9846 320.26 54.9052C317.615 54.4555 310.129 52.8551 308.092 52.0483C307.047 51.6383 306.597 51.1357 307.589 51.1621C308.224 51.1754 310.988 51.7838 311.755 51.9557L318.263 53.3842C319.017 53.5561 319.691 53.6752 320.432 53.8868C321.133 54.0852 321.979 54.1778 322.588 54.4687V54.4687Z" fill="#FFD7D1"/>
<path fill-rule="evenodd" clip-rule="evenodd" d="M350.231 38.3855C350.337 37.8961 351.329 37.2612 351.739 37.0364L356.567 34.2191C356.765 34.0869 356.792 34.0207 357.017 33.8885L362.823 29.6164C363.074 29.4577 363.418 29.1402 363.789 29.2196C363.934 30.0131 360.945 32.4732 360.204 33.0552C359.384 33.7033 358.551 34.3382 357.691 34.8805C357.374 35.0789 357.122 35.2244 356.818 35.3963L353.67 37.1422C353.445 37.2612 353.406 37.2348 353.194 37.3406C352.903 37.4729 352.546 37.6977 352.255 37.8432C351.819 38.0548 350.761 38.6235 350.245 38.3987L350.231 38.3855Z" fill="#FFD7D1"/>
<path fill-rule="evenodd" clip-rule="evenodd" d="M326.688 61.0952C326.397 62.603 323.725 66.8619 322.958 67.9994C322.178 69.1501 319.929 72.4567 318.938 73.528C318.514 73.9909 318.435 74.0306 318.144 73.9116C318.012 73.1974 319.519 71.1605 320.049 70.2743C320.71 69.1898 321.503 68.0787 322.218 66.9942L325.392 61.9284C325.63 61.5449 326.146 60.5661 326.622 60.619C326.728 60.7777 326.741 60.8439 326.701 61.0952H326.688Z" fill="#FFD7D1"/>
<path fill-rule="evenodd" clip-rule="evenodd" d="M348.182 48.7283C348.327 48.2786 348.552 48.2654 348.883 48.1464C349.187 48.0406 349.451 47.948 349.782 47.8554C353.049 47.0089 355.879 46.4666 359.146 45.726C359.913 45.554 362.413 44.853 363.088 45.1837C362.969 45.7921 362.043 46.0037 361.527 46.1624C360.204 46.5592 359.226 46.8767 357.85 47.1809L355.932 47.6306C354.451 48.0274 351.819 48.4374 350.179 48.7283C349.584 48.8342 348.684 49.0193 348.182 48.7151V48.7283Z" fill="#FFD7D1"/>
<path fill-rule="evenodd" clip-rule="evenodd" d="M306.241 71.7027C306.439 71.6233 306.532 71.5969 306.717 71.5043L310.116 69.8246C310.526 69.6526 310.936 69.3087 311.505 69.4542C311.412 70.1023 310.526 70.6049 310.09 70.8827C309.931 70.9885 309.812 71.0414 309.653 71.134L308.489 71.8746L303.225 74.3083C302.577 74.5596 302.128 74.6919 301.427 74.9696C300.937 75.1548 297.935 76.2923 297.67 75.8029C297.406 75.34 300.514 74.2025 300.937 74.0041C301.241 73.8586 301.519 73.766 301.837 73.6205L306.267 71.6895L306.241 71.7027Z" fill="#FFD7D1"/>
<path fill-rule="evenodd" clip-rule="evenodd" d="M320.076 44.2446C319.282 44.2181 317.576 42.6441 316.954 42.1018C315.512 40.8453 314.19 39.7608 312.748 38.4381L310.222 35.8458C308.952 34.3512 309.058 33.346 311.002 35.2374C312.034 36.2426 315.327 39.2317 316.504 40.184C317.219 40.766 319.176 42.6309 319.785 43.3584C320.009 43.6229 320.221 43.7816 320.076 44.2446V44.2446Z" fill="#FFD7D1"/>
<path fill-rule="evenodd" clip-rule="evenodd" d="M290.752 39.0205C290.752 39.3247 290.62 39.3247 290.395 39.5495C291.942 39.8008 292.709 40.2638 294.006 40.6341C295.355 41.0177 297.325 41.7451 298.622 42.089C298.86 42.1551 300.606 42.6709 300.513 43.0942C300.447 43.3984 299.825 43.2926 299.587 43.2661C298.145 43.081 295.064 42.2477 293.701 41.7716C291.916 41.1499 292.207 41.097 290.461 40.7531L288.887 40.3167C288.16 40.1183 288.252 39.3776 288.927 39.1924C289.456 39.0469 290.276 38.8485 290.765 39.0337L290.752 39.0205Z" fill="#FFD7D1"/>
<path fill-rule="evenodd" clip-rule="evenodd" d="M333.791 58.7542C334.333 58.7278 334.876 59.2039 335.286 59.5743C335.748 59.9843 336.145 60.3282 336.608 60.7382L340.47 64.2696C340.933 64.7193 344.147 67.563 343.83 68.0788C343.512 68.6079 341.251 66.5049 340.907 66.2007C340.497 65.8303 339.968 65.4203 339.597 65.0368L334.611 60.2356C334.227 59.8388 333.698 59.27 333.791 58.7674V58.7542Z" fill="#FFD7D1"/>
<path fill-rule="evenodd" clip-rule="evenodd" d="M278.399 56.0429C277.883 56.7571 277.605 56.162 277.579 55.8445C277.539 55.0642 278.293 51.7311 278.623 51.1359C278.822 50.7788 278.888 50.7788 279.285 50.8979C279.655 51.9824 278.901 54.3764 278.584 55.5535L279.06 55.1038C279.615 55.2758 279.496 55.7784 279.404 56.6249C279.272 57.7359 278.782 61.479 278.015 62.1668C277.367 62.0477 277.526 61.4129 277.579 60.897C277.645 60.368 277.711 59.8257 277.803 59.2834C277.989 58.1724 278.24 57.0217 278.557 55.8578L278.399 56.0429Z" fill="#FFD7D1"/>
<path fill-rule="evenodd" clip-rule="evenodd" d="M339.056 77.0596C339.506 77.1257 339.545 77.3241 339.651 77.6415L340.299 79.0832C340.431 79.3345 340.55 79.5461 340.67 79.771L343.566 85.2467C343.817 85.6964 344.518 86.9794 344.624 87.3497C344.69 87.5746 344.756 87.9846 344.439 88.0507C343.923 88.1565 343.474 87.1513 343.341 86.9265C343.183 86.6619 343.05 86.5694 342.892 86.2784L340.286 81.4904L339.082 78.6203C338.937 78.1574 338.805 77.4431 339.082 77.0596H339.056Z" fill="#FFD7D1"/>
<path fill-rule="evenodd" clip-rule="evenodd" d="M329.585 47.8555C329.175 47.763 329.189 47.4455 329.189 46.7181C329.189 46.2287 329.241 45.779 329.268 45.2896C329.308 44.2579 329.308 43.4247 329.321 42.4327C329.347 41.1101 329.136 36.6396 329.929 35.6873C330.564 35.8724 330.405 37.5389 330.432 38.4383C330.471 39.5229 330.485 40.4091 330.485 41.4936C330.485 42.6311 330.419 46.9958 329.585 47.8423V47.8555Z" fill="#FFD7D1"/>
<path fill-rule="evenodd" clip-rule="evenodd" d="M283.65 27.7381L283.955 26.6536C284.193 26.3626 285.079 23.5718 286.785 21.3498C287.632 20.2388 289.073 19.0351 290.541 18.9955C291.375 18.969 291.428 19.432 290.065 20.0272C289.563 20.2388 289.272 20.4239 288.888 20.7546C286.785 22.6195 285.952 25.3177 284.682 27.3546C284.338 27.8969 283.981 28.3862 283.664 27.7381H283.65Z" fill="#FFD7D1"/>
<path fill-rule="evenodd" clip-rule="evenodd" d="M360.839 76.1601C360.006 75.9352 358.842 75.4326 358.035 75.0888C357.175 74.7316 356.263 74.3216 355.403 73.9381C354.504 73.5413 353.697 73.1313 352.863 72.7213C350.708 71.6499 351.673 71.3457 352.162 71.478C354.358 72.0864 358.392 73.9645 360.442 74.9169C360.879 75.1152 361.262 75.2739 361.659 75.4988C361.831 75.5914 362.003 75.7104 362.175 75.8427C362.373 76.0014 362.439 76.0278 362.32 76.332C362.122 76.5833 361.104 76.2263 360.839 76.1469V76.1601Z" fill="#FFD7D1"/>
<path fill-rule="evenodd" clip-rule="evenodd" d="M335.974 54.7202C335.789 54.6673 335.564 54.5614 335.63 54.3366C335.762 53.8604 337.442 53.7414 338.05 53.6753C339.4 53.5166 345.669 52.7098 346.251 53.2124C347.15 53.9795 341.939 54.4292 341.529 54.4689C340.524 54.5747 336.9 54.9715 335.974 54.7202V54.7202Z" fill="#FFD7D1"/>
<path fill-rule="evenodd" clip-rule="evenodd" d="M289.998 18.4798C290.236 17.6069 294.826 13.6257 296.426 13.3744C296.704 13.3347 296.942 13.348 297.22 13.4802C297.511 13.6125 297.603 13.8241 297.815 13.9432C298.252 14.1945 299.177 13.7845 299.244 14.1945C299.31 14.5913 298.397 14.8955 298.159 14.9352C296.625 15.1997 297.551 13.2157 294.416 15.8213C294.244 15.9668 294.085 16.0594 293.887 16.2049C293.662 16.3636 293.53 16.4959 293.331 16.6281C293.014 16.853 289.668 19.6305 289.985 18.4798H289.998Z" fill="#FFD7D1"/>
<path fill-rule="evenodd" clip-rule="evenodd" d="M327.243 48.6494C327.64 48.9668 328.341 50.3953 328.606 50.8185C328.87 51.255 329.307 51.7443 329.571 52.4453C329.73 52.9083 331.224 55.1965 331.608 56.4397C331.74 56.8894 331.648 57.6566 331.013 57.1011C330.656 56.7836 329.941 55.3948 329.677 54.9319C328.658 53.1463 327.442 51.2153 326.622 49.3371C326.317 48.6494 326.886 48.3584 327.243 48.6361V48.6494Z" fill="#FFD7D1"/>
<path fill-rule="evenodd" clip-rule="evenodd" d="M335.669 13.6256C336.304 14.234 335.272 24.0878 334.095 23.4132C333.698 23.1884 334.068 21.5218 334.135 21.0192C334.254 20.0802 334.346 19.2733 334.465 18.3607C334.571 17.501 334.65 16.6413 334.769 15.7551C334.809 15.4377 335.007 13.004 335.669 13.6389V13.6256Z" fill="#FFD7D1"/>
<path fill-rule="evenodd" clip-rule="evenodd" d="M382.306 55.593L381.83 57.3124C381.328 57.8811 380.018 62.1533 379.145 62.2326C378.947 61.8094 379.225 61.1613 379.344 60.619C379.066 60.3809 378.51 60.5926 379.317 58.688C379.502 58.2515 379.82 57.2992 380.309 57.1802C380.309 57.1802 380.415 57.1669 380.455 57.1537C380.574 57.1272 380.508 57.1537 380.6 57.1008C381.01 56.3204 381.394 54.6936 381.989 54.2439C382.703 54.4555 382.187 55.0904 382.293 55.5797L382.306 55.593Z" fill="#FFD7D1"/>
<path fill-rule="evenodd" clip-rule="evenodd" d="M277.923 48.689L278.968 44.8534C279.233 44.5359 279.881 41.5732 280.569 41.7055C281.098 41.8113 280.595 43.372 280.502 43.7159C280.304 44.4433 280.092 45.4089 279.828 46.0967C279.444 47.1151 279.153 48.4906 278.757 49.4297C278.571 49.8794 278.36 49.8529 277.897 49.6016C277.685 49.2842 277.95 48.9932 277.897 48.6758L277.923 48.689Z" fill="#FFD7D1"/>
<path fill-rule="evenodd" clip-rule="evenodd" d="M280.211 70.7107C279.946 71.7027 279.404 70.1023 279.338 69.8907C278.915 68.4225 278.412 66.2005 278.822 64.7191C279.007 64.0446 279.153 63.3172 279.483 62.722C279.669 62.4045 279.682 62.3516 280.026 62.3913C280.303 62.9865 280.026 63.833 279.933 64.5472C279.576 67.3644 280.489 69.6923 280.211 70.7107Z" fill="#FFD7D1"/>
<path fill-rule="evenodd" clip-rule="evenodd" d="M352.056 6.90649L352.559 7.03877C352.651 7.14458 352.757 7.2107 352.889 7.31651C352.995 7.42232 353.101 7.54137 353.22 7.66041C354.252 8.74498 355.574 10.9934 356.143 12.3822C356.275 12.6996 356.196 13.1626 355.746 13.1229C355.349 13.0965 354.794 12.0912 354.595 11.7209C354.397 11.3506 354.278 11.2712 354.093 10.9405C353.524 9.9221 353.141 9.4195 352.625 8.58624C352.44 8.29525 352.294 8.1101 352.109 7.81912C351.95 7.56782 351.725 7.22393 352.069 6.90649H352.056Z" fill="#FFD7D1"/>
<path fill-rule="evenodd" clip-rule="evenodd" d="M363.881 68.0522C363.538 68.2242 363.471 68.211 363.035 68.1316C362.374 68.0126 360.667 67.4041 359.993 67.1661C359.358 66.9412 358.736 66.6899 358.128 66.4386C357.692 66.2535 356.567 65.8699 356.792 65.3805C357.004 64.9043 358.141 65.3937 358.683 65.5392C359.384 65.7376 360.006 65.9625 360.667 66.1873C361.276 66.3989 362.876 67.0206 363.432 67.338C363.789 67.5364 363.961 67.6422 363.881 68.0654V68.0522Z" fill="#FFD7D1"/>
<path fill-rule="evenodd" clip-rule="evenodd" d="M297.748 11.655C297.748 11.0599 299.11 10.1208 299.613 9.75044C299.785 9.6314 299.93 9.48593 300.129 9.35366C301.108 8.67911 301.438 8.61296 302.549 8.91717C302.946 9.02298 304.983 9.76366 304.573 10.2398C304.216 10.6631 302.391 9.90916 301.809 9.88271C301.227 9.85626 300.42 10.5308 299.825 10.8747C299.163 11.245 298.37 11.8534 297.748 11.655V11.655Z" fill="#FFD7D1"/>
<path fill-rule="evenodd" clip-rule="evenodd" d="M316.014 80.9218C315.736 81.927 314.573 84.4929 314.004 85.432C313.607 86.0801 313.422 86.3314 312.893 86.0933C312.853 85.9611 312.8 85.842 312.866 85.6172C313.091 84.7839 313.898 83.1042 314.282 82.218C314.493 81.7286 314.731 81.226 314.996 80.7631C315.207 80.3795 315.498 79.6521 316.041 79.9563C316.252 80.1679 316.08 80.6573 316.001 80.935L316.014 80.9218Z" fill="#FFD7D1"/>
<path fill-rule="evenodd" clip-rule="evenodd" d="M341.397 61.6243C340.167 61.2936 337.852 60.0371 336.741 59.3097C336.278 59.0054 335.763 58.807 335.948 58.1854C336.49 58.0002 337.323 58.4499 337.866 58.7012C338.487 59.0055 339.03 59.27 339.651 59.6139C340.088 59.8519 341.794 60.7513 341.953 61.1746C342.111 61.5978 341.781 61.7301 341.384 61.6243H341.397Z" fill="#FFD7D1"/>
<path fill-rule="evenodd" clip-rule="evenodd" d="M345.8 102.322C345.39 102.494 343.3 103.221 343.776 102.15C343.895 101.899 345.019 101.409 345.191 101.343L347.413 100.298C348.088 99.994 350.165 99.4253 349.437 100.497C349.292 100.722 348.233 101.118 348.009 101.251C346.977 101.819 346.831 101.885 345.8 102.322V102.322Z" fill="#FFD7D1"/>
<path fill-rule="evenodd" clip-rule="evenodd" d="M352.109 18.7706C352.453 19.2468 351.196 21.5217 350.932 22.0111C350.681 22.474 349.517 24.8283 348.974 24.0744C348.697 23.6776 349.953 21.3233 350.191 20.9133C350.548 20.2916 351.58 18.0299 352.109 18.7706Z" fill="#FFD7D1"/>
<path fill-rule="evenodd" clip-rule="evenodd" d="M320.591 63.3436C320.776 62.6823 322.139 61.2009 322.615 60.7116C323.091 60.2486 323.845 59.2038 324.255 59.0186C324.572 58.8731 324.771 59.0451 324.718 59.4154C324.559 60.5926 321.689 63.4759 321.107 63.7669C320.869 63.8859 320.432 63.8859 320.578 63.3436H320.591Z" fill="#FFD7D1"/>
<path fill-rule="evenodd" clip-rule="evenodd" d="M339.041 102.19C339.438 102.97 339.253 102.917 338.552 103.301C337.983 103.618 334.65 105.139 334.253 104.901C334.094 104.795 333.949 104.359 334.055 104.187C334.147 104.041 334.531 103.883 334.676 103.803C335.43 103.367 338.353 102.018 339.028 102.19H339.041Z" fill="#FFD7D1"/>
<path fill-rule="evenodd" clip-rule="evenodd" d="M334.954 56.9816C334.505 56.8626 333.989 56.2939 333.645 55.9368C333.248 55.5268 332.481 54.667 332.164 54.1777C331.939 53.8205 331.582 53.2121 331.529 52.7757C331.489 52.4318 331.635 52.1805 331.979 52.2598C332.336 52.3392 332.799 53.146 332.984 53.3841C333.407 53.9131 335.166 55.9368 335.338 56.3997C335.444 56.7039 335.338 57.0875 334.941 56.9816H334.954Z" fill="#FFD7D1"/>
<path fill-rule="evenodd" clip-rule="evenodd" d="M321.596 13.7051C322.217 13.7051 322.323 14.34 322.429 14.8029C322.614 15.5568 323.461 19.0486 322.68 19.3396C321.979 19.5909 321.781 17.3953 321.662 16.7736C321.569 16.3107 321.49 15.7552 321.437 15.2526C321.384 14.6839 321.199 14.1151 321.596 13.6919V13.7051Z" fill="#FFD7D1"/>
<path fill-rule="evenodd" clip-rule="evenodd" d="M286.771 83.4214C287.472 83.4478 287.247 83.8843 287.578 84.5985C288.16 85.8815 290.858 87.5877 289.813 88.011C289.073 88.3019 285.343 85.0085 286.771 83.4346V83.4214Z" fill="#FFD7D1"/>
<path fill-rule="evenodd" clip-rule="evenodd" d="M326.397 58.0662C325.829 57.8811 324.678 56.3865 324.4 55.8839C323.541 54.3629 323.964 53.0799 324.572 53.1593C325.154 53.2254 324.718 53.847 325.009 54.5216C325.326 55.2226 326.067 56.2807 326.556 56.942C326.622 57.0346 327.456 57.934 326.397 58.0662V58.0662Z" fill="#FFD7D1"/>
<path fill-rule="evenodd" clip-rule="evenodd" d="M369.331 27.4075C368.485 28.1085 368.313 27.4339 367.982 26.561L367.122 24.0744C366.58 22.4873 367.506 22.5798 367.771 23.0163C368.234 23.7834 368.749 25.1193 369.027 26.0319C369.159 26.4419 369.358 26.9578 369.331 27.4075Z" fill="#FFD7D1"/>
<path fill-rule="evenodd" clip-rule="evenodd" d="M374.767 49.9717C374.701 51.096 375.097 51.9954 374.529 52.9609C374.079 52.908 373.986 52.5773 373.907 52.207C373.828 51.8763 373.788 51.4531 373.735 51.1357C373.312 48.2523 373.973 49.0194 375.031 48.9136C375.296 48.8872 375.931 48.6756 376.182 48.7946C376.764 49.0591 375.679 49.8262 374.767 49.9717V49.9717Z" fill="#FFD7D1"/>
<path fill-rule="evenodd" clip-rule="evenodd" d="M373.113 25.9395C372.994 26.3627 373.457 28.0293 372.161 27.6722C371.711 27.5531 371.116 26.786 370.878 26.5082L370.401 25.8734C370.216 25.5956 370.11 25.3575 370.243 25.0269C370.917 24.8417 371.499 25.7675 371.975 26.1114C372.147 25.503 372.385 24.7491 373.351 25.0136C373.986 25.1856 373.139 25.8072 373.113 25.9395Z" fill="#FFD7D1"/>
<path fill-rule="evenodd" clip-rule="evenodd" d="M297.775 66.6504C297.365 66.8223 296.121 67.2984 295.751 67.0207C294.957 66.4387 297.576 65.4996 297.722 65.4335C298.357 65.1558 299.759 64.5473 300.446 64.8251C300.645 65.4864 300.076 65.6584 299.679 65.8568C299.282 66.0552 298.833 66.2535 298.449 66.4122C298.211 66.5181 298.039 66.5445 297.788 66.6504H297.775Z" fill="#FFD7D1"/>
<path fill-rule="evenodd" clip-rule="evenodd" d="M373.854 30.2379C374.436 30.4892 375.296 31.9574 375.455 32.46C375.534 32.7113 376.182 35.4888 375.309 35.0391C374.952 34.854 374.833 34.1926 374.714 33.8355C374.555 33.3594 374.436 33.0155 374.225 32.5129C374.053 32.1029 373.444 31.0712 373.418 30.6348C373.405 30.2909 373.55 30.0924 373.854 30.2379V30.2379Z" fill="#FFD7D1"/>
<path fill-rule="evenodd" clip-rule="evenodd" d="M368.405 79.3609C368.154 79.0567 367.902 78.9245 367.704 78.5938C367.532 78.2896 367.4 77.6547 368.088 77.8399C368.127 77.8399 369.318 78.5806 369.384 78.6335C369.82 78.9774 369.688 79.48 369.424 79.9164C369.238 80.2207 368.789 80.7365 368.551 81.001C368.246 81.3316 367.955 81.7946 367.426 81.6491C367.096 80.9084 367.942 80.1942 368.392 79.3477L368.405 79.3609Z" fill="#FFD7D1"/>
<path fill-rule="evenodd" clip-rule="evenodd" d="M329.281 58.6482C328.738 58.7673 328.262 57.3917 327.865 56.6775C327.707 56.3998 327.403 55.8443 327.323 55.5533C327.112 54.6671 327.971 53.6619 328.275 54.3761C328.355 54.5613 328.302 54.8787 328.328 55.0903C328.355 55.421 328.447 55.3417 328.633 55.6062L329.32 57.3918C329.426 57.7621 329.677 58.3969 329.281 58.6482Z" fill="#FFD7D1"/>
<path fill-rule="evenodd" clip-rule="evenodd" d="M332.932 3.97046C332.694 4.83018 331.543 5.3989 330.802 5.61052C330.551 5.68988 329.903 5.74281 330.035 5.26666C330.181 4.75083 331.45 4.24822 331.741 3.73239C331.503 3.534 331.239 3.45461 331.305 3.04459C331.371 2.67425 331.821 2.31715 332.323 2.8462C332.456 2.97847 332.548 3.01814 332.667 3.12395C332.839 3.29589 333.024 3.65302 332.932 3.97046V3.97046Z" fill="#FFD7D1"/>
<path fill-rule="evenodd" clip-rule="evenodd" d="M313.542 8.17648C312.801 8.16326 311.941 7.4226 311.399 6.95968C311.029 6.64224 309.6 5.55768 310.314 5.14766C310.883 4.83023 312.867 6.64225 313.317 7.13163C313.687 7.52842 313.833 7.6342 313.528 8.17648H313.542Z" fill="#FFD7D1"/>
<path fill-rule="evenodd" clip-rule="evenodd" d="M322.76 55.7386C324.136 56.5057 319.731 57.6432 318.885 57.1009C318.713 56.9951 318.66 56.7835 318.779 56.5851C318.898 56.3735 319.057 56.347 319.255 56.2941C319.943 56.1222 322.35 55.4873 322.773 55.7254L322.76 55.7386Z" fill="#FFD7D1"/>
<path fill-rule="evenodd" clip-rule="evenodd" d="M297.815 52.3129L297.775 52.4451C297.617 53.0139 295.064 52.4848 294.389 52.2997C293.966 52.1806 293.583 52.0219 293.702 51.5987C293.913 50.8844 296.519 51.5061 297.061 51.6515C297.365 51.7309 297.908 51.9161 297.802 52.3129H297.815Z" fill="#FFD7D1"/>
<path fill-rule="evenodd" clip-rule="evenodd" d="M374.251 56.8495C374 57.5769 374.224 58.1324 373.603 58.6747C373.113 58.5953 373.127 58.4498 373.074 58.0398C373.034 57.7621 373.034 57.3917 373.06 57.0875C373.127 56.1484 373.378 55.8839 374.066 55.6855C374.304 55.6194 375.785 55.1697 375.666 55.8707C375.587 56.3865 374.74 56.5981 374.238 56.8362L374.251 56.8495Z" fill="#FFD7D1"/>
<path fill-rule="evenodd" clip-rule="evenodd" d="M321.172 2.64776C321.384 2.88584 321.463 3.28263 321.596 3.63975C321.741 4.06299 322.31 5.4121 322.349 5.7163C322.416 6.15278 321.926 6.48344 321.543 6.17924C321.199 5.90148 320.352 4.03653 320.392 3.09746C320.418 2.60808 320.723 2.17161 321.159 2.64776H321.172Z" fill="#FFD7D1"/>
<path fill-rule="evenodd" clip-rule="evenodd" d="M337.64 93.4205C337.164 93.566 336.992 93.447 336.78 92.9973C336.635 92.6931 336.449 92.3888 336.317 92.0317C336.251 91.8466 335.206 89.2277 336.357 89.6642C336.542 89.7436 336.621 89.9287 336.701 90.061C337.15 90.8678 337.97 92.455 337.64 93.4205Z" fill="#FFD7D1"/>
<path fill-rule="evenodd" clip-rule="evenodd" d="M339.465 12.5937C339.386 12.8979 339.399 12.7524 339.201 12.8979C338.764 13.2021 338.685 13.0699 338.13 12.3292C337.64 11.6679 336.728 10.1072 337.548 9.43262C338.063 9.57811 338.315 10.3056 338.659 10.914C338.831 11.205 339.558 12.316 339.479 12.5937H339.465Z" fill="#FFD7D1"/>
<path fill-rule="evenodd" clip-rule="evenodd" d="M374.171 68.5019C373.867 68.4226 373.06 67.9861 372.637 67.8141C372.082 67.5893 371.526 67.4438 371.143 67.1264C371.195 66.7163 371.235 66.7164 371.407 66.3989C372.717 66.4518 374.846 67.2851 374.806 68.1316C374.793 68.4755 374.502 68.5945 374.185 68.5019H374.171Z" fill="#FFD7D1"/>
<path fill-rule="evenodd" clip-rule="evenodd" d="M361.21 70.4728C360.998 71.2531 359.583 70.7505 358.988 70.5124C358.009 70.1289 357.189 69.9437 357.401 69.2295C358.089 68.9914 358.604 69.2295 359.491 69.4675C359.821 69.5601 360.178 69.7056 360.483 69.8379C360.919 70.023 361.131 70.076 361.197 70.4728H361.21Z" fill="#FFD7D1"/>
<path fill-rule="evenodd" clip-rule="evenodd" d="M348.499 65.0896C347.917 64.9309 345.311 64.1902 345.51 63.4628C345.682 62.8544 346.264 63.1453 346.951 63.3305C347.361 63.4495 349.24 64.1241 349.187 64.6664C349.147 65.0896 348.803 65.1558 348.512 65.0764L348.499 65.0896Z" fill="#FFD7D1"/>
<path fill-rule="evenodd" clip-rule="evenodd" d="M368.417 49.9453C367.795 49.7734 367.623 49.4427 368.033 49.1253C368.43 48.8211 370.851 48.7417 371.406 48.9004C371.79 49.0062 371.869 49.4692 371.538 49.694C371.128 49.9718 369.065 50.1305 368.404 49.9453H368.417Z" fill="#FFD7D1"/>
<path fill-rule="evenodd" clip-rule="evenodd" d="M317.721 2.96519C318.158 3.34875 318.594 4.15558 318.859 4.67141C318.965 4.89626 319.216 5.38564 319.242 5.62371C319.295 5.95437 318.965 6.97279 317.854 5.24013C317.655 4.93593 317.51 4.68465 317.351 4.35399C317.232 4.11591 316.994 3.63973 316.954 3.41488C316.848 2.81969 317.298 2.59485 317.721 2.96519V2.96519Z" fill="#FFD7D1"/>
<path fill-rule="evenodd" clip-rule="evenodd" d="M326.238 105.02C325.683 105.298 324.982 105.893 324.466 106.012C324.069 106.105 323.593 106.012 323.712 105.576C323.778 105.298 325.074 104.306 325.259 104.226C325.987 103.883 327.349 103.764 327.151 104.491C327.058 104.835 326.529 104.888 326.251 105.033L326.238 105.02Z" fill="#FFD7D1"/>
<path fill-rule="evenodd" clip-rule="evenodd" d="M377.69 48.2657C377.333 48.1995 377.108 48.0276 376.962 47.816C376.87 47.4589 378.034 45.9246 378.325 45.5675C378.563 45.2765 378.668 45.1046 379.131 45.3559C379.713 45.6865 379.012 46.5066 378.761 46.9033C378.457 47.3927 378.047 47.9615 377.69 48.2789V48.2657Z" fill="#FFD7D1"/>
<path fill-rule="evenodd" clip-rule="evenodd" d="M318.356 105.523L317.919 105.404C317.814 104.954 317.787 104.835 318.197 104.425C318.395 104.24 318.673 104.041 318.911 103.922C319.361 103.698 320.155 103.433 320.829 103.605C321.53 104.346 320.34 104.571 319.93 104.756C319.295 105.02 318.872 105.192 318.356 105.523V105.523Z" fill="#FFD7D1"/>
<path fill-rule="evenodd" clip-rule="evenodd" d="M330.074 12.7262C330.404 13.0965 330.536 14.9879 330.444 15.5964C330.391 15.9535 330.1 16.2312 329.769 15.9799C329.293 15.6228 329.148 13.9166 329.32 13.1362C329.412 12.7262 329.677 12.2897 330.06 12.713L330.074 12.7262Z" fill="#FFD7D1"/>
<path fill-rule="evenodd" clip-rule="evenodd" d="M330.313 30.1985C331.027 30.1985 331.093 30.8863 331.066 31.5608C331.04 32.6851 329.929 34.2326 329.625 33.3464C329.532 33.0554 330.074 30.4895 330.299 30.1985H330.313Z" fill="#FFD7D1"/>
<path fill-rule="evenodd" clip-rule="evenodd" d="M306.095 99.8223C306.002 99.1345 306.677 98.6848 307.113 99.5974C307.153 99.69 307.166 99.7165 307.206 99.809C307.483 100.338 307.695 100.88 307.827 101.528C307.973 102.309 307.338 102.52 306.915 101.952C306.782 101.78 306.161 100.219 306.108 99.8223H306.095Z" fill="#FFD7D1"/>
<path fill-rule="evenodd" clip-rule="evenodd" d="M339.174 4.04955C339.254 3.74534 339.677 3.63953 340.008 3.93052L341.026 5.47802C341.701 6.49646 341.066 7.34292 339.836 5.78221C339.598 5.478 339.042 4.55215 339.174 4.04955V4.04955Z" fill="#FFD7D1"/>
<path fill-rule="evenodd" clip-rule="evenodd" d="M303.926 29.4971C303.277 29.5236 303.555 29.8939 302.418 28.8755C301.082 27.6851 301.214 27.6587 301.836 27.0635C302.391 27.2222 304.177 28.5184 303.926 29.4971V29.4971Z" fill="#FFD7D1"/>
<path fill-rule="evenodd" clip-rule="evenodd" d="M352.903 51.7176C353.393 51.8499 353.326 52.2863 353.154 52.4847C352.903 52.7889 351.038 53.3974 350.522 53.2122C350.112 53.0667 349.874 52.5112 351.104 52.0615C351.409 51.9556 352.493 51.5986 352.903 51.7176Z" fill="#FFD7D1"/>
<path fill-rule="evenodd" clip-rule="evenodd" d="M363.022 55.8046C363.128 55.3946 363.815 55.1698 364.159 55.0772C365.998 54.5613 366.765 55.5533 365.945 55.8707C365.654 55.9898 362.784 56.704 363.022 55.8046Z" fill="#FFD7D1"/>
<path fill-rule="evenodd" clip-rule="evenodd" d="M303.767 63.82C303.529 63.8862 303.093 63.9788 302.855 63.992C302.484 63.992 302.233 63.701 302.339 63.3571C302.458 62.9603 303.516 62.6693 303.952 62.5371C304.217 62.4577 304.548 62.3387 304.852 62.3254C305.156 62.3254 305.46 62.6429 305.328 62.9471C305.196 63.2777 304.151 63.701 303.767 63.8068V63.82Z" fill="#FFD7D1"/>
<path fill-rule="evenodd" clip-rule="evenodd" d="M361.554 26.3624C361.752 26.7063 360.721 27.7777 360.522 28.0157C360.35 28.2273 359.424 29.4045 359.054 28.8358C358.909 28.6109 359.239 27.9893 359.319 27.7644C359.477 27.3544 360.998 26.0847 361.422 26.2566C361.567 26.3228 361.501 26.2566 361.554 26.3492V26.3624Z" fill="#FFD7D1"/>
<path fill-rule="evenodd" clip-rule="evenodd" d="M350.734 17.6993C350.284 17.6596 350.258 17.4348 350.245 17.0644C350.218 16.4428 350.403 14.5911 351.25 14.6308C352.202 14.6704 351.633 15.6492 351.276 16.628C351.131 17.0248 351.051 17.4612 350.734 17.6993Z" fill="#FFD7D1"/>
<path fill-rule="evenodd" clip-rule="evenodd" d="M328.963 67.6026C328.844 68.0259 328.593 68.8724 328.117 68.8724C327.098 68.8724 328.011 66.5709 328.236 66.2006C328.513 65.7377 329.492 65.6583 328.963 67.6026Z" fill="#FFD7D1"/>
<path fill-rule="evenodd" clip-rule="evenodd" d="M365.878 20.1726C365.6 21.1911 365.124 20.662 364.952 19.7891C364.859 19.3261 364.674 18.5458 364.925 18.0432C365.23 17.448 365.864 17.329 365.904 18.2813C365.931 18.7442 365.997 19.6832 365.864 20.1594L365.878 20.1726Z" fill="#FFD7D1"/>
<path fill-rule="evenodd" clip-rule="evenodd" d="M374.714 76.5042C375.878 76.6364 375.971 79.2685 375.375 79.4272C374.78 79.5859 374.569 78.6468 374.542 78.2104C374.463 77.1258 374.278 76.9009 374.714 76.5042V76.5042Z" fill="#FFD7D1"/>
<path fill-rule="evenodd" clip-rule="evenodd" d="M305.024 44.324C305.513 44.5489 306.399 44.6679 306.346 45.2499C306.254 46.2815 303.78 45.1441 303.648 44.4827C303.503 43.7685 304.68 44.1653 305.024 44.324Z" fill="#FFD7D1"/>
<path fill-rule="evenodd" clip-rule="evenodd" d="M370.984 84.2811C371.222 84.9424 370.944 85.2466 371.01 85.9079C371.036 86.2254 371.129 86.4105 370.878 86.6618C370.693 86.8337 370.402 86.8338 370.19 86.5957C369.648 86.0005 369.859 84.8234 370.243 84.334C370.441 84.0827 370.64 84.162 370.984 84.2943V84.2811Z" fill="#FFD7D1"/>
<path fill-rule="evenodd" clip-rule="evenodd" d="M315.605 67.272C315.525 67.5762 314.639 68.1449 314.441 68.2904C313.555 68.9782 313.264 68.2904 313.356 67.9465C313.489 67.4968 314.679 66.5181 315.248 66.6504C315.525 66.7165 315.671 67.0207 315.605 67.2588V67.272Z" fill="#FFD7D1"/>
<path fill-rule="evenodd" clip-rule="evenodd" d="M361.818 22.4739C362.334 22.831 361.726 23.5188 361.461 23.8759C361.17 24.2727 360.76 24.934 360.284 24.6431C359.543 24.1801 361.157 22.0242 361.818 22.4739Z" fill="#FFD7D1"/>
<path fill-rule="evenodd" clip-rule="evenodd" d="M292.393 82.1647C292.591 81.4372 293.306 81.6224 293.398 82.0589C293.478 82.3895 293.359 83.1302 293.253 83.5667C293.041 84.4264 292.525 84.3603 292.274 84.0825C291.957 83.7386 292.261 82.6276 292.38 82.1647H292.393Z" fill="#FFD7D1"/>
<path fill-rule="evenodd" clip-rule="evenodd" d="M291.916 90.3389C291.479 90.4712 291.148 90.4183 291.056 89.9422C290.91 89.2808 291.109 87.8259 291.77 87.8788C292.511 87.9318 292.193 89.7173 291.916 90.3389Z" fill="#FFD7D1"/>
<path fill-rule="evenodd" clip-rule="evenodd" d="M315.088 17.8052C314.771 17.8581 314.678 18.0036 314.361 17.6465C314.308 17.5803 313.951 17.1174 313.924 17.0513C313.832 16.8264 313.673 15.7154 313.858 15.4377C314.268 14.7896 314.718 15.9667 314.824 16.218C315.035 16.7471 315.326 16.9587 315.088 17.8052V17.8052Z" fill="#FFD7D1"/>
<path fill-rule="evenodd" clip-rule="evenodd" d="M303.714 81.2127C303.859 80.6969 304.785 79.6917 305.367 79.771C305.685 79.8107 305.83 80.062 305.751 80.353C305.671 80.6837 304.97 81.3053 304.746 81.4905C303.873 82.1915 303.648 81.4508 303.714 81.2127V81.2127Z" fill="#FFD7D1"/>
<path fill-rule="evenodd" clip-rule="evenodd" d="M370.917 38.8351C370.388 38.1474 370.586 38.0416 370.811 37.8564C371.023 37.6845 371.247 37.6051 371.538 37.4596C371.869 37.3009 372.306 37.1687 372.742 37.3406C372.927 37.949 372.702 38.24 372.213 38.4516C371.869 38.5971 371.3 38.8616 370.917 38.8219V38.8351Z" fill="#FFD7D1"/>
<path fill-rule="evenodd" clip-rule="evenodd" d="M297.643 31.4417C298.132 31.693 298.582 31.9047 298.873 32.275C299.204 32.6983 298.807 33.3464 298.079 32.9893C295.99 31.9576 296.955 31.0846 297.643 31.4417Z" fill="#FFD7D1"/>
<path fill-rule="evenodd" clip-rule="evenodd" d="M342.388 19.2599C342.891 19.5641 342.362 21.8788 341.436 21.2968C341.039 21.0587 341.304 20.3445 341.436 19.908C341.582 19.3922 341.833 18.9293 342.388 19.2599Z" fill="#FFD7D1"/>
<path fill-rule="evenodd" clip-rule="evenodd" d="M347.044 33.5577C346.964 33.8354 346.382 34.4571 346.224 34.629C345.853 34.9993 345.06 35.0655 345.311 34.1661C345.496 33.4783 346.369 32.7509 346.779 32.9757C346.925 33.0551 347.097 33.3725 347.044 33.5577Z" fill="#FFD7D1"/>
<path fill-rule="evenodd" clip-rule="evenodd" d="M292.419 26.6406C293.054 26.8522 293.53 27.9765 293.424 28.2939C293.371 28.4791 293.08 28.651 292.908 28.6643C292.339 28.6775 291.175 26.6935 292.419 26.6406Z" fill="#FFD7D1"/>
<path fill-rule="evenodd" clip-rule="evenodd" d="M370.627 34.4044C371.262 34.8673 370.693 35.2906 370.204 35.6741C370.071 35.7799 370.085 35.7932 369.952 35.8858C369.37 36.2429 368.511 35.6741 369.489 34.7879C369.78 34.5234 370.204 34.087 370.64 34.4044H370.627Z" fill="#FFD7D1"/>
<path fill-rule="evenodd" clip-rule="evenodd" d="M349.53 78.8849C349.147 78.7791 348.723 78.3823 348.538 78.1574C348.102 77.6019 348.869 76.6496 350.006 77.959C350.364 78.3823 350.244 78.6204 349.861 78.9643L349.53 78.8849Z" fill="#FFD7D1"/>
<path fill-rule="evenodd" clip-rule="evenodd" d="M357.995 20.0273C357.479 19.8818 357.386 19.6966 357.598 18.903C357.704 18.493 357.876 18.0036 358.352 18.083C359.265 18.2417 358.603 20.186 357.995 20.0273Z" fill="#FFD7D1"/>
<path fill-rule="evenodd" clip-rule="evenodd" d="M361.064 15.5964C360.998 15.8477 360.945 15.8873 360.813 16.0328C360.35 16.0328 360.112 15.8741 359.98 15.1334C359.9 14.7102 360.165 13.8769 360.667 14.0092C361.064 14.115 361.117 14.1282 361.117 14.7102C361.117 14.8954 361.117 15.4376 361.064 15.6096V15.5964Z" fill="#FFD7D1"/>
<path fill-rule="evenodd" clip-rule="evenodd" d="M319.335 11.0862C319.176 11.6681 318.554 11.602 318.343 11.2449C318.197 10.9936 318.025 10.2926 318.118 9.94869C318.211 9.61803 318.859 9.45931 319.097 9.90901C319.229 10.1471 319.414 10.7555 319.322 11.0994L319.335 11.0862Z" fill="#FFD7D1"/>
<path fill-rule="evenodd" clip-rule="evenodd" d="M304.56 16.099C304.799 16.271 305.103 16.8397 305.156 17.1175C305.261 17.6465 304.719 17.964 304.322 17.6994C304.124 17.5672 303.807 16.9323 303.754 16.6942C303.648 16.1652 304.19 15.8609 304.56 16.1122V16.099Z" fill="#FFD7D1"/>
<path fill-rule="evenodd" clip-rule="evenodd" d="M364.384 90.8809C364.556 90.8016 364.714 90.6826 364.913 90.7222C365.362 90.8016 365.733 91.873 365.548 92.1904C365.151 92.9046 364.013 92.0713 364.384 90.8809V90.8809Z" fill="#FFD7D1"/>
<path fill-rule="evenodd" clip-rule="evenodd" d="M352.573 99.3195C352.494 98.6053 353.235 97.9704 353.618 98.9492C354.055 100.06 352.798 101.264 352.573 99.3195Z" fill="#FFD7D1"/>
<path fill-rule="evenodd" clip-rule="evenodd" d="M311.346 88.7119C311.518 88.0903 312.166 87.5216 312.642 88.0374C313.092 88.5268 312.298 89.2013 312.007 89.4394C311.558 89.3336 311.214 89.2013 311.346 88.7119Z" fill="#FFD7D1"/>
<path fill-rule="evenodd" clip-rule="evenodd" d="M289.482 32.3543C289.628 31.7988 290.117 32.1559 290.236 32.1956L290.434 32.2485C290.606 32.3014 290.567 32.2485 290.712 32.4602C290.897 32.7247 290.911 32.9495 290.62 33.2008C290.183 33.5712 289.31 33.0156 289.482 32.3543V32.3543Z" fill="#FFD7D1"/>
<path fill-rule="evenodd" clip-rule="evenodd" d="M346.131 91.3439C344.928 91.7936 345.02 90.6032 345.232 90.3255C345.377 90.1403 345.906 90.0742 346.131 90.3255C346.356 90.5636 346.277 90.9868 346.131 91.3572V91.3439Z" fill="#FFD7D1"/>
<path fill-rule="evenodd" clip-rule="evenodd" d="M358.71 97.7723C358.326 97.9443 357.797 98.1823 357.625 97.5739C357.467 97.0316 357.731 96.6216 358.313 96.7804C358.684 96.8862 358.855 97.0581 358.723 97.7591L358.71 97.7723Z" fill="#FFD7D1"/>
</svg>
