<svg width="312" height="232" viewBox="0 0 312 232" fill="none" xmlns="http://www.w3.org/2000/svg">
<path fill-rule="evenodd" clip-rule="evenodd" d="M252.269 46.0403C247.861 43.6388 235.696 35.7978 238.371 23.3858C240.09 15.4187 240.985 10.3128 241.124 6.9178C241.194 5.0605 241.025 3.68078 240.638 2.62345C248.86 4.93827 272.496 14.0201 260.109 39.604C257.251 38.0483 254.895 37.1901 254.868 37.1872C254.588 37.0841 254.256 37.1012 253.974 37.2598C253.974 37.2598 252.06 38.2556 252.262 46.0501L252.269 46.0403ZM257.015 61.1323C257.015 61.1323 257.055 61.0737 257.086 61.0507C259.93 57.9801 263.1 58.092 263.487 58.1226C263.799 58.1768 264.064 58.2154 264.285 58.2546C264.801 59.2942 266.168 61.6081 268.756 63.4965C272.83 85.0799 256.615 89.468 250.47 90.3492C251.993 87.5309 252.211 83.1857 252.452 78.5497C252.677 74.001 252.928 69.1357 254.422 65.4396C255.169 63.5705 256.085 62.1804 257.026 61.1386L257.015 61.1323ZM255.987 59.305C253.765 58.6129 246.635 57.1109 239.151 63.3651C232.643 68.8064 231.751 71.6813 231.43 73.0091C231.276 72.9141 231.071 72.7876 230.836 72.642C230.281 72.2583 229.715 71.7424 229.359 71.2174C229.189 70.9742 229.074 70.7367 229.051 70.5562L229.048 70.5401C229.017 69.8141 230.592 66.7917 234.548 63.5198C238.693 60.1003 245.392 56.6487 255.561 55.6717C255.967 55.6311 256.4 55.5934 256.86 55.5585C257.716 56.1418 258.63 56.5952 259.499 56.9653C258.384 57.4281 257.154 58.1667 255.97 59.3084L255.987 59.305ZM254.799 53.7732C244.435 54.8656 237.532 58.4684 233.206 62.0257C228.935 65.5469 227.146 69.2274 227.01 70.4753C227.001 70.5529 226.999 70.6208 227.007 70.6949L227 70.7047L227.01 70.711L227.004 70.7208C227.068 71.2462 227.303 71.7792 227.645 72.2818C228.154 73.0115 228.895 73.7189 229.634 74.2165C230.407 74.7492 231.236 75.094 231.852 75.0862C231.896 75.0856 231.94 75.0851 232.001 75.0811C232.235 75.0588 232.457 74.9882 232.642 74.8664C233.17 74.5401 233.256 74.1775 233.397 73.5849C233.653 72.5227 234.239 70.0551 240.503 64.8236C246.506 59.8051 252.111 60.3384 254.559 60.934C253.801 61.9637 253.1 63.2091 252.484 64.7149C250.872 68.7128 250.62 73.7299 250.376 78.4337C250.103 83.9096 249.844 88.9365 247.549 90.7928C247.123 91.1403 247.067 91.7577 247.425 92.1729C247.639 92.4156 247.949 92.5376 248.254 92.5176C248.535 92.5109 262.195 92.0937 268.421 81.9294C269.827 85.0434 273.768 89.9723 284.791 91.8936C291.826 93.1288 297.09 93.5211 301.059 93.8069C305.882 94.1628 308.721 94.3757 310.282 95.7411C310.7 96.1104 311.347 96.0796 311.735 95.6809C311.948 95.4522 312.039 95.1475 311.984 94.8641C311.82 93.2648 308.24 60.1427 285.562 57.7676C284.925 56.8199 284.173 55.8705 283.307 54.9612C304.569 44.4109 294.245 19.261 294.21 19.1839C294.087 18.8723 293.806 18.6434 293.446 18.5737C292.892 18.4676 292.351 18.8134 292.24 19.3411C292.031 20.3768 290.61 23.4941 286.891 26.5661C284.61 28.4447 281.453 30.2827 277.208 31.5597C268.593 34.1476 266.738 40.3666 266.426 44.0155C265.045 42.706 263.427 41.5543 261.851 40.5959C277.787 8.03555 239.718 0.294309 238.386 0.0269441C237.995 -0.061769 237.556 0.069663 237.314 0.405258C236.988 0.841986 237.081 1.45423 237.549 1.7712C238.648 2.53225 239.165 3.89143 239.053 6.81792C238.935 10.0738 238.039 15.0958 236.342 22.9658C233.117 37.9643 249.223 46.7534 252.382 48.315C252.634 50.6203 253.553 52.3941 254.806 53.7634L254.799 53.7732ZM284.073 59.1649C281.556 55.2674 277.003 51.1953 269.57 51.5728C268.637 52.495 265.577 55.6265 265.963 57.0713C266.166 57.5433 267.354 60.1209 270.186 62.0773C270.248 62.1153 270.309 62.1533 270.371 62.1912C271.691 63.0754 273.358 63.8131 275.44 64.155C279.404 64.8122 282.137 64.4744 284.011 64.2442C284.965 64.1256 285.74 64.0352 286.394 64.0786C286.195 63.387 285.882 62.5418 285.442 61.6046C285.096 60.8502 284.661 60.055 284.142 59.235C284.118 59.2063 284.104 59.1839 284.086 59.1453L284.073 59.1649ZM286.859 59.9273C287.016 60.232 287.162 60.5305 287.298 60.8225C287.927 62.1674 288.33 63.3731 288.535 64.2486C288.917 65.871 288.432 66.8199 287.502 66.7315C287.17 66.7066 286.886 66.5455 286.641 66.2419C286.397 65.9382 285.605 66.0322 284.265 66.204C282.273 66.4583 279.367 66.8144 275.091 66.103C273.559 65.8511 272.232 65.4061 271.059 64.8623C271.963 70.94 271.303 75.6782 269.748 79.3783C269.982 80.854 271.777 87.634 285.174 89.9806C292.08 91.1917 297.29 91.5782 301.242 91.8675C305.068 92.1487 307.738 92.354 309.724 93.1362C308.689 86.1594 304.003 62.9919 286.879 59.94L286.859 59.9273ZM263.877 56.1999L263.985 56.2115C264.496 53.9612 267.071 51.2233 268.024 50.2718C267.84 49.2571 267.383 48.2814 266.753 47.3659C266.664 47.2831 266.588 47.1807 266.536 47.0652C263.484 42.9903 256.89 40.0997 254.771 39.2353C254.478 39.9008 254.028 41.8695 254.372 47.6152C254.741 53.7513 260.927 55.6139 263.713 56.1407C263.768 56.1464 263.822 56.1522 263.87 56.1677L263.877 56.1999ZM268.471 46.3596C268.33 44.9828 267.852 36.4363 277.834 33.4438C282.386 32.079 285.775 30.0928 288.251 28.0567C290.66 26.0764 292.217 24.0002 293.15 22.3709C295.034 28.7624 298.215 45.8145 281.782 53.5211C278.93 51.1646 275.074 49.4503 269.99 49.5852C269.723 48.436 269.19 47.3579 268.478 46.3498L268.471 46.3596Z" fill="#FFD7D1"/>
<path fill-rule="evenodd" clip-rule="evenodd" d="M310.613 94.4616L310.514 94.6082C310.093 94.3068 308.867 92.6627 308.497 92.1572C305.137 87.5729 302.103 83.8143 297.671 79.9699C296.783 79.1998 295.837 78.4077 294.874 77.6611C294.083 77.048 292.712 75.9384 291.818 75.4557C292.024 75.9019 293.497 77.5461 294.49 80.2391C294.627 80.6152 294.723 80.8819 294.829 81.239C294.921 81.5316 295.012 81.934 295.134 82.2457C295.244 82.5349 295.344 82.9436 295.406 83.2593L296.391 87.3342C296.57 88.0132 296.041 87.7842 295.765 87.3776C295.512 86.9998 295.411 86.7848 295.273 86.4088C294.685 84.7696 294.373 83.0236 293.781 81.4103C293.157 79.6941 292.455 78.1371 291.393 76.5943C290.833 75.791 290.24 75.0365 289.545 74.3026C289.012 73.7379 288.717 73.4446 287.999 73.0016C287.117 72.4574 283.821 70.6036 282.958 70.3756C283.173 70.5504 283.722 71.2635 283.908 71.5033C285.522 73.7753 286.657 75.9177 287.62 78.44C287.757 78.816 288.056 79.3192 287.539 79.6518C287.126 79.7022 286.936 79.2106 286.787 78.938C286.616 78.6109 286.49 78.3251 286.33 78.0043C286.041 77.4235 285.743 76.7267 285.467 76.1264C284.849 74.7879 284.166 73.6729 283.403 72.4395L281.526 69.7414C281.381 69.6108 280.682 69.4841 280.381 69.3264C280.139 69.1906 280.192 69.1125 279.82 68.9525L278.062 68.2417C277.677 68.1013 277.268 67.9321 276.883 67.7496C276.637 67.6397 275.917 67.2226 275.709 67.1639C276.065 67.6889 276.434 68.1104 276.743 68.6619C277.601 70.204 278.247 71.7811 278.801 73.4272C279.116 74.3563 279.42 75.7924 279.626 76.71L279.77 77.5476C279.818 77.8408 279.889 78.0368 279.948 78.3783C280.011 78.7779 280.255 79.7466 279.856 80.0551C279.545 79.8911 279.401 79.5249 279.323 79.2966L278.15 75.0916C278.01 74.5477 277.813 73.982 277.653 73.4255C277.603 73.2421 277.571 73.1811 277.504 73.0012C277.455 72.8597 277.416 72.7246 277.373 72.5734C277.072 71.6248 276.638 70.6358 276.222 69.6854C276.138 69.5089 276.096 69.4416 276.023 69.2714L275.255 67.6603C275.063 67.2366 275.12 67.2165 275.159 66.8383C274.941 66.7732 273.855 66.1444 273.534 65.9741C272.766 65.5414 268.98 63.5518 268.828 63.3051C269.641 62.7945 275.129 65.9185 276.347 66.5037C278.193 67.4071 280.113 68.0513 282.022 68.8828C282.513 69.1027 283.218 69.0938 283.771 69.1579C287.878 69.626 291.753 69.5353 295.813 69.5585C296.131 69.561 297.29 69.527 297.511 69.8859C297.267 70.5669 292.035 70.5552 291.428 70.5693C290.442 70.5849 289.283 70.5769 288.263 70.5155C287.985 70.4964 285.375 70.2451 285.075 70.3231C285.422 70.4544 285.996 70.7668 286.317 70.9371C288.349 72.0803 288.134 71.7537 289.904 72.5547C291.35 73.2113 292.994 73.7685 294.491 74.2211C296.335 74.7629 302.582 76.5795 303.586 78.1005C303.386 78.3935 303.27 78.3078 302.94 78.2151C302.171 77.9762 301.519 77.6292 300.804 77.3541C298.981 76.6732 297.049 76.1325 295.218 75.5292L292.481 74.6305C293.045 74.9786 293.747 75.5089 294.281 75.9219C294.569 76.1411 294.887 76.3792 295.144 76.5794C295.528 76.8716 295.595 76.8159 295.97 77.0339C296.592 77.4038 297.096 77.8398 297.689 78.2747C299.277 79.4493 301.639 80.8789 303.371 81.9484C303.833 82.2331 306.913 83.954 306.744 84.4598C306.481 84.7827 305.791 84.3846 305.402 84.1861C304.432 83.6849 301.699 82.0953 301.13 81.841C302.27 82.7112 305.769 86.9645 306.519 88.0237C307.832 89.8604 309.185 91.6804 310.27 93.6395C310.429 93.9183 310.475 94.2374 310.637 94.4904L310.613 94.4616Z" fill="#FFD7D1"/>
<path fill-rule="evenodd" clip-rule="evenodd" d="M240.75 2.41542L240.823 2.30796C242.083 2.72475 245.002 6.01024 245.883 6.98387C247.352 8.57 248.497 10.2474 249.545 12.0454C249.572 11.535 249.492 10.9451 249.394 10.4266C249.173 9.20894 249.301 9.34296 248.837 7.94758C248.657 7.3784 248.291 6.88902 247.935 6.40598C246.892 4.94365 248.718 5.44694 249.687 7.40418C250.454 8.9733 250.53 10.4898 250.593 12.1517C250.619 12.7777 250.549 13.3727 250.585 14.005C250.605 14.2114 250.739 14.3776 250.844 14.6087C251.333 15.6454 251.819 16.9436 252.163 18.0435C252.23 18.2654 252.299 18.3775 252.364 18.6253C252.735 20.0057 253.1 21.3959 253.35 22.7842C253.409 23.1257 253.488 23.7155 253.587 23.9984C253.69 23.826 253.823 23.4369 253.922 23.2484C254.047 22.9789 254.212 22.6507 254.338 22.4231C255.295 20.587 255.519 19.8513 255.558 17.8232C255.578 17.0449 255.468 16.4361 255.387 15.7203L255.123 12.8535C255.123 12.5758 255.069 12.3343 255.273 12.1833C255.902 12.7791 256.096 14.8268 256.281 15.6897L256.539 17.9432C256.692 21.6154 255.297 22.1689 254.508 24.4421C254.068 25.71 254.021 26.6791 254.166 27.9203L254.321 29.0419C254.355 29.7841 254.534 30.505 254.596 31.25L255.044 34.9798C255.082 35.3087 255.146 36.2216 255.244 36.4625C255.456 35.8722 255.57 35.2767 255.785 34.6606C256.92 31.2563 259.118 26.0533 261.537 23.3302C261.811 23.0136 261.879 22.5704 262.11 22.616C262.426 22.6862 262.389 23.1904 262.291 23.4208L260.125 27.2707C258.82 29.7247 257.767 32.2368 256.769 34.7967C256.432 35.6565 256.124 36.8808 255.612 37.633C255.46 37.8577 255.364 37.8266 255.316 38.0048C255.28 38.1215 255.313 38.2664 255.242 38.4997C254.79 38.1793 254.741 37.3308 254.646 36.8703C254.581 36.5806 254.585 36.5967 254.266 36.3585C253.493 35.7839 252.71 35.0512 251.95 34.4989C248.835 32.2297 247.421 32.1474 244.934 28.9759C244.416 28.3238 243.874 27.601 243.458 26.9282C242.862 25.9639 241.034 23.4072 241.204 22.7077C241.684 22.8373 243.492 25.4233 243.855 25.9385C245.086 27.7246 246.483 29.544 248.288 30.8935C249.007 31.4204 249.711 31.8409 250.497 32.3541C251.171 32.7976 251.989 33.3717 252.592 33.8548C252.893 34.0964 253.226 34.399 253.497 34.6635C253.71 34.8642 254.134 35.3335 254.335 35.444L253.65 31.0133C253.525 30.2562 253.463 29.5112 253.307 28.777C253.206 28.2843 252.898 27.8168 252.712 27.3413C250.91 22.5405 247.321 19.5766 243.704 16.0545C243.103 15.4615 242.494 14.7944 242.088 14.086C241.956 13.852 241.817 13.5858 242.094 13.3272C242.503 13.4545 243.315 14.3579 243.607 14.6771C244.041 15.1527 244.641 15.6617 245.118 16.0948C247.764 18.5185 249.823 20.3716 251.762 23.3434C251.938 23.6188 252.05 23.8402 252.226 24.1156C252.403 24.3911 252.471 24.6549 252.657 24.8947C252.593 24.1756 252.425 23.5029 252.272 22.7849C252.059 21.7932 251.86 20.6301 251.558 19.6815L251.236 18.6363C251.182 18.4368 251.157 18.3241 251.096 18.1344C251.033 17.9285 250.974 17.8647 250.907 17.6428C250.857 17.4594 250.828 17.3306 250.757 17.1346C250.264 15.8041 250.227 15.7949 249.195 14.7005C247.465 12.8561 247.113 12.6249 244.868 11.239C244.396 10.9479 242.726 10.0003 242.773 9.46055C243.258 9.26073 245.164 10.3958 245.734 10.6921C246.946 11.3291 247.684 11.7427 248.641 12.625C248.631 12.6187 248.614 12.5802 248.631 12.5767L247.928 11.2973C247.651 10.8488 247.381 10.4325 247.07 9.99089C246.485 9.11684 245.819 8.2761 245.1 7.42958C244.393 6.60549 243.613 5.76297 242.876 4.91989L240.757 2.40565L240.75 2.41542Z" fill="#FFD7D1"/>
<path fill-rule="evenodd" clip-rule="evenodd" d="M293.398 28.0437L293.592 28.1639C293.578 28.3772 293.611 28.522 293.591 28.787C293.28 31.8129 291.403 33.7607 291.166 34.7516C291.095 35.027 291.043 35.189 290.778 35.3861C290.46 35.6193 288.897 38.3025 288.649 38.7318C289.973 37.9403 290.353 37.9388 291.981 37.8344C292.557 37.8013 293.091 37.7009 293.542 37.9794C293.436 38.6071 291.324 38.8015 290.513 39.0086C289.342 39.2978 288.6 40.0465 287.543 40.5731C287.048 40.8086 286.668 41.5172 286.202 42.0751C285.295 43.1519 284.567 43.965 283.527 44.9596L282.185 46.1839C282.663 46.1876 285.257 45.5416 286.246 45.5001C286.682 45.4784 287.699 45.2041 288.284 45.1774C289.046 45.1485 289.811 44.816 290.299 45.2974C289.991 45.8146 288.983 45.9693 288.564 46.0714L285.875 46.6025C284.979 46.7848 284.17 46.8402 283.163 47.0369L281.323 47.3022C280.765 47.3738 280.972 47.1129 280.418 47.5202C280.16 47.7074 279.908 47.885 279.64 48.0659L276.342 50.0251C276.636 50.1506 277.63 50.2931 277.997 50.353C279.808 50.666 280.33 50.4335 281.958 50.0933C283.3 49.8117 282.65 50.853 281.097 51.2536C280.364 51.4532 280.036 51.4864 279.297 51.5022C278.342 51.5368 276.235 51.0403 275.312 50.4707C275.01 50.7005 274.514 50.8521 274.137 50.8277C273.68 50.7947 273.467 51.5787 273.03 51.3647C273.105 50.9117 274.24 49.3929 274.649 48.8551C275.305 47.9977 275.74 47.3788 276.27 46.4714C277.934 43.6158 278.045 40.092 278.874 37.0532C279.096 36.2336 280.092 32.7988 280.773 32.2898C281.003 32.529 280.825 33.1124 280.745 33.4234L279.887 36.8467C279.146 40.0782 279.118 42.9455 277.642 45.9731C276.62 48.0748 275.688 48.8033 274.326 50.4864C275.117 49.8791 276.057 49.2668 276.904 48.7492C278.345 47.8497 279.451 47.1449 280.754 46.0631C281.43 45.496 281.212 45.6247 281.664 44.7247C282.184 43.6592 282.757 42.6673 283.193 41.619C284.902 37.5424 284.012 34.6769 286.416 30.4334C286.588 30.1375 286.755 29.9352 287.027 29.9641C287.2 30.4591 286.282 32.75 286.1 33.511C285.674 35.2727 285.559 37.0046 285.193 38.7204C284.501 41.8995 283.378 42.9952 282.977 44.1206C283.89 42.992 284.989 42.1033 286.065 40.5626C286.541 39.8851 287.06 39.249 287.532 38.5554C288.475 37.1682 289.333 35.7562 290.219 34.389C290.438 34.0666 290.369 33.7608 290.385 33.4377C290.417 32.5559 290.596 31.5012 290.739 30.6051C290.827 30.0906 290.892 29.16 291.302 28.706C291.73 28.72 291.767 29.0069 291.786 29.365C291.857 30.5458 291.687 31.0516 291.593 32.0891C292.415 31.2652 292.758 28.8556 293.408 28.092L293.398 28.0437Z" fill="#FFD7D1"/>
<path fill-rule="evenodd" clip-rule="evenodd" d="M271.246 55.3808C270.871 55.2467 268.658 54.0057 268.416 53.6343C268.135 53.2116 268.84 53.4384 269.02 53.4943C270.661 54.0354 270.088 54.2363 271.808 54.3826C272.951 54.478 274.822 54.5094 276.128 54.5801C276.647 54.6091 279.653 54.9394 279.409 55.8561C279.071 56.1606 278.307 55.828 277.855 55.7433C276.659 55.5323 274.918 55.5671 273.643 55.4734C273.507 55.459 273.46 55.4854 273.341 55.4675C273.574 55.6389 275.876 56.6851 276.08 56.7277C276.089 56.4564 275.976 56.5805 276.148 56.2845C276.91 56.5332 277.007 57.1616 277.655 57.4505C278.01 57.6139 278.279 57.7106 278.633 57.874C278.858 57.9713 279.436 58.3418 279.621 58.262L279.743 58.212C279.743 58.212 279.769 58.1729 279.894 58.1391C280.019 58.1052 280.128 58.1168 280.284 58.1439C282.101 58.4471 282.694 58.4106 284.402 59.4513C286.022 60.4512 285.912 61.0627 284.559 60.4631C283.3 59.8946 282.835 59.5517 281.351 59.3573C282.759 60.476 283.271 60.7085 284.788 62.0745C285.086 62.342 287.616 64.4442 287.504 64.9299C286.627 64.9571 281.53 60.0363 278.673 59.0358C279.36 60.4026 280.941 62.252 282.236 63.2592C282.619 63.5514 283.539 64.1888 283.515 64.6314C282.921 65.0134 280.573 63.1348 280.12 62.6885C279.113 61.7068 278.273 60.4388 277.616 59.2848C277.088 58.3487 277.108 58.3194 276.46 58.0305L273.68 56.703C273.192 56.4573 272.362 55.9447 271.844 55.764C273.273 57.6444 273.407 57.8106 274.215 60.0701C274.268 60.2277 274.225 60.0765 274.268 60.2277L274.834 62.006C274.98 62.4561 275.133 62.7867 275.364 63.2617C275.705 63.958 276.281 64.4382 276.767 65.0294C277.339 65.7293 276.976 66.1568 275.412 64.8172C274.517 64.0568 274.207 63.1858 273.78 62.1871L273.327 60.84C273.088 59.9713 272.92 59.5763 272.614 58.7633C272.343 58.0274 272.024 57.4696 271.614 56.7451C271.141 55.8987 271.131 55.8924 271.232 55.4004L271.246 55.3808Z" fill="#FFD7D1"/>
<path fill-rule="evenodd" clip-rule="evenodd" d="M248.484 91.2588C248.736 90.8876 249.411 90.4723 249.764 90.2322C251.053 89.3636 252.424 88.5038 253.593 87.5334C255.127 86.2614 257.297 84.1614 258.413 82.5201L258.096 82.6016C257.449 82.868 256.889 83.0494 256.171 83.0778C255.487 83.0994 255.036 83.0986 254.326 82.7717C254.228 82.7245 254.129 82.6773 254.05 82.6008L253.901 82.3703C254.035 82.0231 254.307 82.0939 254.565 82.1004C254.832 82.1132 255.118 82.1645 255.365 82.1646C256.914 82.1774 258.249 81.4342 259.567 80.6944C259.927 80.4865 259.927 80.4865 260.145 80.0802C260.293 79.7974 260.497 79.5624 260.645 79.2796C260.936 78.7239 261.277 78.1998 261.544 77.6573C261.904 76.936 262.845 75.1453 262.934 74.479C262.288 74.5937 261.35 75.3739 258.924 75.3463C257.985 75.3355 255.341 75.0072 254.613 74.1284C254.936 73.6756 255.835 73.9807 256.534 74.1075C257.132 74.213 257.889 74.3197 258.482 74.3252C258.845 74.3271 259.109 74.3237 259.435 74.3164L260.372 74.2433C260.883 74.1981 263.259 73.529 263.428 73.2169C263.857 72.4141 264.467 67.7702 264.952 67.057C265.261 67.3308 265.191 67.4124 265.199 67.7222C265.336 71.0524 263.959 75.3476 262.424 78.2694L261.178 80.5515C261.026 80.8181 260.828 80.9594 260.652 81.2393C260.433 81.5617 260.569 81.5761 260.597 81.9406L260.547 83.9203C260.41 85.32 260.099 87.0415 258.999 88.124C258.578 88.5297 258.153 88.9192 257.712 88.6471C257.695 87.9435 258.737 87.5882 259.191 85.6356C259.268 85.3086 259.637 83.2893 259.594 82.8605L259.572 82.7639C258.133 84.816 256.113 86.7172 254.35 88.1534C253.486 88.8681 252.566 89.4931 251.588 90.0543C250.105 90.8865 250.143 90.9377 248.699 91.3917L248.484 91.2588Z" fill="#FFD7D1"/>
<path fill-rule="evenodd" clip-rule="evenodd" d="M255.853 44.0226C256.186 44.2831 256.645 44.9134 257.906 45.8855C258.228 46.1397 258.593 46.3514 258.909 46.6154L256.827 43.8328C256.827 43.8328 253.993 40.3783 255.757 41.4668C256.69 42.0426 259.055 45.1801 259.966 46.1308C259.891 45.599 259.703 45.0396 259.6 44.463C259.523 43.999 259.293 43.0947 259.726 42.7793C260.182 42.9221 260.316 43.5177 260.391 43.8138C260.939 45.7053 261.158 46.3676 262.275 48.1938C262.774 49.0012 262.433 48.8602 262.886 49.2645C263.294 49.6274 264.776 50.9164 265.26 51.104L264.992 50.1485C264.903 49.83 264.811 49.4954 264.779 49.1568C264.754 48.8084 264.947 47.3467 265.146 47.0536C265.458 46.5944 265.687 47.1792 265.737 47.3626C265.884 47.9386 265.828 49.0693 265.999 50.1875L266.155 51.393C266.172 51.6253 266.101 51.6229 266.252 51.7857C266.345 51.8846 266.577 52.014 266.704 52.1061C267.8 52.935 267.156 52.9818 266.239 52.5962C264.518 51.8527 263.077 50.8247 261.722 49.5859C261.275 49.1718 261.354 49.2063 260.777 48.9197C259.259 48.1769 257.601 47.1259 256.45 45.9716C256.006 45.5316 254.831 44.3066 255.333 43.9096C255.495 43.8011 255.586 43.8161 255.853 44.0226Z" fill="#FFD7D1"/>
<path fill-rule="evenodd" clip-rule="evenodd" d="M298.619 82.5796C298.493 82.2519 298.088 81.4337 298.24 81.125C298.335 81.1142 298.371 81.0814 298.484 81.151C298.812 81.3535 299.405 82.3017 299.586 82.6352C299.725 82.9015 299.891 83.1706 300 83.4178L300.632 85.0145C301.063 86.0293 301.454 88.6007 301.801 89.9104C302.076 90.9401 302.543 91.4088 303.32 92.1933C303.478 92.3463 303.948 92.7472 303.829 92.965C303.694 93.2282 303.151 92.9347 302.935 92.8019C301.356 91.8273 301.066 90.885 300.672 89.6437C300.36 88.6468 300.466 89.1975 300.329 88.1144L299.703 85.4814C299.608 85.2566 299.557 84.9892 299.493 84.7414C299.332 84.1429 298.861 83.1448 298.626 82.5698L298.619 82.5796Z" fill="#FFD7D1"/>
<path fill-rule="evenodd" clip-rule="evenodd" d="M265.806 76.0992C265.789 75.867 265.745 75.3542 265.972 75.1059C266.524 75.3637 266.682 76.5014 266.788 77.0102C267.062 78.2336 266.981 77.9893 267.11 78.9982C267.254 80.0715 267.072 82.0949 266.275 83.2672C265.385 84.5763 264.787 85.4555 263.371 86.4677C263.126 86.6354 262.902 86.8578 262.615 86.6806C262.573 86.1 263.952 84.8429 264.431 84.2234C265.742 82.5087 266.223 80.9885 266.101 79.027C266.031 77.9302 265.848 76.9575 265.796 76.0929L265.806 76.0992Z" fill="#FFD7D1"/>
<path fill-rule="evenodd" clip-rule="evenodd" d="M288.096 84.1841C288.019 83.7622 287.934 83.2241 288.208 82.9494C288.293 82.9742 288.3 82.9644 288.392 83.0214C288.689 83.2049 289.029 84.2886 289.184 84.7032C289.739 86.3073 290.627 88.3398 291.625 89.6768C292.647 91.0425 292.752 90.996 293.797 92.1128C294.756 93.121 293.938 93.0183 293.559 92.7842C292.267 91.9868 291.687 91.4485 290.724 90.1885C289.347 88.3817 288.959 87.0467 288.316 85.1241L288.096 84.1841Z" fill="#FFD7D1"/>
<path fill-rule="evenodd" clip-rule="evenodd" d="M270.479 74.3648C270.494 74.5131 270.474 74.5424 270.49 74.6908C270.517 74.9293 270.578 75.161 270.357 75.3995C269.914 75.1952 269.694 74.4489 269.564 74.1471C269.469 73.9223 269.419 73.6969 269.321 73.456L269.112 72.8C268.973 72.3401 268.804 71.9031 268.676 71.4495C268.619 71.2339 268.571 70.9826 268.484 70.79C268.288 70.3082 267.573 67.1629 267.556 66.695C267.539 66.4208 267.5 66.2856 267.449 66.0183C267.113 64.0079 267.953 64.2911 268.443 66.5902C268.498 66.8736 268.59 66.9725 268.652 67.2462C268.871 68.1862 269.193 69.1475 269.38 69.9426L269.873 71.9801C269.934 72.2537 270.017 72.3463 270.082 72.6361L270.462 74.3683L270.479 74.3648Z" fill="#FFD7D1"/>
<path fill-rule="evenodd" clip-rule="evenodd" d="M269.91 50.9229C269.223 51.0122 270.039 48.9776 270.132 48.6052L271.702 43.5553C271.988 42.7058 272.242 41.6695 272.962 41.1019C273.532 41.3563 273.366 41.6425 273.194 42.1741C272.714 43.6943 270.816 50.7888 269.9 50.9165L269.91 50.9229Z" fill="#FFD7D1"/>
<path fill-rule="evenodd" clip-rule="evenodd" d="M266.395 53.0947C266.106 53.4986 265.645 53.4915 265.192 53.5166C264.721 53.5451 264.396 53.5944 263.919 53.5907C263.078 53.5851 262.178 53.4318 261.225 53.1209C260.102 52.7606 255.947 50.2655 256.099 49.5274C256.57 49.3052 258.208 50.3436 258.792 50.7043C260.699 51.8813 261.833 52.4837 264.018 52.6952C264.561 52.7529 266.014 52.6927 266.395 53.0947Z" fill="#FFD7D1"/>
<path fill-rule="evenodd" clip-rule="evenodd" d="M297.891 65.9874C295.8 64.6965 293.5 65.5519 292.496 64.9317C292.362 64.8495 291.768 64.5244 292.198 64.2768C292.34 64.1976 292.551 64.2724 292.768 64.2955C293.61 64.385 294.866 64.0786 296.231 64.2972C296.965 64.4171 298.079 64.897 298.74 65.4021C299.185 65.7322 299.908 66.2752 300.199 66.7462C300.334 66.9543 300.356 67.0509 300.213 67.2819C299.647 67.2374 299.368 66.8987 298.896 66.6076L297.891 65.9874Z" fill="#FFD7D1"/>
<path fill-rule="evenodd" clip-rule="evenodd" d="M271.872 62.9375C272.693 63.9571 270.748 63.5199 269.423 61.7867C268.474 60.5491 268.449 59.4517 268.109 57.9386C268.066 57.7454 267.566 55.6338 268.394 56.4499C268.858 56.9025 269.322 58.6595 269.46 59.3131C269.969 61.5409 271.076 61.9467 271.872 62.9375Z" fill="#FFD7D1"/>
<path fill-rule="evenodd" clip-rule="evenodd" d="M245.585 38.337C246.428 37.9971 248.316 40.2302 252.019 40.4354C252.395 40.4598 252.636 40.4696 253.044 40.5549C253.608 40.6673 253.873 40.9836 253.211 41.1436C252.188 41.3857 250.466 41.3493 249.2 40.9423C248.383 40.6878 247.774 40.2983 246.975 39.8047C246.646 39.6022 246.219 39.3106 245.965 39.0845C245.8 38.9413 245.461 38.6905 245.475 38.4773C245.483 38.2738 245.568 38.3405 245.582 38.321L245.585 38.337Z" fill="#FFD7D1"/>
<path fill-rule="evenodd" clip-rule="evenodd" d="M266.147 62.5382C266.276 63.0337 265.178 64.0484 264.821 64.4242C264.296 64.9602 263.713 65.3905 263.094 65.7438C262.405 66.1366 261.838 66.3278 261.216 66.4292C260.875 66.482 260.594 66.5307 260.263 66.5897C259.695 66.697 259.562 66.6147 259.351 66.3461C259.692 65.5024 260.605 65.5943 261.532 65.2791C261.681 65.2321 261.809 65.2143 261.981 65.154C263.353 64.6557 264.258 63.6887 265.318 62.9005C265.644 62.6575 265.905 62.4443 266.157 62.5445L266.147 62.5382Z" fill="#FFD7D1"/>
<path fill-rule="evenodd" clip-rule="evenodd" d="M256.299 66.4039C255.861 67.0487 253.717 68.1249 252.882 68.497C252.08 68.8622 252.301 68.6657 251.881 68.1706C252.173 67.7407 252.49 67.6173 252.931 67.3761C253.401 67.1119 255.727 65.704 256.157 65.9698C256.434 66.1407 256.465 66.1597 256.299 66.4039Z" fill="#FFD7D1"/>
<path fill-rule="evenodd" clip-rule="evenodd" d="M281.676 85.9631C282.086 86.2162 282.884 86.5839 282.618 86.9747C282.326 87.4045 281.085 86.8326 280.982 86.7693C280.377 86.3959 280.428 86.4275 280.298 85.848C280.244 85.6066 280.108 85.3145 280.314 85.0116C280.54 84.6795 280.943 85.1781 281.047 85.3253C281.396 85.8181 281.03 85.5644 281.676 85.9631Z" fill="#FFD7D1"/>
<path d="M78.222 139.939C78.1818 139.877 78.1483 139.826 78.1081 139.765C78.0337 139.741 77.9491 139.723 77.8748 139.699C77.75 139.62 76.1475 138.669 75.7122 138.428C75.3285 133.984 67.2751 132.021 62.4858 131.761C61.1943 127.269 53.1534 128.182 52.4783 128.289C52.0375 128.33 51.6778 128.406 51.3755 128.502C51.0906 126.26 50.384 124.223 49.2423 122.369C53.6682 121.829 57.5588 118.554 58.5174 114.953C55.0141 116.276 50.7562 117.452 47.1269 116.575C50.2326 114.957 52.4574 111.036 51.6287 106.737C51.5634 106.414 50.8847 105.178 50.9642 104.965C48.9163 111.521 43.3313 110.715 40.5704 111.99C42.7733 109.195 44.0357 104.384 42.9908 100.448C42.7864 99.6894 42.7655 98.8544 42.6357 98.0764C42.5837 97.774 42.0635 96.1992 42.2106 96C40.9064 97.7795 39.3137 99.1634 37.8212 100.745C37.3123 101.284 36.8034 101.824 36.3182 102.377C36.3687 101.963 36.3649 101.556 36.2801 101.114C36.2052 100.71 36.0827 100.322 35.8922 99.9646C35.6682 99.5559 35.2103 99.1693 35.0951 98.7036C35.0358 98.4792 34.7345 98.4432 34.5876 98.5983C33.8358 99.4585 33.1232 100.512 32.5455 101.639C32.8158 98.5488 30.5478 96.4259 27.9257 96.3503C29.3725 100.008 25.7452 101.589 24.4759 104.604C24.5794 104.36 21.9353 100.86 21.6168 100.396C20.7013 99.1108 20.1564 97.6546 19.2409 96.369C14.3966 104.413 16.9901 110.624 21.4958 112.124C21.4958 112.124 21.4958 112.124 21.4855 112.131C12.0289 115.7 8.42786 128.809 9.05437 138.889C9.15207 140.332 9.35601 142.071 9.72879 143.889C7.62429 144.38 4.79418 145.392 4.44617 147.538C4.27233 148.589 4.67012 149.776 4.97443 150.776C5.48319 152.534 5.39551 152.021 4.32534 153.31C3.99363 153.718 3.90062 154.379 4.27399 154.748C3.42913 156.27 1.52463 159.029 1.98517 160.892C2.06076 161.208 3.38141 163.603 3.43568 163.597C2.41424 163.8 1.45587 164.635 0.901954 165.307C0.440298 165.874 1.54278 170.724 1.84221 170.556C0.923485 171.072 -0.155406 171.255 0.0186353 172.458C0.396052 175.019 1.35523 178.178 3.2253 180.051C2.3578 181.426 0.500352 181.96 0.253927 183.658C-0.0103984 185.485 1.50475 187.24 2.33084 188.702C3.49802 190.773 5.77984 191.043 6.18991 191.49C6.63029 191.962 5.53416 192.185 5.42236 192.639C5.36294 192.883 5.6067 193.366 5.71008 193.591C5.85651 193.948 6.12169 194.286 6.37028 194.576C6.90097 195.208 7.54754 195.748 8.19092 196.262C8.5075 196.522 12.4995 198.755 12.5455 198.491C12.2172 200.711 12.9886 203.16 14.672 204.614C14.2055 205.374 14.3361 206.488 15.2199 207.034C15.3539 207.238 36.628 222.105 49.2411 231.517C67.9144 235.231 92.8755 216.754 97.7041 202.619C98.1164 201.397 97.8721 200.533 98 199.278C97.9834 199.231 90.725 163.705 88.4462 159.379C88.4437 159.264 88.4242 159.145 88.4048 159.026C88.6683 158.224 88.062 157.276 87.5205 156.739C86.9352 156.159 86.182 155.834 85.3786 155.88C85.4693 155.527 85.5364 155.161 85.5933 154.802C85.7505 153.704 85.941 152.232 85.4609 151.187C85.5324 151.14 85.5669 151.059 85.527 150.953C84.3094 146.998 81.8494 142.441 78.2287 139.949L78.222 139.939ZM74.9176 139.112C71.834 138.667 67.5977 139.228 63.9991 141.053C59.684 142.632 53.0212 145.067 40.1624 148.196C53.2893 139.989 57.7906 131.132 74.4983 138.539C74.6256 138.733 74.7734 138.914 74.9278 139.105L74.9176 139.112ZM51.8254 129.055C51.8254 129.055 51.8593 129.062 51.8762 129.065C53.7881 128.949 55.634 129.067 57.4769 129.582C59.0018 130.013 61.0988 130.537 62.2553 131.766C57.5537 131.551 54.3396 132.713 53.9125 132.731C60.6308 132.41 69.4491 131.748 73.6661 137.447C58.505 130.75 51.7912 139.13 43.0761 144.144C48.4528 139.233 51.9866 135.636 51.4118 129.093C51.5372 129.083 51.6627 129.074 51.805 129.068L51.8254 129.055ZM57.1002 116.426C57.0287 116.473 54.3684 121.09 48.4213 121.138C48.2502 120.899 48.069 120.667 47.8708 120.432C50.7717 119.929 52.0107 118.719 52.0787 118.689C50.4533 118.997 49.2438 119.427 47.1317 119.572C46.2746 118.643 45.2747 117.764 44.4763 117.147C45.15 117.216 45.8149 117.116 46.4572 116.869C49.7432 118.337 53.9725 118.278 57.1105 116.419L57.1002 116.426ZM50.8441 106.99C51.0264 113.469 47.2166 114.994 43.8495 116.682C43.5124 116.435 43.155 116.202 42.7976 115.968C46.5818 114.695 47.5261 112.098 47.5501 112.068C44.2323 114.41 42.9341 114.928 41.7788 115.351C40.2539 114.451 39.2304 114.027 38.8624 113.844C42.4784 111.042 48.734 113.25 50.8508 107L50.8441 106.99ZM41.8918 97.4096C43.1697 106.476 41.0263 108.09 38.4858 113.448C38.4446 113.519 38.4644 113.594 38.5046 113.655C38.5046 113.655 38.5046 113.655 38.4944 113.662C38.437 113.641 38.0655 113.476 37.2174 113.141C38.3017 108.594 39.1588 106.333 39.901 104.03C40.1332 103.336 40.2824 102.872 40.3692 102.581C40.4561 102.29 40.4909 102.165 40.4909 102.165C40.4909 102.165 40.4089 102.262 40.2342 102.509C40.0663 102.766 39.7956 103.178 39.452 103.814C37.9809 106.61 36.9861 109.62 36.2983 112.809C35.7407 112.605 35.1694 112.424 34.6115 112.264C34.4173 111.031 33.6385 109.597 33.8816 108.34C34.2203 106.537 35.3521 105.163 36.4066 103.694C37.9302 101.58 40.6006 99.7219 41.8985 97.4198L41.8918 97.4096ZM34.8981 99.2282C35.5504 99.9114 35.7472 102.152 35.6618 103.16C35.1487 103.804 34.6727 104.483 34.264 105.22C33.5564 106.505 32.971 108.222 32.9895 109.834C32.1634 108.372 31.6083 106.923 31.8969 105.021C31.9043 104.943 31.9183 104.875 31.9426 104.801C33.8648 101.02 31.1623 105.841 34.9048 99.2384L34.8981 99.2282ZM28.3143 100.602C28.8596 99.7163 29.3 98.3585 29.1831 97.2209C33.0795 99.9997 30.8198 102.686 30.5684 105.514C30.3575 107.892 31.2316 110.653 33.4085 111.812C33.4353 111.853 33.4621 111.893 33.472 111.931C33.2285 111.871 32.6301 111.694 31.4558 111.486C26.2759 105.878 29.7144 101.422 29.708 101.368C29.708 101.368 29.6058 101.435 29.3843 101.61C29.1659 101.812 28.8314 102.149 28.4811 102.775C28.1477 103.404 27.7952 104.338 27.7687 105.614C27.7356 106.879 28.1065 108.494 29.1417 110.096C29.4231 110.525 29.7049 110.911 29.987 111.252C29.083 111.144 28.6461 111.124 28.5749 111.127C27.0478 110.068 25.3559 109.293 24.9838 107.386C24.465 104.699 27.0419 102.653 28.3143 100.602ZM19.2278 98.1335C20.9663 100.385 21.8144 103.442 24.1706 105.565C23.7664 107.514 24.7813 110.022 26.647 111.107C26.2471 111.121 25.8605 111.156 25.474 111.191C22.1436 107.937 21.0571 105.945 19.2322 103.472C19.2791 103.543 19.8491 107.09 24.2495 111.352C23.9374 111.411 23.6252 111.47 23.3197 111.539C12.6564 106.04 19.0219 101.678 19.238 98.1268L19.2278 98.1335ZM10.8279 141.439C10.3142 138.982 10.5046 136.15 10.6689 133.657C11.1875 125.882 14.2266 115.441 22.5445 112.81C35.9809 108.554 54.4826 123.049 49.1516 134.12C47.5547 137.438 44.9349 140.244 42.334 142.788C38.0845 146.944 32.815 150.189 27.1197 151.915C19.6924 154.165 15.2016 155.23 12.2354 148.562C10.6365 143.936 11.519 144.658 10.8381 141.433L10.8279 141.439ZM5.44619 147.481C5.40313 147.348 5.40411 147.216 5.44914 147.084C5.52866 146.87 5.73297 146.736 5.92706 146.608C7.11522 145.856 8.35887 145.39 9.5869 144.743C10.1091 146.521 10.5112 148.496 11.6386 149.993C12.578 151.249 13.4576 153.26 15.056 153.848C13.1298 153.139 11.1574 152.271 9.37593 151.247C7.99592 150.457 6.80175 149.282 5.80453 148.05C5.66348 147.879 5.51924 147.681 5.4564 147.474L5.44619 147.481ZM6.36953 152.727C6.7712 152.023 5.96096 151.166 5.53106 149.283C6.52641 150.311 7.44616 151.024 8.24882 151.535C8.56925 151.734 8.85935 151.909 9.12936 152.053C9.91158 152.578 12.5905 154.123 15.2422 154.779C16.162 155.491 17.212 156.001 18.3929 156.219C17.5256 156.658 12.5465 157.313 7.51905 155.351C6.68795 155.019 5.96922 154.614 5.20326 154.181C5.36188 154.267 6.27694 152.875 6.36953 152.727ZM1.75315 165.669C1.75315 165.669 1.7404 165.56 1.73403 165.506C3.93272 166.474 5.23602 166.188 5.3206 166.205C4.24278 165.788 3.55592 165.654 2.21228 164.986C2.89956 164.608 4.38199 163.925 4.42956 163.909C5.13343 163.578 5.62654 163.795 6.34306 164.041C11.2981 165.714 16.3671 165.731 21.4969 164.86C28.2451 163.715 34.8754 161.097 41.4109 158.935C41.7336 158.826 42.0461 158.723 42.3755 158.623C52.9969 155.18 63.1833 154.174 74.1284 156.4C77.0651 157.001 79.9465 158.208 82.8835 158.764C82.7637 159.384 82.6643 159.991 82.5107 160.604C81.8918 160.441 81.2289 160.277 80.5219 160.112C76.0194 159.108 73.117 158.894 71.3931 158.784C67.3727 158.56 64.2482 158.61 59.984 159.263C57.7078 159.603 55.1558 160.126 52.3143 160.853C49.466 161.57 46.3385 162.485 42.8476 163.493C25.5838 168.465 21.2085 167.655 7.0566 166.513C7.21236 166.527 14.7655 168.775 25.3058 168.019C27.6892 167.841 30.3481 167.527 33.2768 166.933C36.2019 166.356 39.3933 165.515 42.8739 164.514C46.1372 163.583 49.0748 162.69 51.7638 161.976C58.6359 160.105 65.7043 158.735 72.8185 159.398C74.5344 159.674 76.9474 160.078 80.2795 160.813C81.0034 160.981 81.6766 161.138 82.3159 161.289C82.2814 161.37 82.2638 161.455 82.2293 161.536C81.9828 161.873 81.7399 162.194 81.4768 162.484C80.3932 163.753 79.1476 164.484 77.8943 165.337C77.5138 165.471 77.1369 165.587 76.743 165.699C52.6594 160.465 28.7772 176.93 4.01633 169.814C3.64099 169.71 2.84175 169.65 2.58646 169.35C2.17991 168.885 1.80952 166.29 1.74293 165.675L1.75315 165.669ZM1.15896 173.127C3.83398 175.202 9.65036 177.699 15.3423 178.243C24.6464 179.237 34.7452 175.888 44.0266 174.014C53.1892 172.159 58.0982 172.736 58.6169 172.702C58.2578 172.689 54.1194 171.46 44.7421 173.031C37.112 174.303 29.9927 176.599 22.1939 177.323C14.5377 177.997 7.09029 177.026 1.16936 172.184C1.38969 171.717 4.13874 170.67 4.60602 170.714C5.30024 170.77 11.1857 173.997 24.2726 173C46.4931 171.309 50.741 164.185 76.3039 166.413C75.0449 167.123 73.8982 168.229 72.8938 169.328C71.4154 169.013 69.7471 168.719 67.868 168.506C60.291 167.65 56.1277 168.413 49.1666 169.946C55.7746 168.967 60.8948 168.482 67.6493 169.221C69.3894 169.423 70.9362 169.664 72.3539 169.932C72.1694 170.141 71.9951 170.343 71.831 170.539C70.4942 172.135 69.1415 174.064 68.5503 176.106C64.3967 176.013 62.2518 174.19 50.6434 176.862C35.9394 180.254 22.1731 185.59 10.3827 182.207C5.52043 180.809 1.75232 178.093 1.16918 173.12L1.15896 173.127ZM2.00272 185.435C1.59176 184.651 1.25222 184.289 1.24496 183.899C1.54176 184.084 1.84878 184.263 2.17942 184.455C6.03989 186.599 8.74879 186.852 13.7506 187.704C20.5532 188.806 28.2859 188.316 35.682 185.706C36.8915 185.276 37.6736 184.908 38.17 184.684C38.6663 184.46 38.8636 184.36 38.8636 184.36C38.8636 184.36 38.7008 184.379 38.2629 184.491C38.0388 184.551 37.7502 184.624 37.3666 184.73C36.9896 184.846 36.5143 184.968 35.9372 185.114C35.36 185.259 34.6843 185.454 33.863 185.629C33.4557 185.721 33.0279 185.827 32.5562 185.932C32.0777 186.027 31.5721 186.125 31.0291 186.234C22.2441 187.884 9.73808 187.782 2.59066 183.834C2.20257 183.62 1.86522 183.418 1.52788 183.215C1.62718 183.077 1.75361 182.935 1.9209 182.767C2.58686 182.065 3.18196 181.323 3.78729 180.574C15.823 191.536 38.9481 179.827 60.9695 176.672C62.289 176.477 63.8411 176.905 65.1514 177.053C62.7546 177.21 60.3724 177.679 58.0996 178.471C57.7822 180.597 57.4547 182.729 57.144 184.865C51.4877 183.17 45.9233 183.244 40.1502 184.494C39.7905 184.57 50.8267 184.571 55.9517 185.722C55.4223 186.275 52.2701 187.777 50.4843 189.156C37.5708 186.424 21.5138 194.51 7.93893 190.501C3.64164 189.23 3.53935 188.404 1.98899 185.458L2.00272 185.435ZM6.05946 192.63C6.05946 192.63 6.11053 192.596 6.13096 192.583C18.0937 197.857 28.9226 193.838 28.9769 193.832C21.9861 195.253 13.7795 194.753 6.60757 192.284C6.83231 192.136 7.05353 192.005 7.28496 191.868C15.6066 194.663 23.9345 192.962 32.679 191.295C32.272 193.172 31.4347 195.04 30.2001 196.568C19.8655 197.906 12.2325 199.574 6.05276 192.619L6.05946 192.63ZM96.6757 199.198C94.5271 208.367 87.2347 216.176 79.6185 221.506C68.1396 229.552 58.8193 231.189 49.0906 230.328C38.7626 221.213 19.2063 208.188 17.0833 207.067C17.7945 206.658 17.9389 205.919 18.5723 205.502C18.6259 205.584 18.9968 207.199 20.374 207.449C20.6211 207.491 20.8924 207.459 21.0826 207.393C21.4867 207.273 21.7626 207.092 22.0313 206.944L22.4399 206.676C35.9818 217.862 44.3944 223.919 44.3944 223.919C44.3944 223.919 37.7665 217.552 25.752 207.38C26.5624 207.301 27.209 206.481 27.6914 205.856C32.6978 210.642 37.9467 214.726 43.966 219.562C45.8926 221.12 47.3609 222.334 48.3544 223.159C49.3377 223.99 49.8562 224.425 49.8562 224.425C49.8562 224.425 49.4025 223.933 48.5217 222.991C43.0207 217.272 36.7324 212.159 30.8502 206.662C31.6007 206.447 33.18 204.574 33.5689 204.23C38.8775 209.856 44.3218 214.997 56.3513 226.329C56.3513 226.329 55.8778 225.763 54.9641 224.68C49.1891 217.986 42.6499 211.531 36.205 204.707C36.2659 204.71 36.391 204.745 36.6046 204.736C37.6247 204.709 38.3277 204.042 38.7347 203.526C39.0802 203.094 39.3375 202.661 39.584 202.324C52.4872 216.93 61.0521 225.74 62.6461 227.37C61.2502 227.805 60.0449 228.129 59.0334 228.37C58.1272 228.571 57.3869 228.78 56.7626 228.897C56.1382 229.015 55.6428 229.107 55.2662 229.179C54.5094 229.34 54.1972 229.399 54.1972 229.399C54.1972 229.399 54.4988 229.391 55.2684 229.339C55.6549 229.304 56.15 229.256 56.7772 229.21C57.4044 229.163 58.1679 229.012 59.0703 228.873C60.8955 228.58 63.2987 228.009 66.3695 226.985C67.134 226.701 67.9359 226.408 68.7786 226.088C69.6047 225.721 70.4953 225.34 71.4166 224.939C79.4325 220.999 85.5806 216.24 90.9603 209.102C91.4807 208.38 91.9459 207.796 92.2582 207.268C92.5874 206.745 93.2665 205.64 93.5992 205.099C93.377 205.362 93.7773 204.835 92.2417 206.753C92.0741 206.965 91.8825 207.208 91.6772 207.475C91.455 207.738 91.2124 208.015 90.9423 208.339C84.3317 216.051 76.4954 222.272 66.196 226.162C64.9151 226.639 63.7464 227.041 62.6902 227.37C61.3206 225.637 53.7772 216.154 41.1003 201.648C41.3604 201.755 41.7086 201.863 41.9793 201.919C44.263 202.393 45.124 199.602 45.4248 199.258C59.6015 215.295 68.4668 224.274 68.4668 224.274C68.4668 224.274 61.3175 215.103 48.2884 200.126C48.3829 199.713 48.5554 199.307 48.7412 198.921C49.6866 198.914 50.6903 198.371 51.1626 197.285C53.2023 198.212 52.8897 198.783 60.3699 206.742C70.8936 217.805 68.9437 215.722 73.7257 221.079C70.6094 216.836 70.1017 215.838 61.3388 205.856C58.7718 202.92 55.8283 199.587 52.814 195.746C53.3729 195.773 54.1102 195.961 54.8715 195.651C56.4516 195.051 56.8454 193.578 57.2583 192.735C63.1783 200.9 67.324 205.242 77.6456 217.96C69.5231 205.698 66.1321 202.396 58.5394 191.791C58.7833 191.806 59.1117 191.839 59.5011 191.875C62.8164 192.139 62.4786 189.727 62.8203 188.888C65.4738 192.937 68.0943 196.424 70.4133 199.45C72.9103 202.68 75.055 205.44 76.7935 207.692C79.5722 211.308 81.5309 214.03 82.0341 214.709C81.6793 214.122 80.2585 211.53 77.4067 207.245C75.8352 204.869 73.8268 202.005 71.4559 198.676C69.2528 195.559 66.7546 192.037 64.155 188.025C64.8275 187.802 67.1693 188.208 68.0869 185.571C68.2395 185.09 68.3708 184.755 68.5215 184.539C79.2071 201.627 86.0814 211.316 86.0814 211.316C86.0814 211.316 80.5165 200.971 70.0537 183.999C73.0886 183.701 73.1494 180.983 73.5527 180.528C83.9141 198.371 90.6157 208.509 90.6157 208.509C90.6157 208.509 85.1502 197.558 74.8171 179.536C75.4176 179.448 76.5258 179.422 77.3535 178.833C77.7111 178.598 78.0731 178.214 78.2523 177.818C78.3452 177.625 78.4008 177.442 78.463 177.27C86.9117 194.424 92.4774 204.212 92.4774 204.212C92.4774 204.212 88.0808 193.509 79.5409 175.859C79.5281 175.75 79.5052 175.648 79.4822 175.546C79.645 175.527 79.8145 175.518 80.0516 175.523C80.194 175.517 80.3769 175.528 80.6042 175.496C81.4653 175.427 82.1383 174.692 82.0093 173.357C89.6774 190.235 89.5457 191.083 94.3413 200.075C90.754 190.361 90.8333 189.256 83.0077 171.691C83.1434 171.675 83.2995 171.646 83.4623 171.627C83.8016 171.564 84.1885 171.486 84.6073 171.21C85.1219 170.813 85.4102 170.316 85.3686 169.539C89.0479 178.723 92.2043 187.154 92.2043 187.154C92.2043 187.154 90.0737 177.478 86.1153 167.087C87.0989 166.045 86.9264 165.09 86.7667 164.244C86.7112 163.959 86.6656 163.711 86.6538 163.47C86.6421 163.229 86.6737 163.076 86.7289 162.938C86.8011 162.802 86.9719 162.617 87.1769 162.394C87.3818 162.172 87.6005 161.925 87.7854 161.672C87.8678 161.53 87.9671 161.392 88.0596 161.243C88.066 161.297 95.4936 195.03 96.6722 199.215L96.6757 199.198ZM87.1279 158.036C87.536 158.749 87.5196 159.593 87.243 160.331C87.0632 160.815 86.7752 161.268 86.4269 161.629C86.2357 161.828 85.9867 162.05 85.7843 162.388C85.5885 162.736 85.5482 163.143 85.5593 163.472C85.5704 163.802 85.6122 164.111 85.6642 164.413C85.7161 164.716 85.7751 164.984 85.7668 165.194C85.7585 165.405 85.6927 165.594 85.5723 165.835C85.4656 166.051 85.3255 166.216 85.1244 166.378C84.9299 166.55 84.6848 166.711 84.4287 166.967C84.1558 167.22 83.9425 167.653 83.943 168.033C83.9165 168.416 84.0224 168.756 84.0645 169.021C84.1132 169.296 84.1588 169.544 84.1336 169.751C84.1083 169.958 84.0432 170.059 83.9069 170.164C83.7639 170.258 83.5296 170.324 83.2716 170.376C83.007 170.419 82.7121 170.437 82.4101 170.489C82.1015 170.531 81.7417 170.607 81.4046 170.829C81.0608 171.04 80.7936 171.435 80.7265 171.801C80.6607 171.991 80.6798 172.154 80.6514 172.334C80.6501 172.51 80.6625 172.663 80.6714 172.833C80.6895 173.128 80.7147 173.389 80.7127 173.654C80.7143 173.902 80.6379 174.142 80.6108 174.145C80.6309 174.176 80.3698 174.201 80.0886 174.196C79.7972 174.198 79.4652 174.182 79.1259 174.244C78.7831 174.323 78.4639 174.416 78.1233 174.654C77.7996 174.897 77.5834 175.258 77.4828 175.573C77.2612 176.216 77.2298 176.793 77.02 177.209C76.9169 177.409 76.7904 177.55 76.5963 177.678C76.4023 177.805 76.1814 177.892 75.9368 177.965C75.4513 178.094 74.8618 178.087 74.2135 178.235C73.562 178.356 72.8808 178.833 72.5477 179.418C72.1809 179.996 72.0276 180.565 71.8034 181.093C71.5997 181.607 71.3184 182.07 70.9813 182.292C70.6237 182.527 70.0881 182.557 69.4845 182.618C69.1861 182.653 68.8605 182.692 68.5276 182.808C67.4336 183.191 67.068 184.061 66.7215 185.093C65.8448 187.704 62.2509 185.253 61.3035 188.714C61.0039 189.819 61.2751 190.255 60.3696 190.368C59.3858 190.517 58.6636 190.129 57.6957 190.414C57.3392 190.517 57.0158 190.715 56.7735 190.947C55.9067 191.766 55.8057 192.593 55.3868 193.337C54.5106 194.967 53.4668 194.087 51.828 194.375C49.4314 194.956 50.5651 196.976 49.0198 197.45C48.1672 197.733 46.7324 196.569 45.5589 197.165C44.9029 197.436 44.5192 198.01 44.1657 198.608C43.5581 199.666 43.1978 200.723 42.2537 200.553C41.8883 200.486 41.4632 200.239 40.9656 200.171C40.451 200.1 39.813 200.241 39.404 200.554C38.6171 201.116 38.2311 201.999 37.6803 202.697C36.3282 204.538 35.62 202.252 34.1719 202.429C32.6391 202.588 31.3302 205.454 30.0007 205.611C29.9778 205.509 30.3209 204.025 28.6918 203.926C28.3158 203.909 27.888 204.015 27.5915 204.254C26.8863 204.762 26.0344 206.317 25.6453 206.236C25.4107 206.347 24.8214 204.934 23.5683 204.851C23.3685 204.836 23.1141 204.872 22.9168 204.972C22.5223 205.173 22.3409 205.409 22.1296 205.577C21.4509 206.17 20.0822 204.773 18.9229 204.833C17.7128 204.882 16.7523 205.558 15.7403 204.482C15.2932 204 15.0471 202.465 15.1229 201.844C15.2028 201.118 15.6122 200.293 16.2589 199.897C16.545 199.709 17.9404 199.787 18.3982 199.749C33.4822 198.566 31.3133 198.602 34.7477 192.422C35.5885 192.367 49.2941 190.173 50.6993 189.864C50.9837 189.896 50.9326 189.93 51.2898 189.739C51.3102 189.725 51.3271 189.729 51.3543 189.726C51.3916 189.716 51.4156 189.685 51.4462 189.665C52.4329 189.119 57.3697 186.414 57.7592 185.982C58.1145 185.588 59.3392 180.831 59.4925 180.262C60.7811 180.132 69.4664 177.303 69.4135 177.133C69.8767 176.814 72.2384 173.169 73.2004 171.848C73.9433 170.818 74.8612 169.966 75.7353 169.069C75.7144 169.595 76.2122 170.087 76.8133 169.911C76.9729 169.865 77.1226 169.781 77.2723 169.697C77.5169 169.624 77.7247 169.473 77.8451 169.233C77.9862 168.935 77.9719 168.579 77.791 168.303C77.61 168.027 77.2893 167.872 76.9605 167.883C76.9063 167.889 76.8418 167.903 76.7942 167.919C76.9721 167.7 77.1601 167.474 77.321 167.251C77.3622 167.18 77.3865 167.105 77.3836 167.034C79.0767 166.74 80.6444 165.519 81.8323 164.343C83.9997 162.23 85.679 160.131 85.2657 156.934C86.0279 156.96 86.7734 157.406 87.1547 158.077L87.1279 158.036ZM84.1078 157.71C81.3601 156.752 78.7513 155.804 75.8861 155.157C66.5359 153.067 56.6038 153.145 46.7643 155.796C46.289 155.918 45.8102 156.057 45.3416 156.19C38.3293 158.225 31.592 161.105 24.4971 162.858C22.2939 163.4 19.9627 164.303 17.7079 164.498C12.5712 164.935 7.70816 162.733 6.37178 162.456C5.14359 162.21 3.83786 161.913 3.00849 160.892C2.33357 160.063 2.85155 158.757 3.55209 157.506C4.49996 158.082 5.88766 158.75 7.30731 159.222C7.36476 159.242 7.43242 159.256 7.48987 159.277C7.44583 159.277 7.42221 159.263 7.42221 159.263C7.42221 159.263 7.48987 159.277 7.6319 159.315C9.86639 160.026 11.0863 160.014 11.154 160.028C11.154 160.028 11.1135 160.011 11.0426 159.97C19.2924 161.027 27.8123 158.571 35.5707 156.001C38.6379 154.994 41.9979 153.808 45.747 152.704C55.5278 149.74 64.6736 149.243 74.4806 150.959C78.2008 151.908 80.9667 152.694 84.1677 153.764C84.4035 153.946 84.3901 153.925 84.5248 154.041C84.4995 154.248 83.2496 157.382 84.1216 157.687L84.1078 157.71ZM84.5821 153.17C71.0982 148.764 60.085 147.505 45.7207 151.682C41.9072 152.8 38.5267 153.998 35.4694 155.043C27.2925 157.845 18.7036 160.463 10.0829 159.621C8.09257 158.881 6.07195 158.117 3.91609 156.857C4.3382 156.14 4.76668 155.478 4.98382 154.984C4.59775 155.867 11.1098 157.775 11.7663 157.884C15.4451 158.48 20.1556 157.504 23.1908 155.332C41.4765 148.283 58.3131 144.265 77.2342 149.295C79.7333 149.963 82.149 150.906 84.6446 151.592C84.5998 152.148 84.5994 152.661 84.5856 153.153L84.5821 153.17ZM84.9193 150.651C74.2376 144.9 56.2033 145.931 54.7465 145.893C63.03 142.875 68.5822 138.522 76.6618 140.145C77.8231 141.181 79.0358 142.14 80.139 143.244C73.2545 141.771 68.3882 143.201 68.3339 143.207C70.3358 143.295 75.1907 142.942 81.3019 144.528C83.4138 147.148 84.8313 150.182 84.9193 150.651Z" fill="#FFD7D1"/>
<path d="M39.3308 144.207C40.5826 143.106 41.8934 141.805 43.1759 140.215C45.5732 137.248 46.984 134.36 47.5954 131.88C49.0661 125.938 46.0725 122.507 46.0262 122.347C46.164 122.959 48.1327 126.142 46.9233 131.122C46.3499 133.504 44.9832 136.393 42.4968 139.491C41.2587 141.037 39.9852 142.328 38.7877 143.423C32.2681 149.378 27.12 150.89 26.5718 151.236C26.8473 151.099 32.0862 150.595 39.3375 144.217L39.3308 144.207Z" fill="#FFD7D1"/>
<path d="M30.5224 147.672C30.7095 147.579 32.8009 147.023 36.0737 144.344C37.3727 143.27 38.8882 141.791 40.4216 139.714C41.8491 137.766 42.7703 136.004 43.4182 134.539C44.0256 133.057 44.4172 131.892 44.6238 130.981C44.8542 130.083 44.9468 129.466 45.0005 129.079C45.0542 128.693 45.0623 128.527 45.0623 128.527C45.0623 128.527 44.9971 128.628 44.8729 128.929C44.7318 129.227 44.5788 129.752 44.2374 130.547C44.0752 130.946 43.9056 131.424 43.661 131.965C43.5438 132.232 43.4196 132.533 43.2749 132.848C43.1303 133.163 42.9652 133.491 42.7931 133.853C42.0947 135.263 41.1397 137.018 39.6675 139.054C38.1887 141.08 36.7613 142.56 35.5568 143.689C33.1379 145.909 31.8377 146.69 30.5122 147.679L30.5224 147.672Z" fill="#FFD7D1"/>
<path d="M31.3824 119.539C31.4427 119.631 31.4695 119.672 31.4695 119.672C31.4695 119.672 31.4801 119.621 31.4944 119.509C31.545 119.095 31.4847 118.535 31.6176 117.979C31.8345 117.061 32.5074 116.794 32.9699 117.031C33.3682 117.238 33.3103 117.729 33.0734 118.149C32.8231 118.547 32.6561 118.672 32.6628 118.682C32.636 118.641 33.1738 118.77 33.6361 118.115C34.0266 117.551 33.9233 116.858 33.4347 116.492C32.8115 116.009 31.7974 116.134 31.2827 117C31.1042 117.307 31.0342 117.602 31.0086 117.853C30.9607 118.382 31.08 118.742 31.1661 119.008C31.2522 119.273 31.3425 119.433 31.3926 119.532L31.3824 119.539Z" fill="#FFD7D1"/>
<path d="M22.4026 120.088C22.2823 119.86 22.0634 119.682 21.847 119.619C21.3366 119.443 20.7423 119.629 20.4038 120.027C20.0549 120.476 20.0248 120.876 20.0126 121.148C20.0071 121.429 20.033 121.602 20.0524 121.721C20.0719 121.84 20.0885 121.888 20.0885 121.888C20.4451 121.317 20.5161 120.421 21.2761 120.287C21.6968 120.216 21.9458 120.462 21.7075 121.057C21.5661 121.399 21.1858 121.956 20.8345 122.714C20.597 123.222 20.565 123.418 20.565 123.418C21.4455 122.576 23.0146 121.178 22.4093 120.098L22.4026 120.088Z" fill="#FFD7D1"/>
<path d="M16.8169 130.77C16.884 130.872 16.9041 130.903 16.9041 130.903C16.9615 130.924 16.9234 130.13 17.6499 129.944C18.2678 129.772 18.8326 130.835 18.0903 131.777C17.909 132.013 17.711 132.202 16.8752 132.956C16.8752 132.956 17.0751 132.971 17.5778 132.801C18.2303 132.548 18.7755 132.131 19.0581 131.491C19.3759 130.682 19.0843 129.791 18.5041 129.441C18.2006 129.246 17.8348 129.223 17.5597 129.316C16.8156 129.586 16.5965 130.344 16.8169 130.77Z" fill="#FFD7D1"/>
<path d="M26.8851 126.974C26.8969 126.746 26.8912 126.604 26.9877 126.394C27.2945 125.68 28.2664 125.758 28.3419 126.543C28.3954 127.093 28.1106 127.573 27.7994 127.967C27.4504 128.416 26.9926 128.922 26.8396 129.447C26.8048 129.573 26.8044 129.617 26.8044 129.617C27.6916 128.785 29.1469 128.106 29.0706 126.517C29.0125 125.224 27.4703 124.833 26.8403 125.701C26.5734 126.052 26.5631 126.527 26.7708 126.844C26.8378 126.946 26.8851 126.974 26.8851 126.974Z" fill="#FFD7D1"/>
<path d="M36.7315 125.694C36.7474 125.83 36.7707 125.888 36.7707 125.888C36.8361 125.742 36.7218 126.081 37.0536 125.204C37.5748 123.925 38.4455 123.937 38.6161 124.689C38.7769 125.402 38.2668 125.65 36.7741 128.168C36.7741 128.168 36.9883 128.071 37.4659 127.64C38.3971 126.808 39.547 125.73 39.342 124.592C39.2476 124.069 38.9221 123.639 38.4284 123.51C37.9751 123.398 36.4816 123.751 36.7145 125.69L36.7315 125.694Z" fill="#FFD7D1"/>
<path d="M32.3715 133.272C32.3361 133.486 32.2636 133.665 32.1675 133.831C31.9753 134.162 31.7432 134.388 31.5826 134.567C31.2445 134.921 31.1417 135.076 31.1417 135.076C31.1417 135.076 31.3348 135.081 31.7938 134.867C32.0217 134.746 32.3381 134.582 32.6526 134.214C32.9635 133.864 33.294 133.163 33.0018 132.36C32.8589 131.986 32.5595 131.686 32.2282 131.581C31.9072 131.471 31.602 131.496 31.354 131.586C30.9735 131.719 30.69 132.022 30.6257 132.46C30.5864 132.734 30.6461 132.914 30.6962 133.013C30.7463 133.112 30.7833 133.146 30.7833 133.146C30.79 133.156 30.7913 132.98 30.9666 132.645C31.0525 132.486 31.2166 132.291 31.478 132.221C31.7395 132.152 32.1423 132.209 32.3222 132.617C32.4122 132.821 32.4204 133.079 32.3885 133.276L32.3715 133.272Z" fill="#FFD7D1"/>
<path d="M23.0238 136.741C22.8153 136.981 22.7422 137.248 22.7 137.452C22.6645 137.665 22.6632 137.842 22.6858 137.988C22.7107 138.293 22.7703 138.474 22.8067 138.596C22.8533 138.712 22.8699 138.759 22.8699 138.759C22.8699 138.759 22.8871 138.719 22.9251 138.621C22.9564 138.512 22.9983 138.353 23.051 138.099C23.1171 137.865 23.1842 137.499 23.4233 137.24C23.536 137.122 23.7026 137.041 23.8788 137.042C24.0617 137.054 24.3116 137.168 24.476 137.396C24.6371 137.597 24.6655 137.886 24.6399 138.137C24.6041 138.395 24.5108 138.632 24.401 138.821C24.1711 139.206 23.8946 139.476 23.6932 139.681C23.485 139.877 23.3315 140.022 23.2494 140.119C23.1607 140.207 23.1332 140.254 23.1332 140.254C23.1332 140.254 23.1875 140.248 23.3164 140.222C23.4387 140.185 23.6356 140.129 23.9009 139.998C24.1764 139.861 24.5438 139.663 24.9132 139.201C25.0946 138.965 25.2593 138.681 25.3401 138.291C25.4175 137.918 25.4109 137.44 25.1058 136.997C24.824 136.611 24.4292 136.388 24.0229 136.348C23.8231 136.333 23.6128 136.369 23.4461 136.449C23.2795 136.529 23.1365 136.623 23.0305 136.752L23.0238 136.741Z" fill="#FFD7D1"/>
<path d="M16.564 142.789C16.564 142.789 16.732 142.064 17.5007 141.675C17.7082 141.568 17.8777 141.559 17.9252 141.542C17.9693 141.543 18.0507 141.533 18.0236 141.536C17.9564 143.731 16.4152 144.569 16.3191 144.735C17.7402 144.561 18.6239 143.278 18.749 141.952C18.7756 141.568 18.7538 141.758 18.7555 141.538C18.7596 141.433 18.7367 141.331 18.6755 140.903C18.5299 140.881 18.3946 140.853 18.2624 140.852C18.0796 140.841 17.934 140.82 17.6691 140.906C17.1903 141.045 16.6993 141.456 16.5188 142.028C16.362 142.614 16.5707 142.799 16.5436 142.802L16.564 142.789Z" fill="#FFD7D1"/>
<path d="M20.715 150.595C20.715 150.595 21.9474 150.267 22.767 148.953C22.9283 148.686 23.1106 148.317 23.0634 147.822C23.0022 147.394 22.7409 146.995 22.349 146.843C21.9401 146.687 21.5628 146.847 21.3582 147.026C20.5435 147.679 20.9997 148.754 20.9959 148.815C21.2756 148.105 21.3797 147.773 21.6658 147.585C21.9314 147.41 22.2126 147.415 22.3309 147.908C22.4278 148.547 21.4365 149.711 20.7284 150.615L20.715 150.595Z" fill="#FFD7D1"/>
<path d="M29.2403 144.755C29.2403 144.755 29.2709 144.735 29.3325 144.651C29.5685 144.364 29.8095 143.839 30.2912 143.771C30.566 143.722 30.7106 143.876 30.7291 144.127C30.767 144.498 30.418 144.947 30.2057 145.247C29.8018 145.791 29.3887 146.209 28.9178 146.65C28.7199 146.839 28.5015 147.041 28.3684 147.172C28.3684 147.172 28.4227 147.166 28.5414 147.146C29.1013 147.042 29.6765 146.693 30.1231 146.326C30.5835 145.935 31.1131 145.338 31.3613 144.78C31.6372 144.13 31.3989 143.365 30.7973 143.161C30.3849 143.022 29.9093 143.189 29.6187 143.526C29.4786 143.691 29.4096 143.854 29.3544 143.992C29.2365 144.348 29.2588 144.538 29.2505 144.749L29.2403 144.755Z" fill="#FFD7D1"/>
<path d="M36.8496 138.478C36.9099 138.57 36.9504 138.588 36.9504 138.588C36.9571 138.598 36.9246 138.414 37.1331 138.175C37.2356 138.064 37.4363 137.946 37.6087 138.008C37.8015 138.057 38.1011 138.314 38.0845 138.735C38.071 139.182 37.797 139.567 37.5646 139.837C37.322 140.114 37.0969 140.306 36.9229 140.464C36.5852 140.774 36.4859 140.912 36.4859 140.912C36.4859 140.912 36.6652 140.941 37.1137 140.778C37.3346 140.691 37.6337 140.567 37.9814 140.295C38.3019 140.026 38.7559 139.581 38.8227 138.79C38.8525 138.434 38.7265 138.064 38.5283 137.828C38.3301 137.593 38.0704 137.441 37.8064 137.396C37.5527 137.343 37.2979 137.423 37.1412 137.54C36.9777 137.648 36.8851 137.796 36.8401 137.929C36.7433 138.182 36.7995 138.38 36.8531 138.461L36.8496 138.478Z" fill="#FFD7D1"/>
<path d="M12.6957 136.304C12.7279 136.064 12.7264 135.816 12.6671 135.591C12.6077 135.367 12.4635 135.169 12.2915 135.063C12.0014 134.888 11.7534 134.978 11.6139 135.055C11.4708 135.149 11.392 135.274 11.3811 135.369C11.3661 135.569 11.464 135.607 11.4538 135.614C11.4538 135.614 11.4746 135.556 11.5767 135.489C11.6278 135.455 11.6888 135.459 11.76 135.456C11.8311 135.453 11.9256 135.508 11.9119 135.532C11.9588 135.604 12.0251 135.794 11.9647 136.17C11.9289 136.428 11.8404 136.94 11.4253 138.091C11.4253 138.091 11.5743 138.095 11.8469 137.887C12.1093 137.685 12.5464 137.237 12.6957 136.304Z" fill="#FFD7D1"/>
<path d="M13.5339 127.924C13.704 127.827 13.9221 127.669 14.1612 127.409C14.3869 127.129 14.62 126.771 14.7631 126.209C14.8193 125.938 14.8146 125.663 14.7182 125.404C14.5153 124.894 14.0494 124.673 13.6657 124.779C13.4857 124.839 13.3765 124.94 13.3216 125.035C13.1913 125.238 13.2171 125.411 13.2538 125.489C13.3007 125.561 13.331 125.585 13.3208 125.591C13.3275 125.602 13.3457 125.429 13.5532 125.322C13.5941 125.295 13.6688 125.275 13.7195 125.285C13.7703 125.296 13.8108 125.313 13.8715 125.361C13.9892 125.474 14.1031 125.648 14.0325 126.031C13.8498 126.912 13.2719 127.614 13.0075 128.08C13.0075 128.08 13.0414 128.087 13.133 128.071C13.2246 128.055 13.3468 128.018 13.5237 127.931L13.5339 127.924Z" fill="#FFD7D1"/>
<path d="M27.0566 115.213C27.2303 115.099 27.4416 114.93 27.5958 114.697C28.0173 114.069 27.839 113.44 27.3835 113.169C27.2115 113.062 27.0321 113.034 26.8729 113.036C26.5543 113.041 26.3197 113.151 26.139 113.299C25.791 113.616 25.7243 113.938 25.6821 114.141C25.6466 114.355 25.6523 114.497 25.6584 114.596C25.6644 114.694 25.6743 114.732 25.6743 114.732C25.6743 114.732 25.705 114.712 25.7595 114.661C25.8244 114.604 25.8997 114.496 26.0025 114.34C26.112 114.195 26.2525 113.986 26.4501 113.841C26.542 113.781 26.6745 113.737 26.8067 113.738C26.9455 113.75 27.0199 113.774 27.07 113.873C27.1169 113.944 27.0782 114.13 26.9923 114.289C26.9064 114.448 26.8004 114.577 26.6877 114.695C26.425 114.94 26.1964 115.149 26.0662 115.352C25.7954 115.764 25.8956 115.962 25.8889 115.952C25.8889 115.952 26.0051 115.817 26.3285 115.619C26.4919 115.511 26.7332 115.411 27.0668 115.206L27.0566 115.213Z" fill="#FFD7D1"/>
<path d="M24.4285 151.533C25.4755 151.079 25.8126 150.857 25.8126 150.857C20.9873 151.792 14.9559 153.607 13.144 148.008C13.078 147.774 13.0448 147.678 13.0448 147.678C13.0448 147.678 13.0237 147.78 13.0252 148.028C13.1395 151.348 17.4533 154.496 24.4182 151.54L24.4285 151.533Z" fill="#FFD7D1"/>
<path d="M44.8212 121.823C44.8212 121.823 44.0482 119.595 40.5118 117.164C37.0998 114.857 34.2712 114.756 34.2137 114.736C42.158 118.16 43.5309 120.813 44.8314 121.816L44.8212 121.823Z" fill="#FFD7D1"/>
<path d="M79.6782 169.622C78.7827 170.665 77.7266 171.886 76.3848 173.251C72.7214 176.962 68.8765 180.018 64.6416 183.124C62.0114 185.044 59.0007 187.097 55.5458 189.208C48.6189 193.426 42.6141 196.219 37.6858 198.245C28.7909 201.914 23.9615 202.485 17.7313 202.792C17.7313 202.792 17.8599 202.81 18.1443 202.842C30.5173 203.969 45.5189 197.016 56.0705 190.633C69.0946 182.581 76.1236 175.574 79.6623 170.847C81.4487 168.487 82.4273 166.746 83.0419 165.654C83.6094 164.535 83.8297 164.068 83.8297 164.068C83.8297 164.068 83.6107 164.358 83.0079 165.223C82.3984 166.078 81.4287 167.52 79.6782 169.622Z" fill="#FFD7D1"/>
<path d="M41.4824 195.763C48.4202 192.811 51.4731 190.086 51.5651 190.026C39.4824 195.879 37.5991 196.239 29.7411 198.992C29.7954 198.985 34.545 198.672 41.4722 195.77L41.4824 195.763Z" fill="#FFD7D1"/>
<path d="M18.0735 201.909C18.4822 201.64 18.3409 201.045 17.9183 200.913C17.5813 200.667 17.1318 200.962 17.2237 201.37C17.1798 201.794 17.6649 202.177 18.0735 201.909Z" fill="#FFD7D1"/>
<path d="M23.0864 200.836C22.8944 200.231 22.1744 200.002 21.64 200.324C21.497 200.418 21.3709 200.516 21.2885 200.658C21.1346 200.847 21.0583 201.087 21.1039 201.335C21.3124 202.457 23.5668 202.306 23.0966 200.83L23.0864 200.836Z" fill="#FFD7D1"/>
<path d="M35.9027 194.721C35.8623 194.235 35.4385 193.811 34.6571 194.091C33.8926 194.374 34.0813 195.421 34.7347 195.503C34.8802 195.525 35.9502 195.172 35.9027 194.721Z" fill="#FFD7D1"/>
<path d="M39.6284 195.007C39.7988 194.866 39.9489 194.738 40.0351 194.535C40.235 194.082 39.9201 193.601 39.4253 193.604C39.2051 193.603 39.0282 193.69 38.831 193.79C38.4942 193.968 38.4022 194.497 38.6236 194.79C38.8349 195.09 39.3047 195.25 39.6217 194.997L39.6284 195.007Z" fill="#FFD7D1"/>
<path d="M61.5072 182.713C61.5072 182.713 61.5481 182.686 61.5752 182.683C62.1157 182.459 62.405 181.83 62.0632 181.308C61.7215 180.786 61.0301 180.802 60.6103 181.21C60.5899 181.223 60.5694 181.237 60.5557 181.26C60.2828 181.513 60.2584 182.056 60.4799 182.349C60.6978 182.66 61.1468 182.876 61.5072 182.713Z" fill="#FFD7D1"/>
<path d="M60.1497 185.303C60.6707 184.96 60.1413 184.152 59.6203 184.495C59.0993 184.838 59.6287 185.645 60.1497 185.303Z" fill="#FFD7D1"/>
<path d="M65.8734 179.315C65.4176 179.088 64.8638 179.291 64.6301 179.737C64.4034 180.15 64.5654 180.687 64.9567 180.927C66.1002 181.624 67.001 179.876 65.8801 179.325L65.8734 179.315Z" fill="#FFD7D1"/>
<path d="M74.7622 173.63C75.0788 173.422 75.1156 173.032 74.9484 172.732C74.9216 172.692 74.8948 172.651 74.8782 172.603C74.7146 172.286 74.2339 172.222 73.9478 172.41C73.6618 172.598 73.5331 173.049 73.7546 173.342C73.7814 173.383 73.8082 173.424 73.8452 173.458C74.0702 173.734 74.4353 173.845 74.7417 173.644L74.7622 173.63Z" fill="#FFD7D1"/>
<path d="M43.06 192.37C43.7343 191.927 43.0508 190.884 42.3766 191.327C41.7023 191.77 42.3858 192.813 43.06 192.37Z" fill="#FFD7D1"/>
</svg>
