<svg width="485" height="206" viewBox="0 0 485 206" fill="none" xmlns="http://www.w3.org/2000/svg">
<path d="M0.0259644 80.2326C-0.320226 60.9302 2.79548 45.407 9.37309 33.6628C15.9507 21.9186 24.49 13.3721 34.9911 8.02325C45.6076 2.67442 56.8011 0 68.5715 0C80.342 0 91.0739 2.61628 100.767 7.84884C110.576 12.9651 121.769 21.0465 134.348 32.093C142.887 39.5349 149.695 44.7674 154.773 47.7907C159.966 50.814 165.62 52.3256 171.736 52.3256C181.66 52.3256 189.507 48.7209 195.277 41.5116C201.047 34.186 203.816 23.6046 203.586 9.76745H240.974C241.32 29.0698 238.204 44.593 231.627 56.3372C225.165 68.0814 216.625 76.6279 206.009 81.9767C195.392 87.3256 184.199 90 172.428 90C160.658 90 149.926 87.4419 140.233 82.3256C130.54 77.093 119.346 68.9535 106.652 57.907C98.2285 50.4651 91.4201 45.2326 86.2272 42.2093C81.0344 39.1861 75.3799 37.6744 69.2639 37.6744C59.9168 37.6744 52.1852 40.9884 46.0692 47.6163C40.0686 54.1279 37.1837 65 37.4145 80.2326H0.0259644Z" fill="#fbebe7"/>
<path d="M0.0259644 196.233C-0.320226 176.93 2.79548 161.407 9.37309 149.663C15.9507 137.919 24.49 129.372 34.9911 124.023C45.6076 118.674 56.8011 116 68.5715 116C80.342 116 91.0739 118.616 100.767 123.849C110.576 128.965 121.769 137.047 134.348 148.093C142.887 155.535 149.695 160.767 154.773 163.791C159.966 166.814 165.62 168.326 171.736 168.326C181.66 168.326 189.507 164.721 195.277 157.512C201.047 150.186 203.816 139.605 203.586 125.767H240.974C241.32 145.07 238.204 160.593 231.627 172.337C225.165 184.081 216.625 192.628 206.009 197.977C195.392 203.326 184.199 206 172.428 206C160.658 206 149.926 203.442 140.233 198.326C130.54 193.093 119.346 184.953 106.652 173.907C98.2285 166.465 91.4201 161.233 86.2272 158.209C81.0344 155.186 75.3799 153.674 69.2639 153.674C59.9168 153.674 52.1852 156.988 46.0692 163.616C40.0686 170.128 37.1837 181 37.4145 196.233H0.0259644Z" fill="#fbebe7"/>
</svg>
