<svg class="logo" id="logo-id" width="120" height="60.61" viewBox="0 0 1077 544" fill="none"
    xmlns="http://www.w3.org/2000/svg">

    <path d="M811.298 414.656c-.86-27.827 8.697-43.054 4.872-75.485-.079-.532-.115-1.063-.193-1.639-1.361-10.944.096-21.665 1.596-32.34 5.853-41.687.929-34.606-12.717-41.29-8.834-4.348-18.315-6.983-27.195-11.2-12.468-5.912-25.062-12.225-36.573-20.023-11.031-7.48-19.406-12.926-34.937-17.652-12.283-3.743-23.345-9.411-35.956-12.01-1.746-14.311-7.684-28.427-18.692-37.322a103.8 103.8 0 0 1-.05-2.256c-.921-8.24-2.571-9.815-3.946-11.96-.172-.268-.345-.492-.607-.629-.57-.187-1.466.638-2.004 1.204.059-3.58-4.492-10.952-5.113-10.742-.627.609-1.208 1.086-1.703 1.652-1.606-6.792-7.907-15.033-8.086-14.859-.234.792-.511 1.583-.743 2.287-.667-2.355-2.329-5.788-6.268-10.231-.639 1.316-1.006 2.15-1.377 3.249-1.163-4.308-4.626-8.169-7.974-10.967 1.59-42.554 31.369-78.004 67.485-96.766 6.449-3.341 11.122-5.916 5.513-13.306C685.378.76 683.369-.38 681.464.118c-1.328.332-2.359 1.332-3.345 2.332-41.118 41.097-68.071 55.105-72.223 105.84-5.438-4.424-8.245-2.658-8.431.567-3.25-6.068-12.536-12.458-12.815-11.578-.028 1.724-.049 2.961-.021 3.934-1.909-1.844-4.36-2.99-9.521-5.465-.678.962-1.607 3.776-1.399 7.184-.336-.978-.255-.535-8.578-9.12-1.509 5.856-1.546 2.76-1.648 11.558-.61-.408-1.48-1.13-3.686-3.732-1.768 2.933-4.095 10.278-2.532 17.07-1.57-1.088-2.096-1.274-4.328-2.284l-.088-.001c-.006.354-2.352 8.892.75 15.886-2.396-1.764-5.111-2.871-5.554-2.746 1.248 9.749 2.624 14.547 3.424 16.816-1.176-.86-2.705-1.77-4.672-2.776.778 8.901 1.492 11.035 8.331 21.32-3.555-.944-6.292-.769-9.602-.603.077.708.783 3.329 1.588 5.244-9.484-5.023-19.789-.508-20.186-.471-.002.089 1.077 1.522 1.12 1.567-4.216-1.044-9.209-.42-12.98 1.021-.71.253-1.507.461-1.997.718.818 1.207 1.463 2.191 2.069 2.909-2.106-.655-5.231-.972-9.482.062-.221.085-.443.125-.664.166l-.798.252c-.177.041-2.835.837-2.794 1.014.129.179 1.293 1.746 1.855 2.419-6.244-1.033-13.569 1.984-13.924 2.11.3.536.768 1.561 1.456 2.589-4.952.846-10.381 3.806-13.291 6.455a89.774 89.774 0 0 0 2.174 1.849c-4.382.988-8.833 3.522-10.833 4.461.435.317 3.736 3.335 7.707 5.833-.792-.101-1.761-.162-2.73-.222l-1.984-.033-.22-.004.173.224.301.447c.216.269.43.626.69.896 2.5 3.491 4.763 5.253 7.172 6.222-1.326.199-3.979.641-3.805.821.13.134.607.585.737.719.304.315.651.63.998.99.391.36.737.72 1.128 1.08 1.212 1.391 4.606 4.101 8.5 5.935-.397-.007-3.634 1.088-3.812 1.174 3.869 3.337 8.181 6.548 12.912 8.396-15.6 2.082-31.298 7.48-46.361 11.738-17.898 5.095-35.67 10.545-53.235 16.795-18.895 6.671-37.58 14.007-56.096 21.745-40.273 16.88-45.511 18.959-46.572 27.077-.407 3.265 1.039 6.429.629 9.871-.665 5.56-3.256 10.204-1.853 15.976 1.319 5.505 2.535 11.936 2.439 17.727.063 4.157-.406 8.483-1.327 13.508-.875 4.849.298 8.583 1.867 12.324.466 1.157.976 2.271 1.442 3.429 1.06 2.538 2.075 5.163 2.464 8.265 1.322 10.634-1.905 21.723-4.631 31.891-.847 3.17-1.738 6.383-2.541 9.597-.238 1.057-.521 2.158-.759 3.215-.955 4.362-1.69 8.815-1.986 13.32-.609 10.116 2.113 18.784 4.731 28.378a41.083 41.083 0 0 1 1.023 4.793c.157 1.152.271 2.259.384 3.411.982 15.138-4.736 19.641-3.215 44.826.107 1.505.987 14.829 2.441 14.942 54.289 4.623 340.71-.18 340.931-.176 29.762.056 59.505 1.217 89.266 1.317 20.679.036 45.317.67 65.29-4.568 42.071-10.969 21.892-78.162 20.45-123.951l-.089.043ZM681.005 3.869c2.874-.438 9.594 3.742.523 8.322-6.537 3.34-12.864 7.257-18.887 11.49 12.805-8.983 12.706-18.934 18.364-19.812Zm-19.272 183c17.067 50.162-17.929 83.756-56.076 76.22l-.132-.002c-6.944-1.399-13.997-4.125-20.848-8.441-47.829-29.895-29.381-97.149 24.634-99.871.11 1.373.176 2.7.242 4.028-4.985.182-9.849.985-14.907 2.846-17.437 6.517-23.572 20.166-23.707 20.296 1.784-1.208 14.637-18.414 38.643-19.56-.071 6.896-.931 13.515-2.241 20.7.002-.088-2.523-2.032-2.74-2.257-2.477-2.164-2.34-5.124-1.847-5.602-3.898 3.738-2.849 9.547 2.361 11.801 4.465 1.932 11.62 1.256 14.949-2.756 1.53-1.832 2.322-4.383 2.098-6.819-.719.828-1.481 1.567-2.287 2.305.654-2.199.309-2.692-1.478-17.18 9.553.911 17.795 3.79 23.776 7.384 1.135.682 1.616.911 1.616.911s-.215-.313-.995-1.166c-5.673-6.197-16.021-9.642-24.823-10.674-.153-1.373-.35-2.791-.548-4.165 28.395 2.73 39.055 16.571 44.312 31.914l-.002.088Zm-46.947-69.587s.131.091.128.224c2.552 3.005 4.923 6.228 7.295 9.407a10.464 10.464 0 0 0 1.368-2.718c-.091.219 1.462 2.235 1.633 2.592.728 1.294 3.546 6.824 4.004 8.424 2.254-2.925-.908-6.383 8.707 12.04.544-.92 1.088-1.795 1.588-2.715.475.627 4.846 10.87 4.931 11.048.498-.788.952-1.576 1.451-2.364 1.033 1.477 1.267 3.338 1.811 5.072.251.8.414 1.642.577 2.441.123.533.305 2.879.697 3.151-.436-.272-.828-.589-1.264-.905-7.224-5.737-16.47-9.208-25.969-10.693l5.548-10.121-7.396 9.869c-.967-.149-1.98-.254-2.948-.359-1.568-11.744-3.106-20.038-3.494-31.143.821-1.666.981-3.3 1.245-3.295l.088.045Zm1.992-42.9c5.016-12.607 14.976-22.876 24.951-31.42-9.022 9.577-17.076 21.912-23.226 33.747-10.887 20.954-6.953 62.804-2.671 86.355 1.09 5.988 3.166 13.716.162 19.37-.546 1.008-4.168 1.433-4.996.801-1.48-1.131-.257-3.1.164-4.508 1.544-5.368 1.727-11.069 1.423-16.646-.821-14.251-10.444-50.714 4.237-87.655l-.044-.045Zm-65.436 79.6c-.249-.933-2.408-6.319-1.779-7.016.494-.522 3.233 1.778 3.847 2.01-.22-5.354-1.45-10.902-2.156-16.22 1.263.994 2.649 2.477 4.184 2.944-.12-.709-.285-1.419-.273-2.126 0 0-.086-.09-.131-.091-.318-4.737-.639-9.252.232-13.924 1.177.815 2.487 1.589 3.618 2.492a86.557 86.557 0 0 1 1.295-16.869c1.355.73 2.755 1.417 4.109 2.147.632-3.483 1.175-7.011 1.851-10.493 0 0 3.649 3.289 3.995 3.649 1.343 1.437 2.686 2.874 4.119 4.225 2.466-7.785-1.246-7.272 7.321-2.752 1.792.959 3.419 1.207 5.025 2.737.02-1.193.039-2.342.015-3.537 4.441 3.391 8.252 7.567 12.557 11.176.875-4.893-.299-5.886 6.492-.599-.9 16.964 1.901 26.164 3.439 39.72-3.794.114-7.504.494-11.043 1.186 6.081-12.986 7.169-17.434 7.169-17.434-.091.175-2.833 3.313-9.515 17.97-.354.082.577-.212-2.348.668-3.918-8.29-5.707-12.122-9.065-19.607 4.146-13.328 4.546-18.849 4.593-19.025-.092.264-1.891 2.4-5.656 16.619-.084-.222-1.572-3.563-9.776-21.918.041.178 1.288 7.406 7.385 22.542-12.494-4.366-17.028-4.795-17.16-4.842.262.137 2.222 1.629 18.093 7.068 2.627 6.411 6.075 13.853 9.193 19.919a48.828 48.828 0 0 0-3.551 1.4c-1.137-.55-15.392-7.731-18.994-8.543 2.824 2.48 13.581 7.877 16.905 9.525-7.024 3.419-13.235 8.356-18.273 14.374-8.943-5.81-4.594.498-15.585-17.373l-.132-.002Zm31.763-22.152c-.086-.134-.553-1.203 0 0Zm-94.312 89.906c-.346-.447 3.59-1.133 4.121-1.257-.174-.091-11.987-8.292-12.206-8.384.135-.175-.043-.09 3.554-1.577-2.307-1.851-5.488-4.071-7.886-5.703 1.143.196 2.289.215 3.438.057-1.298-1.525-2.684-3.007-3.803-4.662-.687-1.073-1.953-1.845-2.553-2.917 1.734-.855 8.615-3.658 9.281-3.912-1.204-1.833-1.902-2.287-1.851-2.684l.132.002.088.001c4.402-2.181 4.275-2.537 12.476-5.185-.764-1.782-1.236-2.541-1.061-2.45l.002-.133.132.003h.044c1.631.028 3.45-.605 5.043-.932 1.282-.244 2.564-.444 3.804-.732 1.504-.329 3.003-.304 4.548-.411-.56-.761-1.121-1.522-1.637-2.326 0 .044 4.954-.935 5.573-1.013 2.165-.273 4.369-.236 6.575-.288l.925.016c-.126-.356-.208-.711-.292-.978-.545-1.689-.758-2.135-.801-2.224l.002-.088.002-.133c.132.002-.002.088.884-.118 8.761-1.843 13.066-.887 14.482-1.172-.473-.76-.989-1.52-1.461-2.28 2.868-.173 6.365-.955 9.176-.289 3.426.809 6.959.426 10.059 2.291-.677-1.691-2.02-5.782-1.101-5.368.396.006 2.952.137 5.372.443 3.764 1.655 3.691.769 10.911 6.727a57.417 57.417 0 0 0-9.886 21.722c-7.312-8.391-12.006-9.796-12.18-9.932 1.476 1.396.955.9 1.085 1.035a.718.718 0 0 0-.176-.047c.129.179.17.401 1.855 2.463 1.341 1.57 4.072 4.357 8.743 9.874-.297 1.941-.55 3.882-.626 5.826-.134.086-.269.217-.402.303a597.679 597.679 0 0 0-12.279-1.399c-5.756-6.508-11.736-12.843-19.359-15.756 6.703 5.241 7.49 5.653 16.806 15.492-.66-.1-10.609-1.062-17.918-1.671-11.767-10.941-18.237-14.322-18.411-14.457.174.135 10.631 10.303 15.505 14.188-22.546-1.793-30.576-1.485-30.708-1.487.792.102 2.676.796 24.285 3.28-2.493 1.418-14.074 8.431-16.357 10.471 3.846-.598 15.742-7.96 19.085-10.16 4.71.521 10.168 1.099 16.506 1.736-3.838 2.81-15.457 12.122-17.086 14.615 3.554-1.621 16.424-11.885 19.42-14.399l17.784 1.801c-4.024 3.337-17.985 15.573-21.015 20.12.8-.384 11.821-8.203 24.177-19.36.035 5.837 1.041 11.602 2.846 17.071-8.079 8.576-11.872 13.907-12.052 14.125 8.188-7.159 8.503-7.508 13.02-11.367 2.663 6.942 13.35 24.498 16.402 23.93-.133-.002-.222.041-.354.038-6.567-2.807-10.815-7.211-13.363-10.437-1.986-2.554-3.097-4.651-3.699-5.589.083.311.217 2.878 1.961 6.709.979 2.095 2.393 4.551 4.645 7.02 1.039 1.167 2.299 2.294 3.736 3.379-.392-.272-2.607.31-3.137.39-.972.116-1.9.233-2.829.394-1.989.321-4.099-.068-6.131.119.49-.301.937-.648 1.427-.949.134-.086.268-.217.226-.35.003-.177-.26-.225-.393-.228-2.512-.042-5.16.091-7.667-.261-.837-.102-1.631-.027-2.469-.041-.706.032-2.286-.392-2.908-.137 1.154-.467 2.224-1.157 3.164-1.981-4.364-.073-8.68-.366-13.039-.793a9.938 9.938 0 0 0 4.396-1.828c-3.963-.331-7.926-.663-11.888-1.039 1.196-.289 2.312-1.111 2.99-2.161-4.795-.655-9.634-1.31-14.429-1.966 1.072-.866 2.145-1.732 3.261-2.554-2.324-.79-4.738-1.45-7.016-2.372-1.445-.599-2.794-1.639-4.434-1.136l3.191-1.007c.222-.085.489-.213.449-.479.003-.133-.172-.224-.304-.271-14.56-7.362-15.653-10.564-20.424-12.722l.002-.089Zm36.672 27.277c-1.45-.29-2.768-.577-4.043-.819.748.1 1.497.157 2.157.257.042.089.13.134.262.137.527.141 1.054.238 1.624.425ZM399.459 261.54c16.673-5.646 33.432-11.158 50.315-16.181 15.332-4.564 31.609-7.607 46.778-12.969.438.184.876.368 1.401.598.526.23 1.007.415 1.49.556 1.264.905 2.663 1.636 4.108 2.235-.89.472-1.869 1.03-2.805 1.633 1.974.564 3.991 1.261 6.014 1.56 2.111.345 3.727 1.256 5.469 2.612-.318.525-.766.96-1.256 1.261 2.711 1.372 5.476 2.126 8.375 2.793.878.236 1.711.56 2.59.707-.494.522-1.031 1.044-1.571 1.654-.967-.193-1.889-.385-2.724-.576a144.84 144.84 0 0 1-8.74-2.048c-2.151-.566-3.555-1.032-4.477-1.269-.877-.28-1.272-.375-1.272-.375s.26.27 1.044.858c.74.587 2.004 1.448 4.06 2.456 2.011 1.006 4.813 2.203 8.586 3.327 3.729 1.168 8.474 2.176 14.05 3.595 5.268 1.415 9.657 2.638 13.305 3.363 2.24.479 4.176.733 5.849.893 1.227.463 2.543.883 3.86 1.215-2.343.402-3.582.647-3.582.647 9.064 1.169 3.327-1.182 27.411 3.51-8.34.435-12.935.977-12.935.977s11.699 1.788 32.056 2.615h.044c12.853 4.018 27.443 4.306 38.819-1.03 15.251-2.31 23.938-4.994 23.938-4.994s-5.066-.306-13.98.12c1.648-.946 3.165-2.07 4.597-3.328 3.137-.346 5.619-1.144 7.396-1.954 2.532-1.108 3.695-2.105 3.695-2.105s-1.499-.025-4.101.064c-.926-.016-1.985.011-3.176.035 2.116-2.618 3.841-5.551 5.214-8.623 6.506-9.354 10.482-20.43 11.532-33.191.168-2.12-.105-4.291-.289-6.461 11.782 4.752 24.342 7.748 36.123 12.588 13.182 5.394 25.712 12.899 38.117 19.96 12.143 6.88 24.519 13.056 36.983 19.234 10.67 5.308 21.087 9.948 31.988 14.641-1.051-.46-7.042 1.872-8.809 2.063-4.416.413-8.831.737-13.244.972-8.826.472-17.69.544-26.554.573-17.682.058-35.448-.151-53.038 2.34-17.9 2.531-35.487 7.454-53.54 8.567-40.033 2.425-79.889-8.412-119.914-1.122-28.704 5.223-56.05 13.697-85.681 11.035-26.196-2.34-52.811-3.36-78.551 3.947-35.321 8.076-45.215-4.161-61.198-5.534 28.341-12.569 56.964-23.543 86.319-33.487l-.089.043Zm-79.621 41.691c39.781 12.736 55.448 1.281 78.786-2.087 36.11-5.188 72.165 6.204 97.308.302 87.07-20.342 88.205-14.398 121.823-10.209 21.693 2.706 43.071.499 64.596-2.634 21.173-3.139 42.351-6.587 63.718-8.175 10.463-.753 20.925-1.463 31.415-1.199 7.712.218 15.368 1.23 23.077 1.669 4.317.249 7.405.124 9.941 4.057 2.751 4.291 3.009 9.999.334 14.42-.092.176-.227.35-.318.526-4.161 6.297-9.776 4.523-16.222 5.078-9.494.814-19.068 1.141-28.638 1.29-18.789.305-37.611-.055-56.412 1.002-18.316 1.064-36.502 2.219-54.865.806-16.911-1.256-35.146-5.098-52.002-1.71-8.538 1.714-16.386 4.324-25.246 4.132-9.388-.246-18.353-2.032-27.591-3.336-15.572-2.206-31.453.888-46.717 3.993-51.94 10.539-59.623 3.203-92.675 4.817-22.197 1.088-37.148 9.194-67.898 4.966-9.414-1.307-33.887-3.928-42.7-4.252 3.002-16.089 7.172-17.655 20.331-13.456h-.045Zm-21.744 40.138c31.826-4.773 63.688 4.25 95.685 2.486 32.306-1.803 64.485-6.571 96.897-6.78 33.205-.196 66.454 2.306 99.646.297 16.904-1 33.576-3.949 50.404-5.657 16.386-1.671 32.767-2.989 49.227-3.775 43.378-2.104 62.201-1.789 91.995-1.025 2.072.035 21.882-.695 16.945 4.484-2.513 2.655-12.274.989-15.402.804-4.625-.254-9.244-.907-13.872-1.028-14.015-.367-89.214 3.459-104.314 4.666-28.96 2.124-65.321 6.468-111.383 8.173-22.991 1.119-43.901 1.697-62.608-.207-4.667-.432-9.152-1.171-13.73-1.645-13.033-1.102-24.428.033-37.421 1.806-7.558 1.067-14.588 2.232-21.218 3.182a359.564 359.564 0 0 1-18.645 2.297c-12.367 1.252-22.396 2.411-50.914-.852-17.032-1.921-35.161-4.17-50.56-3.499-.155-1.285-.399-2.527-.643-3.769l-.089.042Zm-.561 81.394c9.962 2.82 21.653 2.441 31.824 3.318 2.862.269 5.722.582 8.583.895 7.036 1.135 14.119 2.138 21.205 2.92 13.766 2.087 33.176 1.572 39.135 1.185 15.669-.976 31.229-3.368 46.923-3.15 15.253.211 30.383 2.498 45.53 3.769 62.877 5.252 126.069-.411 188.949-3.294 17.872-.807 35.691-1.172 53.545-.917 16.662.279 33.345 1.973 49.965 2.207a.955.955 0 0 0 .038.354l-.221-.004-5.148 2.037c-8.067-.135-17.675-.385-29.091-.664-15.073-.385-27.332-.325-37.263.261-9.136.554-16.249 1.364-21.688 2.29l-.088-.002c-12.573.409-27.705.907-45.84 1.621-37.761 1.093-73.311 7.042-110.017 2.979a683.486 683.486 0 0 0-62.24-3.872c-9.389-.157-18.297-.085-26.721.084-8.425.168-16.364.301-23.818.441-25.009.466-45.025.353-60.934-.135l-.133-.002-.044-.001c-26.29-1.987-45.048-6.192-63.497-7.783.334-1.498.712-3.039 1.091-4.58l-.045.043Zm490.28 105.481c-14.204 5.643-30.426 5.371-45.377 5.563-35.678.42-71.407-1.416-107.082-1.172-36.294.277-72.574 2.411-108.831 3.175-35.816.771-71.648-.226-107.504.279-32.636.471-65.219.324-97.85.485-2.999.039-26.079 1.156-17.626-5.998 3.086-2.602 12.434.031 16.179.182 45.992 2.494 412.523-1.896 412.699-1.894 3.921.199 8.46.407 13.84.365 5.909-.078 12.748-.362 20.578-1.867 40.987-9.395 41.342-36.052 36.026-79.606-.231-1.994-.464-3.899-.653-5.803-.218-.137-.346-.404-.429-.715.002-.133.004-.221-.038-.354-4.949-36.474 5.661-85.819 5.708-85.951 0 0-.554 1.494-1.72 5.322-10.331 35.2-6.801 66.874-8.231 73.306.21.622.78 3.462 1.973 13.917.574 5.227 1.233 10.677 1.755 16.434 3.02 35.733-6.867 57.588-44.333 62.09l-.485-.008c-5.737.258-12.127.062-18.874.082-296.341-.493-398.051 9.302-438.244-2.469-.606-.718-1.165-1.523-1.59-2.503-1.996-4.588-.191-12.34.81-16.877 3.101-14.142 9.913-15.443 23.207-14.071 37.032 8.313 80.229-4.096 118.022.914 16.191 2.128 31.751 7.694 47.893 10.087 31.626 4.641 63.063-3.234 94.539-5.493 28.828-2.082 161.886 4.124 205.294-7.707.575-.124.457-.966-.115-1.019-16.204-1.377-32.653 1.443-48.886 1.835-104.321 2.455-98.629-.413-142.438 1.021-31.984 1.012-63.646 9.149-95.716 7.374-16.388-.893-31.87-5.883-47.865-9.202-13.666-2.793-27.455-3.554-41.398-2.992-28.017 1.123-55.351 6.193-82.907 3.388-3.646-.813-7.338-1.538-11.03-2.263-5.054-.968-10.809-2.259-16.024-1.55a33.585 33.585 0 0 0-.248-3.63 457.746 457.746 0 0 0 21.345 2.391c29.058 2.609 24.24.671 86.118-2.848 2.736-.175 5.561-.349 8.474-.521 2.913-.173 5.959-.387 9.002-.424 6.174-.074 12.735.478 19.64 1.566 6.949 1.045 14.197 2.67 21.882 4.567 7.64 1.941 15.939 4.025 24.873 5.015 4.445.516 9.026.814 13.743.893 4.716.079 9.526-.15 14.424-.333 9.795-.411 20.079-1.035 30.854-2.005 5.035-.49 9.982-1.026 14.754-1.61 31.992-4.151 26.142-2.348 63.756-2.47 7.497-.096 14.597-.154 21.3-.219 57.688-.847 104.88-4.214 105.056-4.211-73.387.983-93.451 1.045-98.787 1.089-50.4.085-57.391-1.094-74.122.13-4.9.316-9.983 1.071-15.022 1.783a499.776 499.776 0 0 1-15.639 1.816c-10.732 1.058-21.016 1.682-30.813 2.137-4.898.228-9.664.458-14.293.424-4.63.011-9.123-.241-13.481-.667-8.76-.899-16.887-2.715-24.659-4.658-7.773-1.898-15.243-3.438-22.325-4.485-7.081-1.047-13.862-1.603-20.258-1.445-3.22.035-6.266.293-9.181.554-2.958.216-5.783.434-8.521.653-35.719 2.896-37.754 3.304-52.261 3.326-8.731-.013-19.749-.33-33.618-1.535-8.498-.717-16.068-1.551-22.713-2.325-.083-.356-.166-.666-.205-.977-2.679-11.187-7.063-20.679-6.202-32.647 1.386-19.742 21.467-7.6 63.764-5.654 5.684.272 10.621.31 14.813.16l.088.001c13.351.533 29.087.84 47.563.796a9267.06 9267.06 0 0 1 23.725-.134c8.379-.081 17.154-.111 26.41.088 18.556.399 39.086 1.495 61.578 3.861 5.237.574 10.565 1.061 15.631 1.322 5.111.219 10.092.302 14.987.251 25.666-.234 51.03-3.479 75.038-4.758 28.2-1.473 49.915-2.746 66.29-3.71 7.415-.451 13.771-.875 19.112-1.184 7.363.035 15.737.22 25.302.424 14.016.323 25.523.427 34.83.229 1.28-.067 2.515-.091 3.706-.159 6.929 20.853-.069 49.212.343 48.29 6.041-13.252 15.925-56.065-5.954-58.2-9.377-.909-18.972-1.954-28.359-2.199-19.04-.54-38.105.468-57.159.856-31.537.622-63.052 2.571-94.552 3.591-31.456 1.066-62.991 1.599-94.399-.253-15.417-.921-30.729-2.902-46.095-4.22-15.587-1.322-30.857-.516-46.357.905-26.806 2.469-53.557 1.668-80.328-.593-1.275-.198-2.55-.44-3.87-.639-9.938-1.626-21.403-4.205-31.609-2.961.615-2.51 1.231-5.064 1.801-7.575 1.141-4.933.301-12.73 3.505-17.186 5.192-7.253 14.177-4.008 21.674-4.103 24.771.547 90.518-4.941 115.21-2.317 15.581 1.675 31.018 4.056 46.711 4.319 31.165.521 62.371-4.042 93.172-8.125 33.054-4.355 65.171-5.409 98.369-2.51 34.872 3.015 72.295 9.036 105.766-4.509.8-.34.51-1.451-.33-1.332-32.175 4.502-63.913 3.971-96.193 1.574-31.708-2.388-62.784-2.952-94.5.497-31.363 3.41-62.506 9.522-94.09 10.275-15.747.356-31.251-.655-46.869-2.729-15.443-2.027-30.912-5.16-46.526-4.847-30.831.59-46.185 6.435-65.467 7.262-13.204-1.415-27.369-.768-38.436-8.735-.041-.222-.125-.444-.165-.71.527.141 1.053.327 1.624.469 23.298 6.934 42.153-2.655 87.714-3.44 7.764-.18 16.448-.035 26.138.57a318.327 318.327 0 0 1 32.039 3.631c5.497.888 10.638 1.991 15.739 2.828 2.506.44 5.015.703 7.434 1.053 2.422.217 4.797.522 7.087.693 9.248.73 17.582.692 24.994.418 14.87-.635 26.228-2.214 34.716-3.531 8.532-1.316 14.24-2.503 17.824-3.239 3.584-.78 5.089-1.109 5.089-1.109s-1.06.071-4.107.374c-3.048.347-8.129.925-16.168 1.807-8.039.839-19.039 2.07-33.993 2.483-7.456.229-15.921.22-25.433-.514-4.757-.301-9.774-.916-15.008-1.711-5.232-.883-10.813-2.038-16.748-3.066-23.745-3.934-43.402-4.44-59.154-3.819-6.574.243-12.489.675-17.79 1.25l-.132-.003c-3.219-.009-7.099.014-11.688.203-31.063 1.293-37.597 7.064-57.578 2.176a66.389 66.389 0 0 1-3.688-.946c.001-.045.001-.089-.042-.134-7.036-22.314 2.803-28.03 22.699-25.973 7.44.743 15.668 1.766 24.779 2.758 14.787 1.662 28.223 2.418 42.699 1.643 11.43-.605 20.184-2.05 26.688-3.356 1.327-.287 2.566-.532 3.761-.821 5.702-.789 11.668-1.618 17.988-2.485 7.468-.98 15.33-1.822 23.712-2.035 4.189-.063 8.466-.035 12.825.347 2.203.125 4.357.515 6.645.775 2.288.303 4.619.652 6.996.913 18.88 2.128 39.832 1.683 62.778.608 43.016-1.491 78.051-5.636 106.49-8.211 47.829-4.594 88.91-6.427 143.973-3.207-.36 8.395.634 28.133-14.62 38.622-.357.26-.149.97.296.757 7.59-3.057 11.594-10.462 14.015-18.16 1.164-3.739 10.723-32.275 2.179-32.905-16.867-1.255-34.061-1.41-50.946-1.56-16.973-.151-33.996.05-50.982.606-33.882 1.158-67.469 5.725-101.279 7.812-33.81 2.087-67.376.111-101.188-.367-85.652-1.256-78.596 17.212-151.712 7.19-6.95-.957-14.283-.151-21.291-.357-9.52-.247-18.935-1.51-28.352-2.641 1.036-3.962 2.027-7.881 3.063-11.843 10.663.488 20.921-1.241 31.386.525 22.16 3.776 74.959-2.681 84.054-3.413 32.541-2.639 40.066 3.545 88.172-4.405 10.877-1.808 20.598-5.713 32.064-5.831 19.889-.198 39.059 3.13 59.195 1.344 10.775-.969 21.556-2.336 32.367-2.818 10.811-.483 20.432 1.668 31.084 2.731 11.797 1.214 24.32 1.202 36.411.609 12.975-.667 26.25-3.496 39.211-3.368 24.6.235 50.108 1.546 74.321-4.106-4.072.948 2.008 40.978 1.958 46.593-.131 18.48-6.51 36.148-6.598 54.718-.345 60.483 20.221 107.033-17.731 122.184l-.259-.314Z" fill="#F67D6B" fill-opacity=".65"/>
    <path d="M611.594 192.485c4.155-.638 7.18-2.267 7.357-2.309-7.91 1.062-11.085 1.097-14.199.117-4.386-1.445-6.755-4.8-6.734-8.691.127-2.342.712-3.083.624-3.085-.135.175-1.072.867-1.504 2.937-.242 1.279-.272 3.091.707 5.23 1.613 3.741 6.499 6.918 13.792 5.846l-.043-.045Zm10.846 63.589a51.354 51.354 0 0 1-19.253-.942c-9.222-2.232-18.181-7.069-25.226-12.935-8.48-7.128-11.631-16.466-13.995-20.176 1.722 5.202 2.938 8.937 5.896 14.027a36.122 36.122 0 0 0 6.306 7.888c6.728 6.391 15.984 11.896 25.773 14.536 5.971 1.559 12.881 2.338 20.394 1.314 7.026-.944 13.193-3.228 18.27-6.238 5.076-3.011 9.063-6.747 11.992-10.544 5.86-7.684 7.968-15.122 8.765-20.591 1.16-8.78-.824-14.075-.987-14.874-.107 1.104 1.458 10.371-2.957 21.352-1.288 3.206-3.112 6.801-5.863 10.469-2.749 3.58-6.383 7.322-11.282 10.291-4.857 3.014-10.893 5.433-17.921 6.421l.088.002Z" fill="#F67D6B" fill-opacity=".65"/>
    <path d="M633.707 241.449c-28.237 16.949-52.802-3.934-53.722-4.303 0 0 .257.446 1.079 1.433.821.986 2.206 2.513 4.599 4.454 13.143 10.434 32.382 12.215 48.607 1.654 4.237-2.892 7.062-5.719 8.953-8.031 3.151-3.882 4.026-6.123 4.389-6.736-.179.13-4.795 4.607-4.973 4.737-2.014 1.779-4.744 4.21-8.93 6.704l-.002.088ZM313.031 513.544c-.736 1.844.598 3.768 3.03 3.411 1.503-.24 1.976-2.178 1.379-3.382-1.066-2.228-3.72-1.698-4.41.015l.001-.044Zm30.667-3.997c-.671.563-.689 1.668-.038 2.254.902 1.474 3.339.763 3.37-1.093.031-1.857-2.338-2.604-3.331-1.206l-.001.045Zm11.48 14.916c-3.141.655-.983 6.085 2.319 3.753 2.088-.938 1.802-2.269 1.016-2.769-.393-.227-1.785-1.356-3.29-1.028l-.045.044Zm38.733 1.532c-3.527-.059-3.621 5.6-.094 5.659 3.526.059 3.62-5.6.094-5.659Zm15.403-19.418c-2.288-2.957-6.597 1.614-3.946 3.957l.173.18c1.087.947 2.801 1.241 3.879.065 1.078-1.176 1.016-2.769.067-4.023-.042-.089-.086-.134-.172-.224l-.001.045Zm23.489 13.967c-2.777-.046-2.852 4.463-.075 4.509 2.778.047 2.853-4.462.075-4.509Zm34.18-13.71c-.916-.59-1.891-.297-2.694.309-.045-.001-.09.087-.135.13-.804.65-.833 2.374-.05 3.006.044.001.087.09.13.135.696.586 1.528.91 2.416.527a2.353 2.353 0 0 0 1.402-2.099c.014-.796-.414-1.599-1.069-2.008Zm6.16 14.031a2.066 2.066 0 0 0-1.324 2.764c.424 1.024 1.822 1.755 2.805 1.02.848-.649 1.659-1.653 1.193-2.81-.423-1.068-1.698-1.311-2.629-1.017l-.045.043Zm43.298-5.2c-.68 1.138-.31 2.736.781 3.418 1.353.863 3.086.051 3.552-1.444.838-2.683-2.926-4.382-4.333-1.974Zm77.163-13.212c-1.675-.028-2.899 1.941-1.998 3.46l.128.223c.814 1.429 2.754 1.461 3.615.06l.136-.218c.951-1.488-.206-3.497-1.881-3.525Zm-18.062 17.561c-2.709-1.504-5.057 1.817-3.677 3.697 1.852 2.596 3.643.99 4.71.433 1.021-.381 1.997-.718 2.89-1.411 1.967-1.647-4.01-2.808-3.879-2.718l-.044-.001Zm96.597-2.009c-.82 1.578-1.422 3.337.231 4.691 1.131.903 2.762.93 4.293-.945 1.124-1.352-2.656-7.341-4.524-3.746ZM334.07 409.809c-1.53 1.876-.509 4.104 1.386 4.136a2.242 2.242 0 0 0 1.959-1.117c.545-.964.342-2.028-.306-2.835-.863-1.12-2.409-.969-3.039-.184Zm25.248-6.917c-.726 1.27-.311 2.825.866 3.64 1.395.952 3.306.055 3.773-1.528.841-2.816-3.097-4.695-4.639-2.112Zm35.427 9.392c-3.174-.053-3.259 5.075-.085 5.128 3.174.053 3.259-5.075.085-5.128Zm77.66-5.996c-3.218-.054-3.304 5.118-.086 5.171 3.218.054 3.304-5.118.086-5.171Zm-20.801-5.964c-.281.968.449 2.174 1.465 2.058.706-.032 2.423.129 2.703-.839.374-1.276-3.419-3.859-4.167-1.263l-.001.044Zm149.348 15.631c-3.659-.061-3.757 5.818-.098 5.88 3.659.061 3.756-5.818.098-5.88Zm-31.651-11.097c-.483-.141-1.012-.105-1.54-.158-2.291-.127-2.357 3.807-.062 3.713.485.008 1.058.017 1.545-.107.443-.125.844-.384 1.244-.598.802-.473.822-1.711.037-2.211-.393-.227-.785-.543-1.224-.639Zm89.713-4.291c.103 4.379 6.236 4.128 6.127.102-.059-1.725-6.236-4.128-6.127-.102Zm59.246 14.168c-.374-1.377-1.769-2.329-3.151-1.468-1.291.774-1.596 3.201-.065 3.934.481.229.831.412 1.36.421.22.004.441.007.663-.077.488-.213.577-.256.31-.128.354-.038.623-.299.848-.605.09-.087.223-.173.313-.26.582-.521.334-1.497-.278-1.817Zm35.526-12.494c-1.538-2.944-6.238-1.387-5.541 1.809-.006.309.078.576.206.843.169.445.427.803.731 1.118 1.04 1.078 2.67 1.194 3.875.286 1.162-.909 1.543-2.583.815-3.922a.336.336 0 0 0-.085-.178l-.001.044Zm32.406-5.117.089-.087s-.133.086-.177.085c-3.643 1.619.263 8.008 3.361 4.655 1.213-1.306-.508-6.553-3.273-4.653Z" fill="#F67D6B" fill-opacity=".65"/>
    <path d="M596.805 238.577s2.472 2.473 8.842 3.906c7.161 1.535 16.041.49 23.125-3.902 1.56-.991 2.233-1.687 2.949-2.294 0 0-.177-.003-.664.122-2.079.407-7.192 2.974-16.07 3.887-7.508.715-15.194-1.094-18.183-1.675l.001-.044Zm-48.847 229.994c-1.64.503-1.756 2.181-1.756 2.181s.762 1.914 2.402 1.411c1.507-.505 1.667-2.183 1.667-2.183s-.628-1.956-2.269-1.408l-.044-.001Zm233.601-100.443c-2.827.307-7.465.848-14.798 1.654-28.754 2.968-53.595 3.923-83.897 1.868-21.801-1.47-39.635-2.918-54.1-2.762-14.462-.021-25.509 1.43-33.648 2.93-4.07.86-7.434 1.6-10.182 2.438-1.373.375-2.614.752-3.677 1.044-1.064.38-1.996.719-2.839 1.014-3.239 1.228-4.569 1.692-4.569 1.692s1.327-.287 4.648-1.116c.841-.207 1.771-.457 2.834-.748 1.106-.203 2.345-.448 3.716-.734 1.371-.243 2.878-.659 4.557-.897 1.68-.281 3.537-.56 5.526-.88 8.043-1.059 18.862-2.028 33.098-1.701 13.138.131 32.644 1.784 53.607 3.285 32.944 2.275 66.923.633 98.875-6.393 3.276-.786 4.649-1.117 4.649-1.117s-.971.028-3.799.379l-.001.044ZM404.13 309.372c29.108-3.051 58.256 4.777 85.131-1.892a161.221 161.221 0 0 1 3.943-1.084s-.839.03-3.27.388c-1.194.201-2.783.351-4.903.537-23.195 2.751-53.767-4.26-80.575-1.614-36.878 3.628-56.331 14.666-93.277 3.834.92.369 6.505 3.867 17.98 5.916 24.841 4.307 49.75-3.456 74.926-6.042l.045-.043Zm135.781-11.701a316.413 316.413 0 0 1 20.135-1.697c24.889-1.264 36.575 1.32 60.352 3.354 6.296.547 12.946 1.012 19.953 1.262 3.525.147 7.096.163 10.8.136 3.66.017 7.544-.227 11.387-.649 7.245-.807 14.058-2.153 20.471-3.328 6.458-1.218 12.514-2.178 18.387-2.654 5.873-.521 11.522-.869 16.914-1.619 5.436-.705 10.307-1.994 14.992-2.667 18.791-3.09 33.479-3.375 44.499-3.147 11.062.274 18.545 1.062 23.209 1.627 4.709.565 6.645.819 6.645.819-2.461-.484-10.449-2.74-26.08-4.063-10.436-.793-24.889-1.389-44.288 1.116-4.816.583-10.034 1.513-15.385 2.484-5.35.884-11.134 1.317-17.314 1.745-3.09.213-6.313.469-9.627.856-3.313.386-6.673.949-10.123 1.555-6.854 1.211-14.021 2.639-21.577 3.574-7.555.935-14.829.813-21.793.696-6.964-.16-13.571-.581-19.868-1.084-24.529-1.869-37.055-4.334-61.117-2.437a279.825 279.825 0 0 0-20.366 2.356c-11.539 1.841-19.108 3.571-23.845 4.73-4.737 1.159-6.642 1.702-6.642 1.702s1.901-.322 6.632-1.127c4.732-.805 12.293-2.094 23.736-3.45l-.087-.09Zm-90.037-39.798c4.635-.32 10.269.26 14.603 2.19.656.276 1.355.686 1.787 1.224.215.313.386.625.424 1.024.115 1.019-.607 2.023-.448 3.043.241 1.419 1.997 1.891 3.364 1.914 3.348.144 6.668-.596 9.983-1.116 2.52-.4 6.948-1.519 9.352-.241 2.185 1.186 3.34 3.328 6.06 4.169 2.808.843 5.07.041 7.85-.134 2.473-.179 4.983-.005 7.5-.228 6.402-.512 12.764-1.246 19.163-1.625 1.634-.105 2.296-.183 2.296-.183s-.483-.096-1.847-.252c-6.514-.728-13.087-.528-19.662-.24-3.971.155-11.977 1.701-15.323-1.274-.738-.675-1.297-1.525-2.036-2.2-1.302-1.216-3.101-1.777-4.863-1.894-6.077-.456-12.232 3.774-18.243 1.994-.307-.138 1.493-2.319-.623-4.963-5.056-6.187-22.968-2.905-30.374-.376-1.597.548-2.22.892-2.22.892 1.291-.686 3.714-.601 5.128-.799 2.697-.397 5.393-.794 8.13-.969l-.001.044Zm-44.14 16.064c2.938.977.925 2.712 1.117 4.44.188 1.949 2.251 2.514 3.876 2.895 2.987.669 5.386-.396 8.173-.969 2.345-.491 5.65-.347 7.788.971 1.79 1.091 2.691 2.609 4.84 3.308 4.912 1.542 10.486.441 15.438-.36 1.106-.203 1.592-.283 1.592-.283s-.307-.094-1.276-.154c-.968-.105-2.554-.176-5.022-.261-16.524-.675-9.571-2.46-13.053-5.215-.483-.097-2.721-3.406-13.089-.396-1.95.587-4.477 1.384-6.31.248 1.089-1.794 2.039-3.238.255-4.727-1.609-1.309-4.694-1.405-6.636-1.305-4.501.235-8.901 2.283-12.941 3.984-1.066.469-1.51.638-1.51.638s.485.009 1.635-.237c4.467-.81 10.738-4.066 15.211-2.576l-.088-.001Zm282.54-36.571c1.228 3.027-2.297 5.577-1.287 8.468.168.489.469.981.901 1.474 2.122 2.335 5.893.939 8.629.808 3.178-.168 7.287-.674 10.121 1.231 3.925 2.586 2.116 7.95 5.686 10.707 3.004 2.305 7.002.515 10.392.837 1.542.114 2.552.308 3.21.54.613.231.921.325.921.325s-.13-.135-.609-.497c-3.534-2.27-10.593.619-12.452-4.276-1.014-2.67.964-4.936-1.24-7.582-4.107-4.932-12.38-3.258-17.844-3.526-8.502-.452-.691-11.464-9.327-11.829-3.393-.146-5.169.62-7.075 1.208 2.305-.713 8.787-.738 10.018 2.157l-.044-.045Zm3.911-17.71c5.133 1.545 10.649 3.893 12.355 7.37.299.58.42 1.245.583 2.088.161.887.364 1.952.831 3.065.423 1.068 1.155 2.142 2.066 3.041.911.856 2.003 1.493 3.142 1.954 2.234.878 4.61 1.183 6.988 1.355 4.316.294 10.167-1.554 13.819 1.558 1.566 1.308 2.458 3.313 3.71 4.97 3.063 4.031 8.194 5.709 13.07 6.807 4.877 1.054 9.979 1.847 14.074 4.79-2.484-1.766-3.86-3.867-6.882-5.068-5.739-2.262-13.279-2.211-17.291-7.585-1.94-2.641-1.677-5.201-4.823-6.89-2.446-1.411-5.31-1.548-7.821-1.678a23.302 23.302 0 0 1-1.806-.119c-.616-.054-1.321-.11-1.893-.164-1.234-.021-2.423-.129-3.568-.193-4.054-.2-6.696-.377-9.016-4.086-1.675-2.636-2.503-5.878-4.938-7.953-3.216-2.839-8.051-3.716-12.047-4.712-3.82-.948-6.465-.992-8.097-.975-1.633.061-2.251.139-2.251.139s.659.144 2.197.435c1.934.386 4.702.963 7.642 1.852l-.044-.001ZM525.7 258.7c5.187 1.015 8.623 1.161 10.697 1.063 2.074-.098 2.784-.351 2.784-.351s-.478-.406-2.321-.968c-1.842-.561-5.048-1.322-10.542-2.431-5.493-1.109-9.056-1.611-11.214-1.736-2.159-.124-2.911.04-2.911.04s.609.497 2.624 1.282c2.015.786 5.304 1.902 10.884 3.056l-.001.045Z" fill="#F67D6B" fill-opacity=".65"/>
    <path d="M110.4 466.6c-22.6 0-42.3-4.3-59.1-12.9-16.6-8.6-29.3-20.2-38.1-34.8C4.4 404.1 0 387.7 0 369.7c0-19.2 5-36.2 15-51 10-14.8 23.8-26.2 41.4-34.2 17.6-8.2 37.3-12.3 59.1-12.3 10 0 19.7.8 29.1 2.4 9.6 1.6 17.4 3.9 23.4 6.9 1.8.8 2.8 1.5 3 2.1.4.6.7 2.2.9 4.8l3.9 39.6c0 .6-.6 1-1.8 1.2-1 .2-1.6-.1-1.8-.9-4.2-12.6-11.9-24.1-23.1-34.5-11.2-10.6-25.6-15.9-43.2-15.9-13.8 0-26.4 3.5-37.8 10.5-11.2 7-20.1 17.1-26.7 30.3-6.4 13-9.6 28.1-9.6 45.3 0 18.2 3.5 34.8 10.5 49.8 7.2 14.8 17.3 26.5 30.3 35.1 13.2 8.6 28.3 12.9 45.3 12.9 8.6 0 15.3-1 20.1-3 4.8-2 8.3-5.6 10.5-10.8 2.2-5.2 3.3-12.8 3.3-22.8 0-10.4-.6-17.6-1.8-21.6-1.2-4.2-3.9-7-8.1-8.4-4-1.4-11.1-2.1-21.3-2.1-1.2 0-1.8-.8-1.8-2.4 0-.6.1-1.1.3-1.5.4-.6.8-.9 1.2-.9 16.6 1 29.9 1.5 39.9 1.5s20.4-.3 31.2-.9c.4 0 .7.3.9.9.4.4.6.8.6 1.2 0 1.4-.5 2.1-1.5 2.1-4-.2-6.8.5-8.4 2.1-1.6 1.4-2.7 4.4-3.3 9-.4 4.6-.6 12.6-.6 24 0 9 .3 15.4.9 19.2.8 3.8 1.2 6.2 1.2 7.2 0 1.2-.2 2-.6 2.4-.4.4-1.3.8-2.7 1.2-25.2 5.6-47.7 8.4-67.5 8.4Zm336.483-7.2c.6 0 .9.6.9 1.8 0 1.2-.3 1.8-.9 1.8h-48.3c-4.6 0-13.2-8-25.8-24-12.4-16-27.5-38.4-45.3-67.2-4.4.4-7.8.6-10.2.6-4.4 0-9.6-.2-15.6-.6v66.9c0 6.2.5 10.7 1.5 13.5 1.2 2.8 3.3 4.7 6.3 5.7 3.2 1 8.2 1.5 15 1.5.4 0 .6.6.6 1.8 0 1.2-.2 1.8-.6 1.8-6.6 0-11.7-.1-15.3-.3l-22.2-.3-21.6.3c-3.8.2-9 .3-15.6.3-.6 0-.9-.6-.9-1.8 0-1.2.3-1.8.9-1.8 6.8 0 11.7-.5 14.7-1.5 3.2-1 5.4-2.9 6.6-5.7 1.2-3 1.8-7.5 1.8-13.5V299.8c0-6-.6-10.4-1.8-13.2-1-2.8-3.1-4.7-6.3-5.7-3.2-1.2-8.1-1.8-14.7-1.8-.4 0-.6-.6-.6-1.8 0-1.2.2-1.8.6-1.8l15.6.3c8.8.4 15.9.6 21.3.6 6.6 0 13.8-.3 21.6-.9 2.6-.2 5.7-.4 9.3-.6 3.8-.2 8-.3 12.6-.3 17.4 0 30.8 3.4 40.2 10.2 9.6 6.8 14.4 16.3 14.4 28.5 0 11-3.1 20.9-9.3 29.7-6 8.8-14.1 15.8-24.3 21 16.4 24.2 30.1 43.1 41.1 56.7 11 13.6 20.7 23.5 29.1 29.7 8.6 6 17 9 25.2 9Zm-145.2-95.7c4.8.8 10.6 1.2 17.4 1.2 13 0 22.3-3.2 27.9-9.6 5.6-6.6 8.4-17.1 8.4-31.5 0-16.2-2.8-27.5-8.4-33.9-5.4-6.4-13.3-9.6-23.7-9.6-7.8 0-13.4 1.5-16.8 4.5-3.2 2.8-4.8 8-4.8 15.6v63.3Zm390.429 95.7c1 0 1.5.6 1.5 1.8 0 1.2-.5 1.8-1.5 1.8-3.8 0-9.9-.2-18.3-.6-8.4-.4-14.5-.6-18.3-.6-5 0-10.9.2-17.7.6-6.8.4-12.1.6-15.9.6-.8 0-1.2-.6-1.2-1.8 0-1.2.4-1.8 1.2-1.8 5.8 0 10-.6 12.6-1.8 2.8-1.4 4.2-3.6 4.2-6.6 0-3-1.7-8.1-5.1-15.3l-22.8-46.2h-72.6l-14.4 32.4c-2.6 6-3.9 11.4-3.9 16.2 0 7 2.5 12.3 7.5 15.9 5 3.6 12 5.4 21 5.4 1 0 1.5.6 1.5 1.8 0 1.2-.5 1.8-1.5 1.8-3.6 0-8.8-.2-15.6-.6-7.6-.4-14.2-.6-19.8-.6-5.4 0-11.7.2-18.9.6-6.4.4-11.7.6-15.9.6-1 0-1.5-.6-1.5-1.8 0-1.2.5-1.8 1.5-1.8 5.6 0 10.3-1.1 14.1-3.3 3.8-2.2 7.5-6.1 11.1-11.7 3.6-5.8 7.9-14.3 12.9-25.5l64.5-145.2c.4-.6 1.3-.9 2.7-.9 1.4 0 2.2.3 2.4.9l73.5 148.2c7 14.4 12.8 24.3 17.4 29.7 4.8 5.2 9.9 7.8 15.3 7.8Zm-150.6-77.4h65.7l-34.5-69.9-31.2 69.9Zm247.481 55.5c0 6.4.7 11.1 2.1 14.1 1.6 2.8 4.5 4.8 8.7 6 4.4 1.2 11.2 1.8 20.4 1.8.6 0 .9.6.9 1.8 0 1.2-.3 1.8-.9 1.8-8.2 0-14.6-.1-19.2-.3l-26.1-.3-21.6.3c-3.8.2-9 .3-15.6.3-.6 0-.9-.6-.9-1.8 0-1.2.3-1.8.9-1.8 6.8 0 11.7-.5 14.7-1.5s5-2.9 6-5.7c1.2-2.8 1.8-7.3 1.8-13.5V299.8c0-6-.6-10.4-1.8-13.2-1-2.8-3.1-4.7-6.3-5.7-3-1.2-7.8-1.8-14.4-1.8-.6 0-.9-.6-.9-1.8 0-1.2.3-1.8.9-1.8l15.6.3c8.8.4 15.9.6 21.3.6 4.6 0 10.2-.3 16.8-.9 2.4-.2 5.6-.4 9.6-.6 4.2-.2 9.1-.3 14.7-.3 19.8 0 35.4 4.2 46.8 12.6 11.6 8.4 17.4 21.3 17.4 38.7 0 12.6-3.3 23.3-9.9 32.1-6.4 8.8-14.7 15.4-24.9 19.8-10 4.4-20.3 6.6-30.9 6.6-5.6 0-10.3-.5-14.1-1.5-.6 0-.9-.5-.9-1.5 0-.6.1-1.2.3-1.8.4-.6.8-.8 1.2-.6 3.2.8 6.7 1.2 10.5 1.2 10.4 0 19.2-4.3 26.4-12.9 7.2-8.6 10.8-20.9 10.8-36.9 0-15.8-3.7-28-11.1-36.6-7.4-8.8-17.6-13.2-30.6-13.2-4.8 0-8.5.5-11.1 1.5-2.4 1-4.1 2.9-5.1 5.7-1 2.6-1.5 6.8-1.5 12.6v137.1Zm283.737-21.3c0-.4.4-.6 1.2-.6.6 0 1.1.2 1.5.6.6.2.9.4.9.6-2 15.2-3 29.1-3 41.7 0 1.6-.3 2.8-.9 3.6-.6.6-1.8.9-3.6.9H938.634c-.6 0-.9-.6-.9-1.8 0-1.2.3-1.8.9-1.8 6.8 0 11.7-.5 14.7-1.5 3.2-1 5.3-2.9 6.3-5.7 1.2-3 1.8-7.5 1.8-13.5V299.8c0-6-.6-10.4-1.8-13.2-1-2.8-3.1-4.7-6.3-5.7-3.2-1.2-8.1-1.8-14.7-1.8-.6 0-.9-.6-.9-1.8 0-1.2.3-1.8.9-1.8h124.796c2 0 3 .9 3 2.7l.6 39c0 .4-.6.7-1.8.9-1 .2-1.6 0-1.8-.6-4.8-22.8-18.7-34.2-41.7-34.2h-12c-7.2 0-12.296 1.3-15.296 3.9-3 2.6-4.5 7-4.5 13.2v61.2h28.796c22 0 33-7.4 33-22.2 0-.6.5-.9 1.5-.9 1.2 0 1.8.3 1.8.9l-.3 26.1.3 14.1c.4 6.4.6 11.6.6 15.6 0 .4-.6.6-1.8.6-1.2 0-1.8-.2-1.8-.6 0-17.2-11.2-25.8-33.6-25.8h-28.496v68.1c0 6.6 1.2 11.2 3.6 13.8 2.6 2.6 7.096 3.9 13.496 3.9h14.7c26.8 0 43.8-13 51-39Z" fill="#0B2470"/>
</svg>
