<?xml version="1.0" encoding="UTF-8"?>
<svg id="icon" enable-background="new 0 0 80 80" style="max-width:100%" version="1.1" viewBox="0 0 80 80" xml:space="preserve" xmlns="http://www.w3.org/2000/svg">
    <g fill="currentColor" style="">
        <path d="m36 19.62h-23c-0.21 0-0.38 0.17-0.38 0.38v23c0 0.21 0.17 0.38 0.38 0.38h13.62c-0.13 5.88-3.4 11.23-8.6 14.03l-4.2 2.26c-0.15 0.08-0.23 0.25-0.18 0.42 0.04 0.17 0.19 0.29 0.36 0.29h5c9.58 0 17.38-7.8 17.38-17.38v-23c0-0.21-0.17-0.38-0.38-0.38z" style="color: rgb(246, 125, 107)"/>
        <path d="m67 19.62h-23c-0.21 0-0.38 0.17-0.38 0.38v23c0 0.21 0.17 0.38 0.38 0.38h13.62c-0.13 5.88-3.4 11.23-8.6 14.03l-4.2 2.26c-0.15 0.08-0.23 0.25-0.18 0.42 0.04 0.17 0.19 0.29 0.36 0.29h5c9.58 0 17.38-7.8 17.38-17.38v-23c0-0.21-0.17-0.38-0.38-0.38z" style="color: rgb(246, 125, 107)"/>
    </g>
</svg>
